<?xml version="1.0" encoding="UTF-8" standalone="no"?>
<!-- Created with Inkscape (http://www.inkscape.org/) -->

<svg
   xmlns:dc="http://purl.org/dc/elements/1.1/"
   xmlns:cc="http://creativecommons.org/ns#"
   xmlns:rdf="http://www.w3.org/1999/02/22-rdf-syntax-ns#"
   xmlns:svg="http://www.w3.org/2000/svg"
   xmlns="http://www.w3.org/2000/svg"
   xmlns:xlink="http://www.w3.org/1999/xlink"
   xmlns:sodipodi="http://sodipodi.sourceforge.net/DTD/sodipodi-0.dtd"
   xmlns:inkscape="http://www.inkscape.org/namespaces/inkscape"
   width="300.00345"
   height="333.43665"
   id="svg3131"
   version="1.1"
   inkscape:version="0.48.5 r10040"
   sodipodi:docname="gear.svg">
  <defs
     id="defs3133">
    <linearGradient
       inkscape:collect="always"
       id="linearGradient4204">
      <stop
         style="stop-color:#1a1a1a;stop-opacity:1;"
         offset="0"
         id="stop4206" />
      <stop
         style="stop-color:#1a1a1a;stop-opacity:0;"
         offset="1"
         id="stop4208" />
    </linearGradient>
    <linearGradient
       id="linearGradient4170"
       inkscape:collect="always">
      <stop
         id="stop4172"
         offset="0"
         style="stop-color:#000000;stop-opacity:1" />
      <stop
         style="stop-color:#404040;stop-opacity:1;"
         offset="0.80000001"
         id="stop4174" />
      <stop
         id="stop4176"
         offset="1"
         style="stop-color:#4d4d4d;stop-opacity:1" />
    </linearGradient>
    <linearGradient
       inkscape:collect="always"
       id="linearGradient4154">
      <stop
         style="stop-color:#333333;stop-opacity:1"
         offset="0"
         id="stop4156" />
      <stop
         id="stop4162"
         offset="0.80000001"
         style="stop-color:#555555;stop-opacity:1;" />
      <stop
         style="stop-color:#333333;stop-opacity:1"
         offset="1"
         id="stop4158" />
    </linearGradient>
    <linearGradient
       inkscape:collect="always"
       id="linearGradient4140">
      <stop
         style="stop-color:#000000;stop-opacity:1"
         offset="0"
         id="stop4142" />
      <stop
         id="stop4148"
         offset="0.80000001"
         style="stop-color:#404040;stop-opacity:1;" />
      <stop
         style="stop-color:#666666;stop-opacity:1"
         offset="1"
         id="stop4144" />
    </linearGradient>
    <linearGradient
       inkscape:collect="always"
       id="linearGradient3278">
      <stop
         style="stop-color:#808080;stop-opacity:1;"
         offset="0"
         id="stop3280" />
      <stop
         id="stop3286"
         offset="0.80000001"
         style="stop-color:#1a1a1a;stop-opacity:1" />
      <stop
         style="stop-color:#808080;stop-opacity:0;"
         offset="1"
         id="stop3282" />
    </linearGradient>
    <linearGradient
       inkscape:collect="always"
       id="linearGradient3172">
      <stop
         style="stop-color:#000000;stop-opacity:1"
         offset="0"
         id="stop3174" />
      <stop
         id="stop4058"
         offset="0.33011001"
         style="stop-color:#666666;stop-opacity:1" />
      <stop
         id="stop3288"
         offset="0.55018336"
         style="stop-color:#333333;stop-opacity:1" />
      <stop
         id="stop3182"
         offset="0.69848794"
         style="stop-color:#666666;stop-opacity:1" />
      <stop
         id="stop3180"
         offset="0.76204705"
         style="stop-color:#000000;stop-opacity:1" />
      <stop
         style="stop-color:#808080;stop-opacity:1"
         offset="0.80963767"
         id="stop3184" />
      <stop
         style="stop-color:#808080;stop-opacity:1"
         offset="1"
         id="stop3176" />
    </linearGradient>
    <radialGradient
       inkscape:collect="always"
       xlink:href="#linearGradient3172"
       id="radialGradient3178"
       cx="358.09454"
       cy="458.14862"
       fx="358.09454"
       fy="458.14862"
       r="127.2459"
       gradientTransform="matrix(0,-1.0026936,1.000336,1.9254024e-6,-108.67938,812.30745)"
       gradientUnits="userSpaceOnUse" />
    <radialGradient
       inkscape:collect="always"
       xlink:href="#linearGradient3278"
       id="radialGradient3284"
       cx="215.78897"
       cy="268.8157"
       fx="215.78897"
       fy="268.8157"
       r="50.96875"
       gradientUnits="userSpaceOnUse"
       gradientTransform="matrix(0,-0.97431943,0.99999999,1.507704e-6,-31.112854,480.95583)" />
    <radialGradient
       inkscape:collect="always"
       xlink:href="#linearGradient4140"
       id="radialGradient4146"
       cx="115.73919"
       cy="77.504669"
       fx="115.73919"
       fy="77.504669"
       r="54.875"
       gradientTransform="matrix(0,-1.4236447,1.4979763,1.6105677e-7,235.72218,615.31562)"
       gradientUnits="userSpaceOnUse" />
    <radialGradient
       inkscape:collect="always"
       xlink:href="#linearGradient4154"
       id="radialGradient4160"
       cx="353.85513"
       cy="453.55801"
       fx="353.85513"
       fy="453.55801"
       r="36.822979"
       gradientTransform="matrix(0,-0.95495944,0.99971553,8.0840065e-8,-101.21669,793.08617)"
       gradientUnits="userSpaceOnUse" />
    <radialGradient
       inkscape:collect="always"
       xlink:href="#linearGradient4170"
       id="radialGradient4168"
       gradientUnits="userSpaceOnUse"
       gradientTransform="matrix(1,0,0,0.99971518,0,0.12883241)"
       cx="349.36096"
       cy="452.33554"
       fx="349.36096"
       fy="452.33554"
       r="53.736439" />
    <radialGradient
       inkscape:collect="always"
       xlink:href="#linearGradient3172"
       id="radialGradient4187"
       gradientUnits="userSpaceOnUse"
       gradientTransform="matrix(0,-1.0026936,1.000336,1.9254024e-6,-108.67938,812.30745)"
       cx="358.09454"
       cy="458.14862"
       fx="358.09454"
       fy="458.14862"
       r="127.2459" />
    <radialGradient
       inkscape:collect="always"
       xlink:href="#linearGradient3278"
       id="radialGradient4189"
       gradientUnits="userSpaceOnUse"
       gradientTransform="matrix(0,-0.97431943,0.99999999,1.507704e-6,-31.112854,480.95583)"
       cx="215.78897"
       cy="268.8157"
       fx="215.78897"
       fy="268.8157"
       r="50.96875" />
    <radialGradient
       inkscape:collect="always"
       xlink:href="#linearGradient4170"
       id="radialGradient4191"
       gradientUnits="userSpaceOnUse"
       gradientTransform="matrix(1,0,0,0.99971518,0,0.12883241)"
       cx="349.36096"
       cy="452.33554"
       fx="349.36096"
       fy="452.33554"
       r="53.736439" />
    <radialGradient
       inkscape:collect="always"
       xlink:href="#linearGradient3278"
       id="radialGradient4197"
       gradientUnits="userSpaceOnUse"
       gradientTransform="matrix(0,-0.9812219,1.0070844,1.5183852e-6,190.7312,807.07271)"
       cx="215.78897"
       cy="268.8157"
       fx="215.78897"
       fy="268.8157"
       r="50.96875" />
    <radialGradient
       inkscape:collect="always"
       xlink:href="#linearGradient3172"
       id="radialGradient4202"
       gradientUnits="userSpaceOnUse"
       gradientTransform="matrix(0,-1.0097971,1.0074228,1.9390427e-6,-111.03786,813.39893)"
       cx="358.09454"
       cy="458.14862"
       fx="358.09454"
       fy="458.14862"
       r="127.2459" />
    <radialGradient
       inkscape:collect="always"
       xlink:href="#linearGradient4204"
       id="radialGradient4210"
       cx="350.02145"
       cy="458.27914"
       fx="350.02145"
       fy="458.27914"
       r="54.11713"
       gradientTransform="matrix(1.2234571e-7,-4.010857,1.1502599,3.5087105e-8,-177.11872,1862.163)"
       gradientUnits="userSpaceOnUse" />
  </defs>
  <sodipodi:namedview
     id="base"
     pagecolor="#ffffff"
     bordercolor="#666666"
     borderopacity="1.0"
     inkscape:pageopacity="0.0"
     inkscape:pageshadow="2"
     inkscape:zoom="1.2401672"
     inkscape:cx="208.05669"
     inkscape:cy="166.72525"
     inkscape:document-units="px"
     inkscape:current-layer="layer1"
     showgrid="false"
     fit-margin-top="0"
     fit-margin-left="0"
     fit-margin-right="0"
     fit-margin-bottom="0"
     inkscape:window-width="1920"
     inkscape:window-height="1025"
     inkscape:window-x="0"
     inkscape:window-y="33"
     inkscape:window-maximized="1" />
  <metadata
     id="metadata3136">
    <rdf:RDF>
      <cc:Work
         rdf:about="">
        <dc:format>image/svg+xml</dc:format>
        <dc:type
           rdf:resource="http://purl.org/dc/dcmitype/StillImage" />
        <dc:title></dc:title>
      </cc:Work>
    </rdf:RDF>
  </metadata>
  <g
     inkscape:label="Camada 1"
     inkscape:groupmode="layer"
     id="layer1"
     transform="translate(-224.23195,-324.81343)">
    <g
       id="g4212">
      <path
         inkscape:connector-curvature="0"
         id="path3091"
         d="m 343.63482,324.81343 -3.2666,10.65943 c -8.69304,0.73499 -17.14775,2.43671 -25.18721,4.98586 l -7.04899,-8.59631 -12.20677,5.07183 1.11753,11.08925 c -7.6633,3.97356 -14.86174,8.75339 -21.40484,14.26989 l -9.88577,-5.24376 -9.28402,9.28403 5.24375,9.88576 c -5.51655,6.54311 -10.29635,13.74133 -14.26988,21.40484 l -11.08926,-1.11738 -5.07183,12.20677 8.59632,7.04898 c -2.56539,8.06733 -4.24806,16.46092 -4.98586,25.18721 l -10.65944,3.2666 0,13.23834 10.65944,3.2666 c 0.73573,8.70167 2.43244,17.14065 4.98586,25.18735 l -8.59632,7.04899 5.07183,12.20677 11.08926,-1.11767 c 3.97353,7.66325 8.75333,14.86187 14.26988,21.40498 l -5.24375,9.88563 9.28402,9.28403 9.88577,-5.24362 c 6.54618,5.52338 13.73636,10.29192 21.40484,14.26989 l -1.11753,11.17522 12.20677,4.98586 7.04899,-8.59632 c 8.04676,2.55358 16.48548,4.2503 25.18721,4.98586 l 3.2666,10.74526 13.23834,0 3.2666,-10.74526 c 8.70173,-0.73556 17.14045,-2.43228 25.18721,-4.98586 l 7.04898,8.59632 12.20677,-4.98586 -1.11752,-11.17522 c 7.66848,-3.97797 14.85866,-8.74651 21.40483,-14.26989 l 9.88578,5.24362 9.28402,-9.28403 -5.24375,-9.88563 c 5.51654,-6.54311 10.29635,-13.74173 14.26988,-21.40498 l 11.08926,1.11767 5.07183,-12.20677 -8.59632,-7.04899 c 2.55342,-8.0467 4.25012,-16.48568 4.98586,-25.18735 l 10.65943,-3.2666 0,-13.23834 -10.65943,-3.2666 c -0.7378,-8.72629 -2.42048,-17.11988 -4.98586,-25.18721 l 8.59632,-7.04898 -5.07183,-12.20677 -11.08926,1.11738 c -3.97353,-7.66351 -8.75334,-14.86173 -14.26988,-21.40484 l 5.24375,-9.88576 -9.28402,-9.28403 -9.88578,5.24376 c -6.54309,-5.5165 -13.74153,-10.29633 -21.40483,-14.26989 l 1.11752,-11.08925 -12.20677,-5.07183 -7.04898,8.59631 c -8.03947,-2.54915 -16.49417,-4.25087 -25.18721,-4.98586 l -3.2666,-10.65943 -13.23834,0 z m 6.61917,75.9055 c 27.72339,0 50.20251,22.47916 50.20251,50.20264 0,27.72333 -22.47912,50.11667 -50.20251,50.11667 -27.72339,0 -50.20251,-22.39334 -50.20251,-50.11667 0,-27.72348 22.47912,-50.20264 50.20251,-50.20264 z"
         style="fill:url(#radialGradient4202);fill-opacity:1;stroke:none" />
      <path
         inkscape:connector-curvature="0"
         id="path3097"
         d="m 456.66946,538.32069 -4.29816,12.12094 0,0.68771 0.42982,1.97702 c -5.62874,1.11738 -10.78229,3.28008 -15.38742,6.36128 l -1.11752,-1.71927 -0.42981,-0.51578 -11.60504,-5.50165 -6.44723,6.44739 5.41568,11.69099 0.60174,0.42968 1.6333,1.03156 c -3.06653,4.58314 -5.23869,9.78962 -6.36127,15.38754 l -1.97716,-0.34385 -0.68771,-0.0853 -12.1208,4.38426 0,9.1121 12.1208,4.38398 0.68771,-0.0853 1.97716,-0.42995 c 1.11757,5.63039 3.27872,10.86712 6.36127,15.47338 l -1.6333,1.03155 -0.60174,0.42996 -5.41568,11.69099 6.44723,6.4471 11.60504,-5.50164 0.42981,-0.51578 1.11752,-1.71926 c 4.60513,3.08146 9.75868,5.24389 15.38742,6.36127 l -0.42982,1.9773 0,0.68769 4.29816,12.12068 9.1121,0 4.38412,-12.12068 -0.0861,-0.68769 -0.34385,-1.9773 c 5.55743,-1.11464 10.74271,-3.24322 15.30144,-6.27518 l 1.11753,1.63317 0.51577,0.51578 11.60504,5.50164 6.44723,-6.4471 -5.50164,-11.69099 -0.51578,-0.42996 -1.6333,-1.11739 c 3.03397,-4.56031 5.24637,-9.74176 6.36128,-15.30144 l 1.89119,0.34385 0.77367,0.0853 12.03485,-4.38398 0,-9.1121 -12.03485,-4.38426 -0.77367,0.0853 -1.89119,0.34385 c -1.11455,-5.55804 -3.32893,-10.74251 -6.36128,-15.30145 l 1.6333,-1.11765 0.51578,-0.42968 5.50164,-11.69099 -6.44723,-6.44739 -11.60504,5.50165 -0.51577,0.51578 -1.11753,1.63344 c -4.55873,-3.03224 -9.74401,-5.16082 -15.30144,-6.27545 l 0.34385,-1.97702 0.0861,-0.68771 -4.38412,-12.12094 -9.1121,0 z m 4.55605,34.29945 c 12.49339,0 22.60832,10.11477 22.60832,22.60818 0,12.49341 -10.11493,22.60846 -22.60832,22.60846 -12.49339,0 -22.60832,-10.11505 -22.60832,-22.60846 0,-12.49341 10.11493,-22.60818 22.60832,-22.60818 z"
         style="fill:#ffffff;fill-opacity:1;stroke:#666666;stroke-width:12.19789028;stroke-miterlimit:4;stroke-opacity:1;stroke-dasharray:none" />
      <path
         id="path3200"
         d="m 461.21554,543.89051 c -28.34672,0 -51.32983,22.98311 -51.32983,51.32983 0,28.34673 22.98311,51.32984 51.32983,51.32984 28.34673,0 51.32984,-22.98311 51.32984,-51.32984 0,-28.34672 -22.98311,-51.32983 -51.32984,-51.32983 z m 0,23.13147 c 15.5739,0 28.19837,12.62447 28.19837,28.19836 0,15.5739 -12.62447,28.19837 -28.19837,28.19837 -15.57389,0 -28.19836,-12.62447 -28.19836,-28.19837 0,-15.57389 12.62447,-28.19836 28.19836,-28.19836 z"
         style="fill:#666666;fill-opacity:1;stroke:none"
         inkscape:connector-curvature="0" />
      <path
         style="fill:url(#radialGradient4197);fill-opacity:1;stroke:none"
         d="m 461.21554,543.89051 c -28.34672,0 -51.32983,22.98311 -51.32983,51.32983 0,28.34673 22.98311,51.32984 51.32983,51.32984 28.34673,0 51.32984,-22.98311 51.32984,-51.32984 0,-28.34672 -22.98311,-51.32983 -51.32984,-51.32983 z m 0,23.13147 c 15.5739,0 28.19837,12.62447 28.19837,28.19836 0,15.5739 -12.62447,28.19837 -28.19837,28.19837 -15.57389,0 -28.19836,-12.62447 -28.19836,-28.19837 0,-15.57389 12.62447,-28.19836 28.19836,-28.19836 z"
         id="path3276"
         inkscape:connector-curvature="0" />
      <path
         inkscape:connector-curvature="0"
         id="path4079"
         d="m 350.24743,396.7751 c -29.88703,0 -54.11713,24.2301 -54.11713,54.11713 0,29.88702 24.2301,54.08631 54.11713,54.08631 29.88702,0 54.11713,-24.19929 54.11713,-54.08631 0,-29.88703 -24.23011,-54.11713 -54.11713,-54.11713 z m 0,20.21688 c 18.7152,0 33.90025,15.18505 33.90025,33.90025 0,18.7152 -15.18505,33.86943 -33.90025,33.86943 -18.71521,0 -33.86943,-15.15423 -33.86943,-33.86943 0,-18.7152 15.15422,-33.90025 33.86943,-33.90025 z"
         style="fill:url(#radialGradient4210);fill-opacity:1;stroke:none" />
    </g>
  </g>
</svg>
