<?xml version="1.0" encoding="UTF-8" standalone="no"?>
<svg
   xmlns:dc="http://purl.org/dc/elements/1.1/"
   xmlns:cc="http://creativecommons.org/ns#"
   xmlns:rdf="http://www.w3.org/1999/02/22-rdf-syntax-ns#"
   xmlns:svg="http://www.w3.org/2000/svg"
   xmlns="http://www.w3.org/2000/svg"
   xmlns:sodipodi="http://sodipodi.sourceforge.net/DTD/sodipodi-0.dtd"
   xmlns:inkscape="http://www.inkscape.org/namespaces/inkscape"
   width="291.85532"
   height="530.12964"
   version="1.1"
   id="svg3522"
   sodipodi:docname="big-rocket-blast-off-1-window.svg"
   viewBox="0 0 291.85532 530.12964"
   inkscape:version="0.92pre1_64bit r15016">
  <defs
     id="defs3526" />
  <sodipodi:namedview
     pagecolor="#ffffff"
     bordercolor="#666666"
     borderopacity="1"
     objecttolerance="10"
     gridtolerance="10"
     guidetolerance="10"
     inkscape:pageopacity="0"
     inkscape:pageshadow="2"
     inkscape:window-width="1366"
     inkscape:window-height="745"
     id="namedview3524"
     showgrid="false"
     fit-margin-top="10"
     fit-margin-left="10"
     fit-margin-right="10"
     fit-margin-bottom="10"
     inkscape:zoom="1.116708"
     inkscape:cx="145.92766"
     inkscape:cy="265.06482"
     inkscape:window-x="-8"
     inkscape:window-y="-8"
     inkscape:window-maximized="1"
     inkscape:current-layer="svg3522" />
  <title
     id="title3504">Big Rocket Blast Off</title>
  <metadata
     id="metadata7">image/svg+xml<rdf:RDF>
  <cc:Work
     rdf:about="">
    <dc:format>image/svg+xml</dc:format>
    <dc:type
       rdf:resource="http://purl.org/dc/dcmitype/StillImage" />
    <dc:title>Big Rocket Blast Off</dc:title>
  </cc:Work>
</rdf:RDF>
</metadata>
  <path
     style="fill:#bfbfbf;fill-rule:evenodd;stroke:#000000;stroke-width:11;stroke-linejoin:round;stroke-miterlimit:4"
     inkscape:connector-curvature="0"
     d="m 87.70542,414.5832 117.81494,-1.36509 C 218.49345,281.33165 260.76939,137.77601 141.30799,15.49975 25.13972,140.50655 67.0333,283.75013 87.7057,414.58345 Z"
     id="path3297"
     stroke-miterlimit="4" />
  <path
     style="stroke-width:11;marker-start:none;marker-mid:none;marker-end:none"
     inkscape:connector-curvature="0"
     id="svg_2"
     d="m 167.33161,111.31125 c -4.83999,11.61837 -18.74481,17.33431 -31.05685,12.76688 -12.31213,-4.56746 -18.36932,-17.68864 -13.52914,-29.30705 9.85479,-9.71538 26.18982,-10.05251 36.48535,-0.75298 10.29547,9.29952 10.6528,24.71419 0.79791,34.42961 z" />
  <path
     style="stroke-width:11;marker-start:none;marker-mid:none;marker-end:none"
     inkscape:connector-curvature="0"
     id="svg_3"
     d="m 167.33531,111.3082 c -4.8393,11.61934 -18.74402,17.33672 -31.0571,12.77011 -12.31314,-4.56659 -18.37189,-17.68791 -13.53259,-29.30723 9.85479,-9.71538 26.18981,-10.05251 36.48535,-0.75298 10.29547,9.29952 10.6528,24.71419 0.79791,34.42961 z" />
  <path
     style="stroke-width:11;marker-start:none;marker-mid:none;marker-end:none"
     inkscape:connector-curvature="0"
     id="svg_4"
     d="m 167.33531,111.3082 c -4.8393,11.61934 -18.74402,17.33672 -31.0571,12.77011 -12.31314,-4.56659 -18.37189,-17.68791 -13.53259,-29.30723 9.85479,-9.71538 26.18981,-10.05251 36.48535,-0.75298 10.29547,9.29952 10.6528,24.71419 0.79791,34.42961 z" />
  <path
     style="stroke-width:11;marker-start:none;marker-mid:none;marker-end:none"
     inkscape:connector-curvature="0"
     id="svg_5"
     d="m 167.33531,111.3082 c -4.8393,11.61934 -18.74402,17.33672 -31.0571,12.77011 -12.31314,-4.56659 -18.37189,-17.68791 -13.53259,-29.30723 9.85479,-9.71538 26.18981,-10.05251 36.48535,-0.75298 10.29547,9.29952 10.6528,24.71419 0.79791,34.42961 z" />
  <path
     style="stroke-width:11;marker-start:none;marker-mid:none;marker-end:none"
     inkscape:connector-curvature="0"
     id="svg_6"
     d="m 167.33531,111.3082 c -4.8393,11.61934 -18.74402,17.33672 -31.0571,12.77011 -12.31314,-4.56659 -18.37189,-17.68791 -13.53259,-29.30723 9.85479,-9.71538 26.18981,-10.05251 36.48535,-0.75298 10.29547,9.29952 10.6528,24.71419 0.79791,34.42961 z" />
  <path
     style="stroke-width:11;marker-start:none;marker-mid:none;marker-end:none"
     inkscape:connector-curvature="0"
     id="svg_7"
     d="m 167.33531,111.3082 c -4.8393,11.61934 -18.74402,17.33672 -31.0571,12.77011 -12.31314,-4.56659 -18.37189,-17.68791 -13.53259,-29.30723 9.85479,-9.71538 26.18981,-10.05251 36.48535,-0.75298 10.29547,9.29952 10.6528,24.71419 0.79791,34.42961 z" />
  <path
     style="fill:#aaffff;fill-rule:evenodd;stroke:#000000;stroke-width:11;stroke-linejoin:round;stroke-miterlimit:4;stroke-dashoffset:0;marker-start:none;marker-mid:none;marker-end:none"
     inkscape:connector-curvature="0"
     id="path3301"
     d="m 167.33518,111.30822 c 0.34302,13.37158 -10.99569,24.34607 -25.32559,24.51208 -14.32992,0.16602 -26.22467,-10.53917 -26.56769,-23.91083 -0.34298,-13.37158 10.99573,-24.34606 25.32563,-24.5121 14.32992,-0.16603 26.22467,10.5392 26.56765,23.91085 z"
     stroke-miterlimit="4" />
  <path
     style="fill:#ff0000;fill-rule:evenodd;stroke:#000000;stroke-width:11;stroke-linejoin:round;stroke-miterlimit:4"
     inkscape:connector-curvature="0"
     d="M 87.71284,415.55163 54.26747,479.28521 C 32.83268,438.55947 8.31971,382.95304 17.53861,347.66436 23.59571,324.4784 67.56553,296.85802 67.56553,296.85802 Z"
     id="path3307"
     stroke-miterlimit="4" />
  <path
     style="fill:#ff0000;fill-rule:evenodd;stroke:#000000;stroke-width:11;stroke-linejoin:round;stroke-miterlimit:4"
     inkscape:connector-curvature="0"
     id="path3309"
     d="m 205.48405,409.7515 35.13214,62.93886 c 20.34375,-41.20981 43.36859,-97.36704 33.21295,-132.43131 -6.67273,-23.03832 -51.36444,-49.63133 -51.36444,-49.63133 z"
     stroke-miterlimit="4" />
  <path
     style="fill:#ff7f00;stroke:#000000;stroke-width:11;stroke-linejoin:round;stroke-dasharray:none"
     inkscape:connector-curvature="0"
     stroke-linecap="null"
     d="m 95.68693,416.6303 c 0,1 -16,75 -16,76 0,1 42,-26 42,-26 0,0 21,48 21,48 0,0 29,-48 29,-48 0,0 51,50 51,46 0,-4 -23,-113 -24,-101 -1,12 -103,5 -103,5 z"
     id="svg_12" />
</svg>
