<?xml version="1.0" encoding="UTF-8" standalone="no"?>
<!-- Created with Inkscape (http://www.inkscape.org/) -->

<svg
   xmlns:dc="http://purl.org/dc/elements/1.1/"
   xmlns:cc="http://creativecommons.org/ns#"
   xmlns:rdf="http://www.w3.org/1999/02/22-rdf-syntax-ns#"
   xmlns:svg="http://www.w3.org/2000/svg"
   xmlns="http://www.w3.org/2000/svg"
   xmlns:sodipodi="http://sodipodi.sourceforge.net/DTD/sodipodi-0.dtd"
   xmlns:inkscape="http://www.inkscape.org/namespaces/inkscape"
   id="svg7854"
   sodipodi:docname="videochat.svg"
   inkscape:export-filename="/home/bellaich/Desktop/computer-laptop-lenovo-thinkpad-r61.png"
   viewBox="0 0 957.56079 875.7641"
   sodipodi:version="0.32"
   inkscape:export-xdpi="90"
   version="1.0"
   inkscape:output_extension="org.inkscape.output.svg.inkscape"
   inkscape:export-ydpi="90"
   inkscape:version="0.91 r13725"
   width="957.56079"
   height="875.7641">
  <defs
     id="defs7856">
    <linearGradient
       id="linearGradient5418"
       y2="18.138"
       gradientUnits="userSpaceOnUse"
       x2="25.174999"
       gradientTransform="matrix(17,0,0,14.93328,-383.97459,-182.19174)"
       y1="4.7385001"
       x1="21.087999"
       inkscape:collect="always">
      <stop
         id="stop5414"
         style="stop-color:#ffffff"
         offset="0" />
      <stop
         id="stop5416"
         style="stop-color:#ffffff;stop-opacity:0"
         offset="1" />
    </linearGradient>
    <linearGradient
       id="linearGradient5426"
       y2="8.2395"
       gradientUnits="userSpaceOnUse"
       x2="24.75"
       gradientTransform="matrix(16.7232,0,0,15.60304,-373.29251,-179.93222)"
       y1="26.933001"
       x1="24.75"
       inkscape:collect="always">
      <stop
         id="stop5422"
         style="stop-color:#3465a4"
         offset="0" />
      <stop
         id="stop5424"
         style="stop-color:#204a87"
         offset="1" />
    </linearGradient>
    <filter
       id="filter5450"
       height="1.2033"
       width="1.0757"
       y="-0.10164"
       x="-0.037861999"
       inkscape:collect="always">
      <feGaussianBlur
         id="feGaussianBlur5452"
         stdDeviation="0.71465694"
         inkscape:collect="always" />
    </filter>
    <linearGradient
       id="linearGradient5741"
       y2="30.489"
       gradientUnits="userSpaceOnUse"
       x2="24"
       y1="2.0109"
       x1="17.799"
       inkscape:collect="always"
       gradientTransform="matrix(16,0,0,16,-359.97459,-190.45846)">
      <stop
         id="stop5737"
         style="stop-color:#2e3436"
         offset="0" />
      <stop
         id="stop5739"
         style="stop-color:#080d19"
         offset="1" />
    </linearGradient>
    <filter
       inkscape:collect="always"
       style="color-interpolation-filters:sRGB"
       id="filter12270"
       x="-0.0025411765"
       width="1.0050824"
       y="-0.0061714286"
       height="1.0123429">
      <feGaussianBlur
         inkscape:collect="always"
         stdDeviation="0.576"
         id="feGaussianBlur12272" />
    </filter>
  </defs>
  <sodipodi:namedview
     id="base"
     inkscape:showpageshadow="false"
     inkscape:zoom="0.42789014"
     height="48px"
     borderopacity="1"
     inkscape:current-layer="layer1"
     inkscape:cx="311.68525"
     inkscape:cy="666.36425"
     inkscape:window-maximized="1"
     showgrid="true"
     width="48px"
     inkscape:document-units="px"
     bordercolor="#e0e0e0"
     inkscape:window-x="4"
     guidetolerance="10"
     objecttolerance="10"
     inkscape:window-y="1"
     inkscape:window-width="1916"
     inkscape:pageopacity="0.0"
     inkscape:pageshadow="2"
     pagecolor="#ffffff"
     gridtolerance="10000"
     inkscape:window-height="1035"
     fit-margin-top="0"
     fit-margin-left="0"
     fit-margin-right="0"
     fit-margin-bottom="0" />
  <g
     id="layer1"
     inkscape:label="Layer 1"
     inkscape:groupmode="layer"
     transform="translate(443.97453,234.21642)">
    <text
       xml:space="preserve"
       style="font-style:normal;font-weight:normal;font-size:40px;line-height:125%;font-family:sans-serif;letter-spacing:0px;word-spacing:0px;fill:#2e3436;fill-opacity:1;stroke:none;stroke-width:1px;stroke-linecap:butt;stroke-linejoin:miter;stroke-opacity:1"
       x="-203.25854"
       y="477.95432"
       id="text12441"
       sodipodi:linespacing="125%"><tspan
         sodipodi:role="line"
         id="tspan12443"
         x="-203.25854"
         y="477.95432">j4p4n on openclipart.org</tspan></text>
    <g
       id="g12274">
      <path
         inkscape:connector-curvature="0"
         d="M 4.8125,29.363 1.5,42.582 c -0.70396,1.954 0.0843,2.946 0.625,3.125 l 43.125,0 c 0.788,-0.629 1.614,-1.476 1.125,-3.25 l -2.5,-12.969 C 43.809,29.132 43.523,28.94 43.125,28.832 L 6.25,28.863 C 5.5292,28.82 5.1504,28.837 4.8125,29.363 Z"
         transform="matrix(16.2464,0,0,18.0144,-363.81939,-277.86327)"
         style="color:#000000;fill:#000000;fill-rule:evenodd;filter:url(#filter5450)"
         sodipodi:nodetypes="ccccccccc"
         id="path5428" />
      <rect
         x="-287.8002"
         y="-150.28406"
         width="623.64801"
         height="439.64801"
         ry="7.8729601"
         rx="8.9153605"
         style="color:#000000;fill:url(#linearGradient5741);fill-rule:evenodd;stroke:#202526;stroke-width:16;stroke-linecap:square;stroke-linejoin:round"
         id="rect5139" />
      <path
         inkscape:connector-curvature="0"
         d="m -282.97459,268.03753 -53,211.504 c -3.536,9.808 -7.832,19.024 -4.4096,24.96 l 14.4096,25.04 689.99998,0 18.224,-22.944 c 4.992,-6.272 3.104,-16.976 -0.224,-29.056 l -40,-207.504 c -1.056,-5.712 -5.632,-8.784 -12,-10.496 l -589.99998,0.496 c -11.5328,-0.688 -17.5936,-0.416 -23,8 z"
         style="color:#000000;fill:#2e3436;fill-rule:evenodd;stroke:#202526;stroke-width:16;stroke-linecap:square;stroke-linejoin:round"
         sodipodi:nodetypes="ccsccsccccc"
         id="path5147" />
      <path
         inkscape:connector-curvature="0"
         d="m -251.97139,285.57353 -15.4416,100.272 c -10.1952,14.816 1.2192,22.336 9.0496,23.696 l 442.864,0 1.408,16.976 132.144,0 c 11.40798,-4.768 23.35998,-11.2 16.28798,-24.656 l -20.63998,-115.344 c -0.96,-2.704 -5.104,-4.16 -10.864,-4.976 l -534,0.24 c -10.4352,-0.336 -15.92,-0.208 -20.8128,3.792 z"
         style="color:#000000;opacity:0.85;fill:none;stroke:#171b1c;stroke-width:8;stroke-linecap:square;stroke-linejoin:round"
         sodipodi:nodetypes="ccccccccccc"
         id="path2787" />
      <g
         transform="matrix(16,0,0,16,-376.94579,-215.38807)"
         style="color:#000000;fill:#555753;fill-rule:evenodd;stroke:#222728;stroke-width:0.48863;stroke-linecap:square;stroke-linejoin:round"
         id="g5266">
        <rect
           x="7.7452002"
           y="33.123001"
           width="2.9282"
           height="1.5114"
           style="color:#000000;fill:#555753;fill-rule:evenodd;stroke:#222728;stroke-width:0.48863;stroke-linecap:square;stroke-linejoin:round"
           id="rect5268" />
        <rect
           x="10.989"
           y="33.123001"
           width="2.1327"
           height="1.5114"
           style="color:#000000;fill:#555753;fill-rule:evenodd;stroke:#222728;stroke-width:0.48863;stroke-linecap:square;stroke-linejoin:round"
           id="rect5270" />
        <rect
           x="13.475"
           y="33.123001"
           width="2.1327"
           height="1.5114"
           style="color:#000000;fill:#555753;fill-rule:evenodd;stroke:#222728;stroke-width:0.48863;stroke-linecap:square;stroke-linejoin:round"
           id="rect5272" />
        <rect
           x="15.906"
           y="33.123001"
           width="2.1327"
           height="1.5114"
           style="color:#000000;fill:#555753;fill-rule:evenodd;stroke:#222728;stroke-width:0.48863;stroke-linecap:square;stroke-linejoin:round"
           id="rect5274" />
        <rect
           x="18.513"
           y="33.123001"
           width="2.1327"
           height="1.5114"
           style="color:#000000;fill:#555753;fill-rule:evenodd;stroke:#222728;stroke-width:0.48863;stroke-linecap:square;stroke-linejoin:round"
           id="rect5276" />
        <rect
           x="20.988001"
           y="33.123001"
           width="2.1327"
           height="1.5114"
           style="color:#000000;fill:#555753;fill-rule:evenodd;stroke:#222728;stroke-width:0.48863;stroke-linecap:square;stroke-linejoin:round"
           id="rect5278" />
        <rect
           x="23.462999"
           y="33.123001"
           width="2.1327"
           height="1.5114"
           style="color:#000000;fill:#555753;fill-rule:evenodd;stroke:#222728;stroke-width:0.48863;stroke-linecap:square;stroke-linejoin:round"
           id="rect5280" />
        <rect
           x="26.07"
           y="33.123001"
           width="2.1327"
           height="1.5114"
           style="color:#000000;fill:#555753;fill-rule:evenodd;stroke:#222728;stroke-width:0.48863;stroke-linecap:square;stroke-linejoin:round"
           id="rect5282" />
        <rect
           x="28.59"
           y="33.123001"
           width="2.1327"
           height="1.5114"
           style="color:#000000;fill:#555753;fill-rule:evenodd;stroke:#222728;stroke-width:0.48863;stroke-linecap:square;stroke-linejoin:round"
           id="rect5284" />
        <rect
           x="31.063999"
           y="33.123001"
           width="2.1327"
           height="1.5114"
           style="color:#000000;fill:#555753;fill-rule:evenodd;stroke:#222728;stroke-width:0.48863;stroke-linecap:square;stroke-linejoin:round"
           id="rect5286" />
        <rect
           x="33.494999"
           y="33.123001"
           width="2.1327"
           height="1.5114"
           style="color:#000000;fill:#555753;fill-rule:evenodd;stroke:#222728;stroke-width:0.48863;stroke-linecap:square;stroke-linejoin:round"
           id="rect5288" />
        <rect
           x="36.014"
           y="33.123001"
           width="2.1327"
           height="1.5114"
           style="color:#000000;fill:#555753;fill-rule:evenodd;stroke:#222728;stroke-width:0.48863;stroke-linecap:square;stroke-linejoin:round"
           id="rect5290" />
        <rect
           x="38.488998"
           y="33.123001"
           width="2.1327"
           height="1.5114"
           style="color:#000000;fill:#555753;fill-rule:evenodd;stroke:#222728;stroke-width:0.48863;stroke-linecap:square;stroke-linejoin:round"
           id="rect5320" />
        <rect
           x="40.964001"
           y="33.123001"
           width="1.9139"
           height="1.5114"
           style="color:#000000;fill:#555753;fill-rule:evenodd;stroke:#222728;stroke-width:0.48863;stroke-linecap:square;stroke-linejoin:round"
           id="rect5324" />
      </g>
      <rect
         x="-254.43538"
         y="339.50955"
         width="65.235199"
         height="24.1824"
         style="color:#000000;fill:#555753;fill-rule:evenodd;stroke:#222728;stroke-width:7.81807995;stroke-linecap:square;stroke-linejoin:round"
         id="rect5199" />
      <rect
         x="-184.15059"
         y="339.50955"
         width="34.123199"
         height="24.1824"
         style="color:#000000;fill:#555753;fill-rule:evenodd;stroke:#222728;stroke-width:7.81807995;stroke-linecap:square;stroke-linejoin:round"
         id="rect5203" />
      <rect
         x="-144.37459"
         y="339.50955"
         width="34.123199"
         height="24.1824"
         style="color:#000000;fill:#555753;fill-rule:evenodd;stroke:#222728;stroke-width:7.81807995;stroke-linecap:square;stroke-linejoin:round"
         id="rect5207" />
      <rect
         x="-105.47859"
         y="339.50955"
         width="34.123199"
         height="24.1824"
         style="color:#000000;fill:#555753;fill-rule:evenodd;stroke:#222728;stroke-width:7.81807995;stroke-linecap:square;stroke-linejoin:round"
         id="rect5211" />
      <rect
         x="-63.76659"
         y="339.50955"
         width="34.123199"
         height="24.1824"
         style="color:#000000;fill:#555753;fill-rule:evenodd;stroke:#222728;stroke-width:7.81807995;stroke-linecap:square;stroke-linejoin:round"
         id="rect5215" />
      <rect
         x="-24.166582"
         y="339.50955"
         width="34.123199"
         height="24.1824"
         style="color:#000000;fill:#555753;fill-rule:evenodd;stroke:#222728;stroke-width:7.81807995;stroke-linecap:square;stroke-linejoin:round"
         id="rect5219" />
      <rect
         x="15.433393"
         y="339.50955"
         width="34.123199"
         height="24.1824"
         style="color:#000000;fill:#555753;fill-rule:evenodd;stroke:#222728;stroke-width:7.81807995;stroke-linecap:square;stroke-linejoin:round"
         id="rect5223" />
      <rect
         x="57.145397"
         y="339.50955"
         width="34.123199"
         height="24.1824"
         style="color:#000000;fill:#555753;fill-rule:evenodd;stroke:#222728;stroke-width:7.81807995;stroke-linecap:square;stroke-linejoin:round"
         id="rect5227" />
      <rect
         x="97.465408"
         y="339.50955"
         width="34.123199"
         height="24.1824"
         style="color:#000000;fill:#555753;fill-rule:evenodd;stroke:#222728;stroke-width:7.81807995;stroke-linecap:square;stroke-linejoin:round"
         id="rect5231" />
      <rect
         x="137.04939"
         y="339.50955"
         width="34.123199"
         height="24.1824"
         style="color:#000000;fill:#555753;fill-rule:evenodd;stroke:#222728;stroke-width:7.81807995;stroke-linecap:square;stroke-linejoin:round"
         id="rect5235" />
      <rect
         x="175.94539"
         y="339.50955"
         width="34.123199"
         height="24.1824"
         style="color:#000000;fill:#555753;fill-rule:evenodd;stroke:#222728;stroke-width:7.81807995;stroke-linecap:square;stroke-linejoin:round"
         id="rect5239" />
      <rect
         x="216.24942"
         y="339.50955"
         width="34.123199"
         height="24.1824"
         style="color:#000000;fill:#555753;fill-rule:evenodd;stroke:#222728;stroke-width:7.81807995;stroke-linecap:square;stroke-linejoin:round"
         id="rect5243" />
      <rect
         x="253.01741"
         y="339.50955"
         width="59.579201"
         height="24.1824"
         style="color:#000000;fill:#545755;fill-rule:evenodd;stroke:#222728;stroke-width:7.81807995;stroke-linecap:square;stroke-linejoin:round"
         id="rect5247" />
      <rect
         x="-256.22739"
         y="-102.71126"
         width="560.51202"
         height="336.51199"
         ry="5.9563198"
         rx="5.7769599"
         style="color:#000000;fill:url(#linearGradient5426);fill-rule:evenodd;stroke:#204a87;stroke-width:15.49487972;stroke-linecap:square;stroke-linejoin:round"
         id="rect5137" />
      <g
         transform="matrix(0.73146822,0,0,0.80774284,45.790006,392.39183)"
         id="g12171">
        <rect
           style="opacity:1;fill:#dcd3d3;fill-opacity:1;stroke:#6b6b6b;stroke-width:4.80000019;stroke-linecap:round;stroke-linejoin:round;stroke-miterlimit:4;stroke-dasharray:none;stroke-opacity:1"
           id="rect9082"
           width="469.45605"
           height="304.84158"
           x="-273.74799"
           y="-548.63037"
           rx="5.7769599"
           ry="5.9563198" />
        <rect
           style="opacity:1;fill:#c8c8c8;fill-opacity:1;stroke:#6b6b6b;stroke-width:1.97599995;stroke-linecap:round;stroke-linejoin:round;stroke-miterlimit:4;stroke-dasharray:none;stroke-opacity:1"
           id="rect12169"
           width="65.646126"
           height="38.181931"
           x="127.2731"
           y="-548.17401"
           rx="5.7769599"
           ry="5.9563198" />
        <rect
           style="opacity:1;fill:#a2c7cd;fill-opacity:1;stroke:none;stroke-width:0.2;stroke-linecap:round;stroke-linejoin:round;stroke-miterlimit:4;stroke-dasharray:none;stroke-opacity:1"
           id="rect9099"
           width="399.94025"
           height="36.991791"
           x="-272.5882"
           y="-546.68726"
           rx="5.7538214"
           ry="5.7081399" />
        <path
           style="fill:none;fill-rule:evenodd;stroke:#6b6b6b;stroke-width:6.4000001;stroke-linecap:butt;stroke-linejoin:miter;stroke-miterlimit:4;stroke-dasharray:none;stroke-opacity:1"
           d="m -272.87699,-511.17843 467.71408,1.74196"
           id="path9084"
           inkscape:connector-curvature="0" />
        <path
           inkscape:connector-curvature="0"
           id="path9086"
           d="m 158.45096,-550.76275 -0.90592,38.23276"
           style="fill:none;fill-rule:evenodd;stroke:#6b6b6b;stroke-width:4.04500008;stroke-linecap:butt;stroke-linejoin:miter;stroke-miterlimit:4;stroke-dasharray:none;stroke-opacity:1" />
        <path
           style="fill:none;fill-rule:evenodd;stroke:#6b6b6b;stroke-width:4.24499989;stroke-linecap:butt;stroke-linejoin:miter;stroke-miterlimit:4;stroke-dasharray:none;stroke-opacity:1"
           d="m 126.22485,-549.02079 -0.90592,38.23276"
           id="path9088"
           inkscape:connector-curvature="0" />
        <g
           transform="matrix(16.460797,0,0,15.552102,-359.97459,-190.45846)"
           style="font-style:normal;font-weight:normal;font-size:1.79034984px;line-height:125%;font-family:sans-serif;letter-spacing:0px;word-spacing:0px;fill:#6b6b6b;fill-opacity:1;stroke:none;stroke-width:1px;stroke-linecap:butt;stroke-linejoin:miter;stroke-opacity:1"
           id="text9090">
          <path
             d="m 33.141381,-22.484001 -0.449336,0.643407 0.448462,0.658269 -0.200191,0 -0.354923,-0.535881 -0.363664,0.535881 -0.188826,0 0.453706,-0.650401 -0.443216,-0.651275 0.199316,0 0.350552,0.528888 0.35842,-0.528888 0.1897,0 z"
             id="path9095"
             inkscape:connector-curvature="0" />
        </g>
        <rect
           style="opacity:1;fill:none;fill-opacity:1;stroke:#6b6b6b;stroke-width:3.20000005;stroke-linecap:round;stroke-linejoin:round;stroke-miterlimit:4;stroke-dasharray:none;stroke-opacity:1"
           id="rect9097"
           width="15.677567"
           height="19.16147"
           x="133.61073"
           y="-539.04962"
           rx="5.7769599"
           ry="5.9563198" />
        <g
           transform="matrix(15.413507,0,0,16.60881,-359.97459,-190.45846)"
           style="font-style:normal;font-weight:normal;font-size:23.3005867px;line-height:125%;font-family:sans-serif;letter-spacing:0px;word-spacing:0px;fill:#ffffff;fill-opacity:1;stroke:none;stroke-width:1px;stroke-linecap:butt;stroke-linejoin:miter;stroke-opacity:1"
           id="text9101">
          <path
             d="m 7.0087678,-21.00774 -0.385404,1.058794 -0.1877245,0 -0.3854039,-1.058794 0.1507484,0 0.3320732,0.931511 0.3320731,-0.931511 0.1436377,0 z"
             style="font-size:1.45628667px;fill:#ffffff;fill-opacity:1"
             id="path9106"
             inkscape:connector-curvature="0" />
          <path
             d="m 7.3024428,-20.876191 -0.1507484,0 0,-0.13866 0.1507484,0 0,0.13866 z m -0.00853,0.927245 -0.1336826,0 0,-0.794274 0.1336826,0 0,0.794274 z"
             style="font-size:1.45628667px;fill:#ffffff;fill-opacity:1"
             id="path9108"
             inkscape:connector-curvature="0" />
          <path
             d="m 8.204089,-19.948946 -0.1336826,0 0,-0.0832 q -0.057597,0.04978 -0.1201721,0.07751 -0.062575,0.02773 -0.1358158,0.02773 -0.1422154,0 -0.2261226,-0.109506 -0.083196,-0.109505 -0.083196,-0.30363 0,-0.100973 0.028443,-0.179902 0.029154,-0.07893 0.078219,-0.134394 0.048353,-0.05404 0.1123502,-0.08249 0.064708,-0.02844 0.1336826,-0.02844 0.062575,0 0.1109281,0.01351 0.048353,0.0128 0.101684,0.04053 l 0,-0.344162 0.1336826,0 0,1.106437 z m -0.1336826,-0.195546 0,-0.455801 q -0.054042,-0.02418 -0.096706,-0.03342 -0.042665,-0.0092 -0.093151,-0.0092 -0.1123503,0 -0.1749251,0.07822 -0.062575,0.07822 -0.062575,0.221856 0,0.141504 0.048353,0.215457 0.048353,0.07324 0.1550149,0.07324 0.056886,0 0.1151946,-0.02489 0.058308,-0.0256 0.1087948,-0.06542 z"
             style="font-size:1.45628667px;fill:#ffffff;fill-opacity:1"
             id="path9110"
             inkscape:connector-curvature="0" />
          <path
             d="m 9.1320453,-20.332217 -0.5852168,0 q 0,0.07324 0.022043,0.127994 0.022043,0.05404 0.060442,0.08888 0.036976,0.03413 0.087462,0.0512 0.051198,0.01707 0.1123503,0.01707 0.081063,0 0.1628367,-0.032 0.082485,-0.03271 0.1173278,-0.064 l 0.00711,0 0,0.145771 q -0.067552,0.02844 -0.137949,0.04764 -0.070397,0.0192 -0.1479042,0.0192 -0.1976795,0 -0.3086076,-0.106662 -0.1109281,-0.107372 -0.1109281,-0.304341 0,-0.194835 0.1059506,-0.309318 0.1066616,-0.114484 0.2801645,-0.114484 0.1607035,0 0.247455,0.09386 0.087462,0.09386 0.087462,0.266654 l 0,0.07253 z m -0.1301272,-0.102395 q -7.111e-4,-0.105239 -0.053331,-0.162837 -0.051909,-0.0576 -0.1585703,-0.0576 -0.1073727,0 -0.1713696,0.06329 -0.063286,0.06329 -0.071819,0.157148 l 0.4550896,0 z"
             style="font-size:1.45628667px;fill:#ffffff;fill-opacity:1"
             id="path9112"
             inkscape:connector-curvature="0" />
          <path
             d="m 10.011648,-20.345727 q 0,0.194124 -0.099551,0.306474 -0.099551,0.11235 -0.266654,0.11235 -0.1685254,0 -0.2680762,-0.11235 -0.09884,-0.11235 -0.09884,-0.306474 0,-0.194124 0.09884,-0.306475 0.099551,-0.113061 0.2680762,-0.113061 0.1671032,0 0.266654,0.113061 0.099551,0.112351 0.099551,0.306475 z m -0.137949,0 q 0,-0.154304 -0.060442,-0.228967 -0.060442,-0.07537 -0.1678143,-0.07537 -0.1087949,0 -0.1692365,0.07537 -0.05973,0.07466 -0.05973,0.228967 0,0.149326 0.060442,0.226833 0.060442,0.0768 0.1685254,0.0768 0.1066616,0 0.1671032,-0.07609 0.061153,-0.0768 0.061153,-0.227545 z"
             style="font-size:1.45628667px;fill:#ffffff;fill-opacity:1"
             id="path9114"
             inkscape:connector-curvature="0" />
          <path
             d="m 11.559664,-20.025742 q -0.03911,0.01707 -0.07111,0.032 -0.03129,0.01493 -0.08249,0.03129 -0.04338,0.01351 -0.09457,0.02275 -0.05049,0.01 -0.11164,0.01 -0.115194,0 -0.209767,-0.032 -0.09386,-0.03271 -0.163548,-0.101684 -0.06826,-0.06755 -0.106662,-0.17137 -0.0384,-0.104529 -0.0384,-0.242478 0,-0.130838 0.03698,-0.233944 0.03698,-0.103106 0.106662,-0.174214 0.06755,-0.06897 0.162836,-0.10524 0.096,-0.03626 0.212613,-0.03626 0.08533,0 0.169947,0.02062 0.08533,0.02062 0.189147,0.07253 l 0,0.167103 -0.01067,0 q -0.08746,-0.07324 -0.173502,-0.106662 -0.08604,-0.03342 -0.18417,-0.03342 -0.08035,0 -0.145059,0.02631 -0.064,0.0256 -0.114484,0.08035 -0.04906,0.05333 -0.0768,0.135105 -0.02702,0.08106 -0.02702,0.187724 0,0.11164 0.02986,0.191991 0.03058,0.08035 0.07822,0.130839 0.04977,0.05262 0.115905,0.07822 0.06684,0.02489 0.140794,0.02489 0.101684,0 0.190568,-0.03484 0.08888,-0.03484 0.166393,-0.104528 l 0.01,0 0,0.16497 z"
             style="font-size:1.45628667px;fill:#ffffff;fill-opacity:1"
             id="path9116"
             inkscape:connector-curvature="0" />
          <path
             d="m 12.413668,-19.948946 -0.133683,0 0,-0.452245 q 0,-0.05475 -0.0064,-0.102395 -0.0064,-0.04835 -0.02346,-0.07538 -0.01778,-0.02987 -0.0512,-0.04409 -0.03342,-0.01493 -0.08675,-0.01493 -0.05475,0 -0.114484,0.02702 -0.05973,0.02702 -0.114483,0.06897 l 0,0.593039 -0.133683,0 0,-1.106437 0.133683,0 0,0.400337 q 0.06258,-0.05191 0.129416,-0.08106 0.06684,-0.02915 0.137238,-0.02915 0.128705,0 0.196257,0.07751 0.06755,0.07751 0.06755,0.223278 l 0,0.515531 z"
             style="font-size:1.45628667px;fill:#ffffff;fill-opacity:1"
             id="path9118"
             inkscape:connector-curvature="0" />
          <path
             d="m 13.288293,-19.948946 -0.132972,0 0,-0.08462 q -0.01778,0.01209 -0.04835,0.03413 -0.02987,0.02133 -0.05831,0.03413 -0.03342,0.01636 -0.0768,0.02702 -0.04338,0.01138 -0.101684,0.01138 -0.107372,0 -0.182035,-0.07111 -0.07466,-0.07111 -0.07466,-0.181325 0,-0.09031 0.0384,-0.145771 0.03911,-0.05617 0.110928,-0.08817 0.07253,-0.032 0.174214,-0.04338 0.101684,-0.01138 0.2183,-0.01707 l 0,-0.02062 q 0,-0.04551 -0.01635,-0.07538 -0.01564,-0.02987 -0.04551,-0.04693 -0.02844,-0.01635 -0.06826,-0.02204 -0.03982,-0.0057 -0.0832,-0.0057 -0.05262,0 -0.117328,0.01422 -0.06471,0.01351 -0.133682,0.03982 l -0.0071,0 0,-0.135816 q 0.03911,-0.01067 0.113061,-0.02346 0.07395,-0.0128 0.145771,-0.0128 0.08391,0 0.145771,0.01422 0.06257,0.01351 0.108084,0.04693 0.0448,0.03271 0.06826,0.08462 0.02347,0.05191 0.02347,0.128705 l 0,0.538997 z m -0.132972,-0.195546 0,-0.221145 q -0.06115,0.0036 -0.144348,0.01067 -0.08249,0.0071 -0.130839,0.02062 -0.0576,0.01636 -0.09315,0.0512 -0.03555,0.03413 -0.03555,0.09457 0,0.06826 0.04124,0.103106 0.04124,0.03413 0.125861,0.03413 0.0704,0 0.128705,-0.02702 0.05831,-0.02773 0.108083,-0.06613 z"
             style="font-size:1.45628667px;fill:#ffffff;fill-opacity:1"
             id="path9120"
             inkscape:connector-curvature="0" />
          <path
             d="m 13.956706,-19.956057 q -0.03769,0.01 -0.08249,0.01636 -0.04409,0.0064 -0.07893,0.0064 -0.121594,0 -0.18488,-0.06542 -0.06329,-0.06542 -0.06329,-0.209768 l 0,-0.42238 -0.09031,0 0,-0.112351 0.09031,0 0,-0.228255 0.133683,0 0,0.228255 0.275898,0 0,0.112351 -0.275898,0 0,0.361938 q 0,0.06257 0.0028,0.09813 0.0028,0.03484 0.01991,0.06542 0.01564,0.02844 0.04266,0.04195 0.02773,0.0128 0.08391,0.0128 0.03271,0 0.06826,-0.0092 0.03555,-0.01 0.0512,-0.01636 l 0.0071,0 0,0.120172 z"
             style="font-size:1.45628667px;fill:#ffffff;fill-opacity:1"
             id="path9122"
             inkscape:connector-curvature="0" />
          <path
             d="m 15.410859,-20.251154 q 0,0.06186 -0.02915,0.122305 -0.02844,0.06044 -0.08035,0.102396 -0.05689,0.04551 -0.132972,0.07111 -0.07537,0.0256 -0.182035,0.0256 -0.114484,0 -0.206213,-0.02133 -0.09102,-0.02133 -0.185591,-0.06329 l 0,-0.176347 0.01,0 q 0.08035,0.06684 0.185591,0.103106 0.10524,0.03627 0.19768,0.03627 0.130838,0 0.203368,-0.04906 0.07324,-0.04906 0.07324,-0.130838 0,-0.0704 -0.03484,-0.103817 -0.03413,-0.03342 -0.104528,-0.05191 -0.05333,-0.01422 -0.115906,-0.02346 -0.06186,-0.0092 -0.131549,-0.02347 -0.140794,-0.02987 -0.209057,-0.101684 -0.06755,-0.07253 -0.06755,-0.188435 0,-0.132972 0.11235,-0.21759 0.11235,-0.08533 0.285142,-0.08533 0.111639,0 0.20479,0.02133 0.09315,0.02133 0.16497,0.05262 l 0,0.166392 -0.01,0 q -0.06044,-0.0512 -0.159281,-0.08462 -0.09813,-0.03413 -0.201235,-0.03413 -0.113061,0 -0.182036,0.04693 -0.06826,0.04693 -0.06826,0.120883 0,0.06613 0.03413,0.103817 0.03413,0.03769 0.120172,0.0576 0.04551,0.01 0.129417,0.02418 0.08391,0.01422 0.142215,0.02915 0.118039,0.03129 0.177769,0.09457 0.05973,0.06329 0.05973,0.177058 z"
             style="font-size:1.45628667px;fill:#ffffff;fill-opacity:1"
             id="path9124"
             inkscape:connector-curvature="0" />
          <path
             d="m 16.303262,-20.345727 q 0,0.194124 -0.09955,0.306474 -0.09955,0.11235 -0.266654,0.11235 -0.168525,0 -0.268076,-0.11235 -0.09884,-0.11235 -0.09884,-0.306474 0,-0.194124 0.09884,-0.306475 0.09955,-0.113061 0.268076,-0.113061 0.167103,0 0.266654,0.113061 0.09955,0.112351 0.09955,0.306475 z m -0.137949,0 q 0,-0.154304 -0.06044,-0.228967 -0.06044,-0.07537 -0.167814,-0.07537 -0.108795,0 -0.169237,0.07537 -0.05973,0.07466 -0.05973,0.228967 0,0.149326 0.06044,0.226833 0.06044,0.0768 0.168525,0.0768 0.106662,0 0.167103,-0.07609 0.06115,-0.0768 0.06115,-0.227545 z"
             style="font-size:1.45628667px;fill:#ffffff;fill-opacity:1"
             id="path9126"
             inkscape:connector-curvature="0" />
          <path
             d="m 16.938253,-20.925966 -0.0071,0 q -0.02204,-0.0064 -0.0576,-0.0128 -0.03555,-0.0071 -0.06257,-0.0071 -0.08604,0 -0.125149,0.0384 -0.0384,0.03769 -0.0384,0.137238 l 0,0.02702 0.241055,0 0,0.112351 -0.236789,0 0,0.681923 -0.133683,0 0,-0.681923 -0.09031,0 0,-0.112351 0.09031,0 0,-0.02631 q 0,-0.141505 0.0704,-0.216879 0.0704,-0.07608 0.203368,-0.07608 0.0448,0 0.08035,0.0043 0.03627,0.0043 0.06613,0.01 l 0,0.122306 z"
             style="font-size:1.45628667px;fill:#ffffff;fill-opacity:1"
             id="path9128"
             inkscape:connector-curvature="0" />
          <path
             d="m 17.435297,-19.956057 q -0.03769,0.01 -0.08248,0.01636 -0.04409,0.0064 -0.07893,0.0064 -0.121594,0 -0.18488,-0.06542 -0.06329,-0.06542 -0.06329,-0.209768 l 0,-0.42238 -0.09031,0 0,-0.112351 0.09031,0 0,-0.228255 0.133683,0 0,0.228255 0.275898,0 0,0.112351 -0.275898,0 0,0.361938 q 0,0.06257 0.0028,0.09813 0.0028,0.03484 0.01991,0.06542 0.01564,0.02844 0.04266,0.04195 0.02773,0.0128 0.08391,0.0128 0.03271,0 0.06826,-0.0092 0.03555,-0.01 0.0512,-0.01636 l 0.0071,0 0,0.120172 z"
             style="font-size:1.45628667px;fill:#ffffff;fill-opacity:1"
             id="path9130"
             inkscape:connector-curvature="0" />
          <path
             d="m 18.596486,-20.74322 -0.206923,0.794274 -0.123728,0 -0.204079,-0.612238 -0.202657,0.612238 -0.123016,0 -0.209057,-0.794274 0.139371,0 0.145771,0.615082 0.198391,-0.615082 0.110217,0 0.203368,0.615082 0.137949,-0.615082 0.134393,0 z"
             style="font-size:1.45628667px;fill:#ffffff;fill-opacity:1"
             id="path9132"
             inkscape:connector-curvature="0" />
          <path
             d="m 19.406404,-19.948946 -0.132972,0 0,-0.08462 q -0.01778,0.01209 -0.04835,0.03413 -0.02987,0.02133 -0.05831,0.03413 -0.03342,0.01636 -0.0768,0.02702 -0.04338,0.01138 -0.101684,0.01138 -0.107373,0 -0.182036,-0.07111 -0.07466,-0.07111 -0.07466,-0.181325 0,-0.09031 0.0384,-0.145771 0.03911,-0.05617 0.110928,-0.08817 0.07253,-0.032 0.174214,-0.04338 0.101684,-0.01138 0.218301,-0.01707 l 0,-0.02062 q 0,-0.04551 -0.01636,-0.07538 -0.01564,-0.02987 -0.04551,-0.04693 -0.02844,-0.01635 -0.06826,-0.02204 -0.03982,-0.0057 -0.0832,-0.0057 -0.05262,0 -0.117328,0.01422 -0.06471,0.01351 -0.133682,0.03982 l -0.0071,0 0,-0.135816 q 0.03911,-0.01067 0.113061,-0.02346 0.07395,-0.0128 0.145771,-0.0128 0.08391,0 0.145771,0.01422 0.06257,0.01351 0.108084,0.04693 0.0448,0.03271 0.06826,0.08462 0.02347,0.05191 0.02347,0.128705 l 0,0.538997 z m -0.132972,-0.195546 0,-0.221145 q -0.06115,0.0036 -0.144349,0.01067 -0.08249,0.0071 -0.130838,0.02062 -0.0576,0.01636 -0.09315,0.0512 -0.03555,0.03413 -0.03555,0.09457 0,0.06826 0.04124,0.103106 0.04124,0.03413 0.12586,0.03413 0.0704,0 0.128705,-0.02702 0.05831,-0.02773 0.108084,-0.06613 z"
             style="font-size:1.45628667px;fill:#ffffff;fill-opacity:1"
             id="path9134"
             inkscape:connector-curvature="0" />
          <path
             d="m 20.158013,-20.597449 -0.0071,0 q -0.02986,-0.0071 -0.05831,-0.01 -0.02773,-0.0036 -0.06613,-0.0036 -0.06186,0 -0.119461,0.02773 -0.0576,0.02702 -0.110928,0.0704 l 0,0.563884 -0.133682,0 0,-0.794274 0.133682,0 0,0.117328 q 0.07964,-0.064 0.140082,-0.09031 0.06115,-0.02702 0.124439,-0.02702 0.03484,0 0.05049,0.0021 0.01564,0.0014 0.04693,0.0064 l 0,0.137238 z"
             style="font-size:1.45628667px;fill:#ffffff;fill-opacity:1"
             id="path9136"
             inkscape:connector-curvature="0" />
          <path
             d="m 20.950153,-20.332217 -0.585217,0 q 0,0.07324 0.02204,0.127994 0.02204,0.05404 0.06044,0.08888 0.03698,0.03413 0.08746,0.0512 0.0512,0.01707 0.11235,0.01707 0.08106,0 0.162837,-0.032 0.08248,-0.03271 0.117327,-0.064 l 0.0071,0 0,0.145771 q -0.06755,0.02844 -0.137949,0.04764 -0.0704,0.0192 -0.147904,0.0192 -0.197679,0 -0.308608,-0.106662 -0.110928,-0.107372 -0.110928,-0.304341 0,-0.194835 0.105951,-0.309318 0.106662,-0.114484 0.280164,-0.114484 0.160704,0 0.247455,0.09386 0.08746,0.09386 0.08746,0.266654 l 0,0.07253 z m -0.130127,-0.102395 q -7.11e-4,-0.105239 -0.05333,-0.162837 -0.05191,-0.0576 -0.15857,-0.0576 -0.107373,0 -0.17137,0.06329 -0.06329,0.06329 -0.07182,0.157148 l 0.45509,0 z"
             style="font-size:1.45628667px;fill:#ffffff;fill-opacity:1"
             id="path9138"
             inkscape:connector-curvature="0" />
        </g>
        <g
           transform="matrix(0.28249825,0,0,0.26275161,-723.00335,-767.38803)"
           id="g10860">
          <path
             style="stroke:#000000;stroke-width:0.5"
             inkscape:connector-curvature="0"
             d="m 2409.949,1188.41 c 20.99,-17.61 47.62,-27.51 74.55,-31.23 21.57,-0.39 43.17,-0.02 64.76,-0.18 9.27,-0.29 18.3,2.26 27.24,4.4 29.93,7.63 57.9,24.74 76.13,49.98 22.48,30.37 31.06,68.66 32.97,105.81 1.15,25.82 -0.94,51.73 -5.46,77.16 -0.49,1.74 -1.09,3.45 -1.7,5.19 -3.75,-1.5 -6.14,-4.83 -7.65,-8.41 -4.64,-10.55 -6.65,-22 -8.57,-33.29 -3.19,-18.95 -3.78,-38.27 -8.06,-57.04 -2.31,-10.09 -5.27,-20.27 -10.95,-29.02 -3.95,-6.09 -10,-11.21 -17.3,-12.44 -9.37,-1.61 -18.68,1.52 -27.3,4.85 -18.21,7.37 -35.33,17.7 -54.6,22.22 -6.99,1.73 -14.23,2.37 -21.4,1.91 -26.14,-2.17 -48.99,-16.16 -73.17,-24.92 -9.81,-3.51 -20.72,-6.55 -31.01,-3.32 -9.24,3 -15.06,11.61 -18.58,20.19 -6.82,17.33 -8.17,36.14 -9.48,54.54 -1.8,21.13 -4.01,42.41 -9.94,62.84 -2.44,7.28 -4.77,15.46 -11.35,20.15 -2.31,-6.85 -3.44,-14 -4.87,-21.05 -7.63,-41.73 -9.9,-85.15 -0.77,-126.83 6.811,-30.96 21.77,-61.06 46.51,-81.51 z"
             id="path10862" />
          <path
             style="fill:#ebbb8a;stroke:#ebbb8a;stroke-width:0.5"
             inkscape:connector-curvature="0"
             d="m 2418.429,1260.08 c 10.29,-3.23 21.2,-0.19 31.01,3.32 24.18,8.76 47.03,22.75 73.17,24.92 -0.42,84.16 0.04,168.33 -0.24,252.5 -19.79,0.1 -39.29,5.47 -57.09,13.89 -5.3,2.57 -10.61,5.19 -15.33,8.73 24.36,0.13 48.73,0.02 73.09,0.06 -1.43,17.17 -0.1,34.46 -0.7,51.69 -4.71,-0.01 -9.4,-0.01 -14.09,-0.04 -0.28,4.16 -0.25,8.33 -0.24,12.52 -3.94,0.2 -7.88,0.38 -11.79,0.15 -3.5,-0.03 -5.04,-3.74 -7.2,-5.87 -36.99,-43.39 -73.91,-86.85 -111.07,-130.09 -1.24,-2.89 -2.17,-6.08 -4.8,-8.02 -7.74,-6.35 -14.31,-14.2 -18.91,-23.09 -4.39,-8.12 -5.45,-17.44 -6.46,-26.46 -0.71,-7.76 -0.08,-15.67 1.89,-23.19 1.8,-5.49 4.07,-11.6 9.43,-14.54 1.51,-0.93 3.91,-1.68 5.11,0.19 1.43,7.05 2.56,14.2 4.87,21.05 6.58,-4.69 8.91,-12.87 11.35,-20.15 5.93,-20.43 8.14,-41.71 9.94,-62.84 1.31,-18.4 2.66,-37.21 9.48,-54.54 3.521,-8.58 9.34,-17.19 18.58,-20.19 z"
             id="path10864" />
          <path
             style="fill:#d4a97c;stroke:#d4a97c;stroke-width:0.5"
             inkscape:connector-curvature="0"
             d="m 2598.61,1264.19 c 8.62,-3.33 17.93,-6.46 27.3,-4.85 7.3,1.23 13.35,6.35 17.3,12.44 5.68,8.75 8.64,18.93 10.95,29.02 4.28,18.77 4.87,38.09 8.06,57.04 1.92,11.29 3.93,22.74 8.57,33.29 1.51,3.58 3.9,6.91 7.65,8.41 0.61,-1.74 1.21,-3.45 1.7,-5.19 4.5,0.78 9.04,2.94 11.45,7.02 5.81,8.58 5.88,19.34 6.25,29.32 -0.5,8.21 -1.34,16.57 -4.33,24.32 -3.72,10.52 -10.77,19.55 -19.06,26.89 -2.86,2.28 -4.11,5.71 -5.05,9.11 -38.64,44.95 -77.49,89.72 -116.13,134.67 -0.9,0.78 -1.72,2.01 -3.03,2.04 -5.09,0.41 -10.21,0.08 -15.29,0.05 -0.14,-4.21 -0.16,-8.41 -0.11,-12.6 -4.18,0 -8.35,-0.01 -12.5,0.02 0.6,-17.23 -0.73,-34.52 0.7,-51.69 24.13,-0.04 48.25,0.12 72.38,-0.09 -21.64,-13.97 -47.22,-22.35 -73.05,-22.59 0.28,-84.17 -0.18,-168.34 0.24,-252.5 7.17,0.46 14.41,-0.18 21.4,-1.91 19.27,-4.52 36.389,-14.85 54.6,-22.22 z"
             id="path10866" />
          <path
             style="stroke:#000000;stroke-width:0.5"
             inkscape:connector-curvature="0"
             d="m 2669.399,1491.01 0.55,-0.65 c -2.07,39.44 -5.07,78.84 -7.42,118.27 -0.59,3.82 0.39,8.21 -1.68,11.65 -7.79,9.72 -15.83,19.23 -23.7,28.88 -18.09,22.05 -36.22,44.07 -54.33,66.11 -38.58,0.26 -77.16,0.36 -115.74,0.66 -19.87,-23.17 -39.79,-46.29 -59.67,-69.44 -6.78,-7.87 -13.52,-15.76 -20.35,-23.57 -1.44,-1.77 -3.33,-3.53 -3.25,-5.95 -2.12,-37.4 -4.23,-74.79 -6.32,-112.18 -0.28,-4.58 -0.85,-9.17 -0.37,-13.73 l 0.83,0.8 c 37.16,43.24 74.08,86.7 111.07,130.09 2.16,2.13 3.7,5.84 7.2,5.87 3.91,0.23 7.85,0.05 11.79,-0.15 -0.01,-4.19 -0.04,-8.36 0.24,-12.52 4.69,0.03 9.38,0.03 14.09,0.04 4.15,-0.03 8.32,-0.02 12.5,-0.02 -0.05,4.19 -0.03,8.39 0.11,12.6 5.08,0.03 10.2,0.36 15.29,-0.05 1.31,-0.03 2.13,-1.26 3.03,-2.04 38.64,-44.95 77.491,-89.72 116.13,-134.67 z"
             id="path10868" />
          <path
             style="fill:#010000;stroke:#010000;stroke-width:0.5"
             inkscape:connector-curvature="0"
             d="m 2465.28,1554.71 c 17.8,-8.42 37.3,-13.79 57.09,-13.89 25.83,0.24 51.41,8.62 73.05,22.59 -24.13,0.21 -48.25,0.05 -72.38,0.09 -24.36,-0.04 -48.73,0.07 -73.09,-0.06 4.719,-3.54 10.029,-6.16 15.33,-8.73 z"
             id="path10870" />
          <path
             style="fill:#ebbb8a;stroke:#ebbb8a;stroke-width:0.5"
             inkscape:connector-curvature="0"
             d="m 2405.419,1650.67 c 0.26,-1.62 -0.51,-4.38 1.99,-4.18 19.88,23.15 39.8,46.27 59.67,69.44 12.09,19.57 22.47,40.26 30.36,61.89 -7.49,0.21 -15.03,-0.41 -22.46,0.64 -22.83,-16.12 -40.26,-38.98 -52.55,-63.9 -3.02,-6.72 -5.99,-13.48 -8.67,-20.34 -1.26,-3.52 -2.28,-7.11 -3.37,-10.66 -1.4,-4.39 -2.79,-8.77 -4.05,-13.18 -1.789,-6.42 -1.039,-13.16 -0.92,-19.71 z"
             id="path10872" />
          <path
             sodipodi:nodetypes="ccccccccccccc"
             style="fill:#d4a97c;stroke:#d4a97c;stroke-width:0.5"
             inkscape:connector-curvature="0"
             d="m 2582.82,1715.27 c 18.11,-22.04 36.24,-44.06 54.33,-66.11 2.43,2.83 1.91,6.82 2.96,10.22 -1.16,4.7 -2.17,9.46 -3.64,14.1 -1.2,3.46 -2.25,6.99 -3.24,10.53 -1.59,4.32 -3.43,8.56 -5.1,12.87 -2.22,5.23 -4.66,10.37 -7.16,15.47 -3.01,5.81 -6.26,11.49 -9.64,17.09 -11.98,18.99 -27.19,36.23 -45.68,49.09 -9.75,-1.26 -24.0465,22.8664 -33.8265,22.5564 -12.95,-0.06 -31.8186,13.6951 -44.7586,13.3851 -7.89,-21.63 -7.8949,-78.9715 -19.9849,-98.5415 38.579,-0.3 77.16,-0.4 115.74,-0.66 z"
             id="path10874" />
          <path
             style="fill:#c5c1bf;stroke:#c5c1bf;stroke-width:0.5"
             inkscape:connector-curvature="0"
             d="m 2640.11,1659.38 0.33,-0.79 c 1.28,3.25 2.08,6.69 2.59,10.17 0.73,13.3 -0.04,26.63 0.24,39.96 0.27,7.79 -0.73,15.7 1.16,23.37 -0.91,9.03 -2.28,18 -3.94,26.93 -1.85,-9.66 -1.01,-19.54 -1.18,-29.3 -0.12,-18.2 0.3,-36.42 -0.24,-54.6 -0.9,-0.58 -1.77,-1.13 -2.6,-1.64 1.469,-4.64 2.479,-9.4 3.64,-14.1 z"
             id="path10876" />
          <path
             style="fill:#b1adab;stroke:#b1adab;stroke-width:0.5"
             inkscape:connector-curvature="0"
             d="m 2643.03,1668.76 c 2.46,3.72 3.59,8.14 4.87,12.39 0.23,1.11 0.48,2.24 0.75,3.42 -0.03,15.9 -1.51,31.85 -4.22,47.52 -1.89,-7.67 -0.89,-15.58 -1.16,-23.37 -0.28,-13.33 0.49,-26.66 -0.24,-39.96 z"
             id="path10878" />
          <path
             style="fill:#c1bbb8;stroke:#c1bbb8;stroke-width:0.5"
             inkscape:connector-curvature="0"
             d="m 2401.899,1671.27 c 0.99,-1.46 2.95,-0.79 4.44,-0.89 1.26,4.41 2.65,8.79 4.05,13.18 -1.69,-1.17 -3.22,-2.8 -5.26,-3.15 -2.7,-0.09 -5.32,0.67 -7.92,1.17 1.22,-3.57 2.301,-7.31 4.69,-10.31 z"
             id="path10880" />
          <path
             style="fill:#d1cecc;stroke:#d1cecc;stroke-width:0.5"
             inkscape:connector-curvature="0"
             d="m 2636.469,1673.48 c 0.83,0.51 1.7,1.06 2.6,1.64 0.54,18.18 0.12,36.4 0.24,54.6 0.17,9.76 -0.67,19.64 1.18,29.3 -1,8.04 -2.35,16.05 -3.93,24 -1.14,-4.69 -1.55,-9.51 -1.33,-14.3 0.17,-26.03 -0.07,-52.05 0.11,-78.06 0.15,-2.45 -0.84,-4.68 -2.11,-6.65 0.99,-3.54 2.041,-7.07 3.24,-10.53 z"
             id="path10882" />
          <path
             sodipodi:nodetypes="cccccccccccccccccccccccccc"
             style="fill:#808080;stroke:#808080;stroke-width:0.5"
             inkscape:connector-curvature="0"
             d="m 2647.899,1681.15 c 0.97,-1.45 2,-2.85 3.02,-4.25 2.71,8.96 9.07,16.17 16.12,22.08 6.85,6.12 14.98,10.49 22.93,14.99 17.8,9.74 37.29,15.6 56.18,22.77 34.98,13.58 69.52,29.17 100.44,50.67 14.46,10.7 29.01,23.18 35.59,40.44 6.46,16.69 44.2953,143.3245 49.1053,160.5845 -11.72,12.64 -76.2933,-6.0238 -90.9633,2.8762 -43.5486,15.9959 -59.4809,-7.3624 -101.7109,3.4476 -5.54,1.34 -28.0748,-3.1442 -33.8148,-3.0742 6.89,-17.61 30.9637,-65.9441 37.8537,-83.5541 4.32,-10.49 8.04,-21.2 12.33,-31.7 3.4,-8.45 6.06,-17.17 9.52,-25.6 1.01,-2.43 1.97,-4.89 2.8,-7.38 -1.94,-0.89 -4.07,-0.8 -6.11,-1 -1.61,-0.66 -2.65,-2.17 -3.88,-3.26 0.67,-0.23 1.99,-0.69 2.66,-0.92 -7.98,-5.9 -15.97,-11.84 -24.57,-16.78 -7.2,-5.34 -14.6,-10.41 -21.62,-15.97 2.52,-5.01 6.9,-8.6 10.58,-12.71 6.92,-7.78 14.26,-15.19 21.11,-23.05 2.1,-1.72 3.88,-3.79 5.4,-6.04 -7.75,-2.45 -15.94,-3.2 -23.59,-6.03 -35.47,-11.1 -63.91,-39.4 -78.63,-73.12 -0.269,-1.18 -0.519,-2.31 -0.75,-3.42 z"
             id="path10884" />
          <path
             style="fill:#dbd8d5;stroke:#dbd8d5;stroke-width:0.5"
             inkscape:connector-curvature="0"
             d="m 2397.209,1681.58 c 2.6,-0.5 5.22,-1.26 7.92,-1.17 2.04,0.35 3.57,1.98 5.26,3.15 1.09,3.55 2.11,7.14 3.37,10.66 -5.08,-2.04 -10.59,-2.26 -15.86,-0.95 -0.47,1.19 -0.9,2.41 -1.28,3.67 -0.31,-3.82 -0.55,-7.66 -0.43,-11.46 0.21,-1.36 0.611,-2.64 1.02,-3.9 z"
             id="path10886" />
          <path
             style="fill:#dddcda;stroke:#dddcda;stroke-width:0.5"
             inkscape:connector-curvature="0"
             d="m 2628.13,1696.88 c 1.67,-4.31 3.51,-8.55 5.1,-12.87 1.27,1.97 2.26,4.2 2.11,6.65 -0.18,26.01 0.06,52.03 -0.11,78.06 -0.22,4.79 0.19,9.61 1.33,14.3 -1.39,9.7 -3.08,19.36 -5.07,28.96 -1.18,-11.11 -1.76,-22.29 -0.65,-33.42 -0.94,-14.26 -0.44,-28.56 -0.55,-42.84 0.1,-12.21 -0.32,-24.42 0.33,-36.61 0.46,-1.63 -1.54,-1.68 -2.49,-2.23 z"
             id="path10888" />
          <path
             sodipodi:nodetypes="ccccccccccccccccccccccccccccccccc"
             style="fill:#666666;stroke:#666666;stroke-width:0.5"
             inkscape:connector-curvature="0"
             d="m 2648.649,1684.57 c 14.72,33.72 43.16,62.02 78.63,73.12 7.65,2.83 15.84,3.58 23.59,6.03 -1.52,2.25 -3.3,4.32 -5.4,6.04 -6.81,3.22 -12.46,8.3 -18.61,12.55 -9.54,7.26 -19.75,13.66 -28.85,21.49 8.04,5.98 17.2,10.18 25.74,15.39 6.09,3.28 11.88,7.22 18.47,9.52 -2.29,-2.41 -4.54,-4.85 -6.82,-7.22 8.6,4.94 16.59,10.88 24.57,16.78 -0.67,0.23 -1.99,0.69 -2.66,0.92 1.23,1.09 2.27,2.6 3.88,3.26 2.04,0.2 4.17,0.11 6.11,1 -0.83,2.49 -1.79,4.95 -2.8,7.38 0.22,-2.15 0.33,-4.29 0.44,-6.39 -1.69,0.52 -3.32,1.32 -3.64,3.24 -6.8,20.14 -14.38,40.01 -22.12,59.81 -3.17,9.19 -7.73,17.82 -11.19,26.91 -3.65,9.21 -11.9643,35.399 -14.1843,45.119 l -3.8154,10.948 c -19.43,3.59 -35.1046,-2.898 -54.7046,-0.338 -14.28,2.01 -28.63,3.51 -42.99,4.86 -6.46,0.45 -12.89,1.49 -19.37,1.23 0.04,-0.54 0.12,-1.63 0.16,-2.18 5.73,-23.26 13.9643,-64.169 18.9243,-87.599 1.05,-4.86 1.54,-9.88 3.57,-14.45 0.93,-2.18 1.56,-4.47 1.97,-6.77 2.93,-13.66 5.64,-27.37 7.96,-41.14 2.28,-10.65 4.29,-21.35 5.98,-32.1 1.99,-9.6 3.68,-19.26 5.07,-28.96 1.58,-7.95 2.93,-15.96 3.93,-24 1.66,-8.93 3.03,-17.9 3.94,-26.93 2.711,-15.67 4.191,-31.62 4.22,-47.52 z"
             id="path10890" />
          <path
             sodipodi:nodetypes="ccccccccccccccccccccccccccccccccc"
             style="fill:#666666;stroke:#666666;stroke-width:0.5"
             inkscape:connector-curvature="0"
             d="m 2388.04,1694.49 c 2.68,-3.04 4.65,-6.78 8.15,-9.01 -0.12,3.8 0.12,7.64 0.43,11.46 0.29,5.16 0.87,10.32 1.43,15.48 5.03,41.03 12.99,81.63 20.86,122.19 1.14,6.53 2.68,12.99 3.92,19.52 0.9,4.87 2.05,9.69 3.08,14.56 0.65,3.38 1.38,6.78 2.1,10.18 0.7,3.92 1.59,7.83 3.11,11.56 1.92,-2.88 3.69,-5.86 5.2,-8.97 0.19,0.4 0.57,1.19 0.77,1.58 -1.77,4.27 -6.32,7.92 -5.35,12.91 4.34,23.58 18.6129,66.0825 23.2729,89.5925 0.03,3.79 -10.5972,-0.5277 -10.3572,3.2723 -23.46,-1.29 -53.5866,9.2992 -76.7966,5.7392 -14.75,-2.54 -17.7609,2.3087 -32.3109,-1.2313 -2.32,-7.37 -7.8082,-47.0227 -10.8082,-54.1027 -9.28,-20.19 -16.88,-41.09 -25.21,-61.67 -4.4,-12.59 -8.68,-25.22 -13.37,-37.69 -1.51,0.83 -3.01,1.66 -4.49,2.53 3.7,-6.05 10.26,-9.52 15.88,-13.56 1.38,2.09 3.7,0.26 5.36,-0.44 10.81,-6.18 21.53,-12.55 32.34,-18.73 5.43,-3.27 11.59,-5.45 16.25,-9.89 -8.54,-7.33 -17.98,-13.54 -26.98,-20.28 -6.7,-4.65 -12.76,-10.28 -20.16,-13.81 8,9.31 16.93,17.81 24.79,27.24 -4.83,-3.11 -8.52,-7.54 -12.7,-11.38 -7.07,-6.11 -13.69,-12.71 -20.55,-19.05 4.84,-3.09 10.68,-3.85 15.83,-6.29 22.7,-10 42.59,-25.5 59.83,-43.18 3.63,-3.44 6.97,-7.18 9.73,-11.37 1.97,-2.64 4.609,-4.68 6.75,-7.16 z"
             id="path10892" />
          <path
             style="fill:#f0eeee;stroke:#f0eeee;stroke-width:0.5"
             inkscape:connector-curvature="0"
             d="m 2397.899,1693.27 c 5.27,-1.31 10.78,-1.09 15.86,0.95 2.68,6.86 5.65,13.62 8.67,20.34 -2.67,-2.85 -6.27,-6.25 -10.52,-5.03 -4.62,1.05 -9.43,1.16 -13.86,2.89 -0.56,-5.16 -1.14,-10.32 -1.43,-15.48 0.381,-1.26 0.81,-2.48 1.28,-3.67 z"
             id="path10894" />
          <path
             style="fill:#e8e7e7;stroke:#e8e7e7;stroke-width:0.5"
             inkscape:connector-curvature="0"
             d="m 2628.13,1696.88 c 0.95,0.55 2.95,0.6 2.49,2.23 -0.65,12.19 -0.23,24.4 -0.33,36.61 0.11,14.28 -0.39,28.58 0.55,42.84 -1.11,11.13 -0.53,22.31 0.65,33.42 -1.69,10.75 -3.7,21.45 -5.98,32.1 -1.18,-9.33 -0.57,-18.74 -0.63,-28.09 -1.92,-11.75 1.41,-23.5 0.18,-35.29 -1.33,-11.62 -0.62,-23.32 -0.78,-34.98 0.14,-9.51 -0.35,-19.02 0.33,-28.51 0.1,-2.11 0.03,-4.2 -0.06,-6.28 -1.23,0.43 -2.42,0.92 -3.58,1.42 2.499,-5.1 4.939,-10.24 7.16,-15.47 z"
             id="path10896" />
          <path
             sodipodi:nodetypes="cccccccccccccccccccc"
             style="fill:#808080;stroke:#808080;stroke-width:0.5"
             inkscape:connector-curvature="0"
             d="m 2368.05,1709.45 c 4.41,-2.59 8.24,-6.29 13.24,-7.8 -2.76,4.19 -6.1,7.93 -9.73,11.37 -17.24,17.68 -37.13,33.18 -59.83,43.18 -5.15,2.44 -10.99,3.2 -15.83,6.29 6.86,6.34 13.48,12.94 20.55,19.05 4.18,3.84 7.87,8.27 12.7,11.38 2.14,2.01 4.13,4.18 6.01,6.49 -12.39,9.98 -24.86,19.9 -37.61,29.42 -5.62,4.04 -12.18,7.51 -15.88,13.56 2.46,9.33 6.33,18.24 9.75,27.27 11.4,30.07 39.8654,93.2654 52.5454,122.7954 -6.48,-0.15 -26.2972,5.8714 -32.4872,4.2414 -21.31,-5.38 -40.1618,4.2527 -60.6018,-3.7773 -32.94,-13.6 -81.1855,20.0181 -106.1955,-5.8819 -1.67,-1.83 7.5191,-113.3576 8.7691,-116.0876 7.8,-22.93 16.88,-45.66 29.82,-66.22 10.52,-12.98 24.09,-23.15 38.4,-31.61 9.07,-4.96 18.23,-9.96 28.21,-12.87 40.519,-14.03 81.099,-28.94 118.17,-50.8 z"
             id="path10898" />
          <path
             style="fill:#fefffe;stroke:#fefffe;stroke-width:0.5"
             inkscape:connector-curvature="0"
             d="m 2411.909,1709.53 c 4.25,-1.22 7.85,2.18 10.52,5.03 12.29,24.92 29.72,47.78 52.55,63.9 13.49,9.72 28.88,16.6 44.84,21.16 -8.57,3 -16.44,7.51 -23.7,12.91 -10.42,5.88 -19.25,14.12 -27.58,22.61 -16.52,-0.96 -33.09,-0.33 -49.63,-0.53 -7.87,-40.56 -15.83,-81.16 -20.86,-122.19 4.43,-1.73 9.241,-1.84 13.86,-2.89 z"
             id="path10900" />
          <path
             style="fill:#f4f3f3;stroke:#f4f3f3;stroke-width:0.5"
             inkscape:connector-curvature="0"
             d="m 2620.969,1712.35 c 1.16,-0.5 2.35,-0.99 3.58,-1.42 0.09,2.08 0.16,4.17 0.06,6.28 -0.68,9.49 -0.19,19 -0.33,28.51 0.16,11.66 -0.55,23.36 0.78,34.98 1.23,11.79 -2.1,23.54 -0.18,35.29 0.06,9.35 -0.55,18.76 0.63,28.09 -2.32,13.77 -5.03,27.48 -7.96,41.14 -2.15,-10.04 -0.74,-20.35 -1.32,-30.5 -0.07,-27.33 -0.02,-54.67 -0.02,-82 0.06,-6.64 -0.34,-13.28 0.35,-19.88 0.34,-2.91 0.04,-5.81 -0.7,-8.6 -1.31,-4.59 0.02,-9.29 0.11,-13.92 -1.59,-0.33 -3.13,-0.62 -4.64,-0.88 3.38,-5.6 6.63,-11.28 9.64,-17.09 z"
             id="path10902" />
          <path
             sodipodi:nodetypes="cccccccccccccccccccccccc"
             style="fill:#fefefe;stroke:#fefefe;stroke-width:0.5"
             inkscape:connector-curvature="0"
             d="m 2565.649,1778.53 c 18.49,-12.86 33.7,-30.1 45.68,-49.09 1.51,0.26 3.05,0.55 4.64,0.88 -0.09,4.63 -1.42,9.33 -0.11,13.92 0.74,2.79 1.04,5.69 0.7,8.6 -0.69,6.6 -0.29,13.24 -0.35,19.88 0,27.33 -0.05,54.67 0.02,82 0.58,10.15 -0.83,20.46 1.32,30.5 -0.41,2.3 -1.04,4.59 -1.97,6.77 -2.03,4.57 -2.52,9.59 -3.57,14.45 -4.96,23.43 -11.7122,53.1842 -17.4422,76.4442 l -0.86,2.34 c -13.98,1.22 -28.04,1.9 -42.07,1.93 -0.27,-1.11 -0.48,-2.2 -0.62,-3.25 -2.19,-31.02 -3.2178,-68.4542 -8.1778,-99.1642 2.76,-2.91 6.84,-1.92 10.39,-1.97 16.7,0.01 33.4,-0.07 50.09,0 3.83,-0.29 6.66,2.58 9.47,4.74 0.76,1.02 1.56,2.06 2.41,3.12 -7.68,-17.26 -17.98,-33.32 -29.96,-47.89 -9.81,-11.53 -20.73,-22.45 -33.84,-30.18 -2.73,-1.77 -5.42,-3.58 -8.18,-5.24 3.38,-5.13 -0.11,-11.34 2.22,-16.69 7.061,-3.44 13.79,-7.56 20.21,-12.1 z"
             id="path10904" />
          <path
             style="fill:#525252;stroke:#525252;stroke-width:0.5"
             inkscape:connector-curvature="0"
             d="m 2304.36,1765.68 c 7.4,3.53 13.46,9.16 20.16,13.81 9,6.74 18.44,12.95 26.98,20.28 -4.66,4.44 -10.82,6.62 -16.25,9.89 -10.81,6.18 -21.53,12.55 -32.34,18.73 -1.66,0.7 -3.98,2.53 -5.36,0.44 12.75,-9.52 25.22,-19.44 37.61,-29.42 -1.88,-2.31 -3.87,-4.48 -6.01,-6.49 -7.86,-9.43 -16.79,-17.93 -24.79,-27.24 z"
             id="path10906" />
          <path
             style="fill:#535353;stroke:#535353;stroke-width:0.5"
             inkscape:connector-curvature="0"
             d="m 2726.86,1782.31 c 6.15,-4.25 11.8,-9.33 18.61,-12.55 -6.85,7.86 -14.19,15.27 -21.11,23.05 -3.68,4.11 -8.06,7.7 -10.58,12.71 7.02,5.56 14.42,10.63 21.62,15.97 2.28,2.37 4.53,4.81 6.82,7.22 -6.59,-2.3 -12.38,-6.24 -18.47,-9.52 -8.54,-5.21 -17.7,-9.41 -25.74,-15.39 9.1,-7.83 19.31,-14.23 28.85,-21.49 z"
             id="path10908" />
          <path
             sodipodi:nodetypes="ccccccccc"
             style="fill:#a59c8d;stroke:#a59c8d;stroke-width:0.5"
             inkscape:connector-curvature="0"
             d="m 2474.979,1778.46 c 7.43,-1.05 34.238,7.5377 41.728,7.3277 12.94,0.31 7.3531,0.1 20.3031,0.16 9.78,0.31 18.8889,-8.6777 28.6389,-7.4177 -6.42,4.54 -13.15,8.66 -20.21,12.1 -3.72,1.67 -7.43,3.37 -11.22,4.85 -2.62,1.05 -6.43,1.57 -6.48,5.13 -2.57,-0.83 -5.26,-1.16 -7.92,-0.99 -15.959,-4.56 -31.35,-11.44 -44.84,-21.16 z"
             id="path10910" />
          <path
             style="fill:#e8e5e4;stroke:#e8e5e4;stroke-width:0.5"
             inkscape:connector-curvature="0"
             d="m 2534.219,1795.48 c 3.79,-1.48 7.5,-3.18 11.22,-4.85 -2.33,5.35 1.16,11.56 -2.22,16.69 -2.91,-1.64 -5.86,-3.16 -8.91,-4.41 -0.01,-2.5 -0.039,-4.98 -0.09,-7.43 z"
             id="path10912" />
          <path
             style="fill:#c9c6c3;stroke:#c9c6c3;stroke-width:0.5"
             inkscape:connector-curvature="0"
             d="m 2527.74,1800.61 c 0.05,-3.56 3.86,-4.08 6.48,-5.13 0.05,2.45 0.08,4.93 0.09,7.43 -2.19,-0.86 -4.381,-1.63 -6.57,-2.3 z"
             id="path10914" />
          <path
             sodipodi:nodetypes="cccccccccccccccccccccccc"
             style="fill:#587c5a;fill-opacity:1;stroke:#1a1a1a;stroke-width:0.5"
             inkscape:connector-curvature="0"
             d="m 2519.82,1799.62 c 2.66,-0.17 5.35,0.16 7.92,0.99 2.19,0.67 4.38,1.44 6.57,2.3 3.05,1.25 6,2.77 8.91,4.41 2.76,1.66 5.45,3.47 8.18,5.24 1.17,2.14 2.17,4.38 3.19,6.65 -0.64,2.1 -1.21,4.24 -1.76,6.4 -0.85,3.05 -1.76,6.08 -2.68,9.12 -1.4,4.34 -3.11,8.58 -4.99,12.74 -2.02,4.35 -4.66,8.37 -7.45,12.27 0.2,0.97 0.43,1.97 0.7,3.01 1.8,7.25 3.23,14.6 4.43,21.99 4.96,30.71 6.7289,74.5184 8.9189,105.5384 -0.02,0.84 -0.07,2.53 -0.09,3.38 -20.14,0.39 -40.3,0.31 -60.43,-0.3 -0.12,-2.72 -0.8911,-8.6171 -0.6711,-11.2871 2.5,-32.15 8.7922,-73.6313 14.5122,-105.3413 0.89,-5.36 2.17,-10.63 2.98,-15.98 0.46,-1.73 -0.76,-3.11 -1.51,-4.45 -3.38,-4.92 -5.99,-10.31 -8.17,-15.84 -1.4,-3.64 -2.68,-7.31 -3.79,-11.01 -0.99,-3.37 -1.85,-6.75 -2.72,-10.11 1.5,-2.22 2.78,-4.58 4.25,-6.81 7.26,-5.4 15.13,-9.91 23.7,-12.91 z"
             id="path10916" />
          <path
             style="fill:#676667;stroke:#676667;stroke-width:0.5"
             inkscape:connector-curvature="0"
             d="m 2468.54,1835.14 c 8.33,-8.49 17.16,-16.73 27.58,-22.61 -1.47,2.23 -2.75,4.59 -4.25,6.81 -4.55,3.06 -8.85,6.46 -12.66,10.41 -3.63,3.31 -7.05,6.83 -10.18,10.62 -4.21,4.79 -8.26,9.73 -12.11,14.83 -6.26,8.22 -12.7,16.36 -17.91,25.33 -0.68,0.79 -1.32,1.63 -1.92,2.51 -0.2,-0.39 -0.58,-1.18 -0.77,-1.58 0.32,-0.87 0.69,-1.71 1.1,-2.5 1.86,-3.5 3.93,-6.87 5.85,-10.32 3.23,-5.26 6.71,-10.37 10.34,-15.36 4.609,-6.34 9.66,-12.34 14.93,-18.14 z"
             id="path10918" />
          <path
             style="fill:#666667;stroke:#666667;stroke-width:0.5"
             inkscape:connector-curvature="0"
             d="m 2551.399,1812.56 c 13.11,7.73 24.03,18.65 33.84,30.18 11.98,14.57 22.28,30.63 29.96,47.89 -0.85,-1.06 -1.65,-2.1 -2.41,-3.12 -5.18,-9.54 -11.95,-18.06 -18.39,-26.73 -3.83,-5.16 -7.68,-10.29 -11.86,-15.14 -3.15,-3.96 -6.63,-7.63 -10.19,-11.19 -3.36,-3.45 -6.92,-6.7 -10.61,-9.75 -2.3,-1.98 -4.7,-3.79 -7.15,-5.49 -1.019,-2.27 -2.019,-4.51 -3.19,-6.65 z"
             id="path10920" />
          <path
             style="fill:#b4b3b9;stroke:#b4b3b9;stroke-width:0.5"
             inkscape:connector-curvature="0"
             d="m 2479.209,1829.75 c 3.81,-3.95 8.11,-7.35 12.66,-10.41 0.87,3.36 1.73,6.74 2.72,10.11 -5.14,-0.16 -10.269,0.34 -15.38,0.3 z"
             id="path10922" />
          <path
             style="fill:#afaeb3;stroke:#afaeb3;stroke-width:0.5"
             inkscape:connector-curvature="0"
             d="m 2554.59,1819.21 c 2.45,1.7 4.85,3.51 7.15,5.49 -2.87,1.05 -5.92,1.23 -8.91,0.91 0.55,-2.16 1.119,-4.3 1.76,-6.4 z"
             id="path10924" />
          <path
             style="fill:#bfbfc3;stroke:#bfbfc3;stroke-width:0.5"
             inkscape:connector-curvature="0"
             d="m 2552.83,1825.61 c 2.99,0.32 6.04,0.14 8.91,-0.91 3.69,3.05 7.25,6.3 10.61,9.75 -7.4,0.32 -14.81,0.6 -22.2,0.28 0.92,-3.04 1.829,-6.07 2.68,-9.12 z"
             id="path10926" />
          <path
             style="fill:#cacacd;stroke:#cacacd;stroke-width:0.5"
             inkscape:connector-curvature="0"
             d="m 2479.209,1829.75 c 5.11,0.04 10.24,-0.46 15.38,-0.3 1.11,3.7 2.39,7.37 3.79,11.01 -9.79,0.97 -19.56,-0.25 -29.35,-0.09 3.13,-3.79 6.551,-7.31 10.18,-10.62 z"
             id="path10928" />
          <path
             style="fill:#f1f1f1;stroke:#f1f1f1;stroke-width:0.5"
             inkscape:connector-curvature="0"
             d="m 2418.909,1834.61 c 16.54,0.2 33.11,-0.43 49.63,0.53 -5.27,5.8 -10.32,11.8 -14.93,18.14 -3.02,0.88 -6.15,1.38 -9.28,1.39 -7.18,0.01 -14.37,0.26 -21.5,-0.54 -1.239,-6.53 -2.779,-12.99 -3.92,-19.52 z"
             id="path10930" />
          <path
             style="fill:#d4d4d6;stroke:#d4d4d6;stroke-width:0.5"
             inkscape:connector-curvature="0"
             d="m 2550.149,1834.73 c 7.39,0.32 14.8,0.04 22.2,-0.28 3.56,3.56 7.04,7.23 10.19,11.19 -12.29,2.7 -25,-0.19 -37.38,1.83 1.881,-4.16 3.591,-8.4 4.99,-12.74 z"
             id="path10932" />
          <path
             style="fill:#545454;stroke:#545454;stroke-width:0.5"
             inkscape:connector-curvature="0"
             d="m 2281.669,1842.39 c 1.48,-0.87 2.98,-1.7 4.49,-2.53 4.69,12.47 8.97,25.1 13.37,37.69 8.33,20.58 15.93,41.48 25.21,61.67 3,7.08 6.53,13.98 8.85,21.35 -1.7,-0.38 -3.35,-0.73 -4.99,-1.05 l -0.3,-0.75 c -12.68,-29.53 -25.48,-59.04 -36.88,-89.11 -3.419,-9.03 -7.289,-17.94 -9.75,-27.27 z"
             id="path10934" />
          <path
             style="fill:#dfdfe1;stroke:#dfdfe1;stroke-width:0.5"
             inkscape:connector-curvature="0"
             d="m 2469.03,1840.37 c 9.79,-0.16 19.56,1.06 29.35,0.09 2.18,5.53 4.79,10.92 8.17,15.84 -6.99,-1.82 -14.2,0.05 -21.28,-0.45 -9.47,0.33 -18.89,-0.67 -28.35,-0.65 3.85,-5.1 7.9,-10.04 12.11,-14.83 z"
             id="path10936" />
          <path
             style="fill:#555555;stroke:#555555;stroke-width:0.5"
             inkscape:connector-curvature="0"
             d="m 2761.3,1847.68 c 0.32,-1.92 1.95,-2.72 3.64,-3.24 -0.11,2.1 -0.22,4.24 -0.44,6.39 -3.46,8.43 -6.12,17.15 -9.52,25.6 -4.29,10.5 -8.01,21.21 -12.33,31.7 -6.89,17.61 -14.66,34.87 -21.55,52.48 -0.6,1.59 -3.05,0.78 -4.33,1.38 2.22,-9.72 7.57,-18.38 11.22,-27.59 3.46,-9.09 8.02,-17.72 11.19,-26.91 7.739,-19.8 15.32,-39.67 22.12,-59.81 z"
             id="path10938" />
          <path
             style="fill:#e5e5e7;stroke:#e5e5e7;stroke-width:0.5"
             inkscape:connector-curvature="0"
             d="m 2545.159,1847.47 c 12.38,-2.02 25.09,0.87 37.38,-1.83 4.18,4.85 8.03,9.98 11.86,15.14 -5.36,-0.87 -10.77,0.06 -16.13,0.03 -11.03,-0.06 -22.05,0.01 -33.06,-0.11 -2.48,-0.2 -4.77,0.75 -6.8,2.05 -0.27,-1.04 -0.5,-2.04 -0.7,-3.01 2.791,-3.9 5.431,-7.92 7.45,-12.27 z"
             id="path10940" />
          <path
             style="fill:#e1e0de;stroke:#e1e0de;stroke-width:0.5"
             inkscape:connector-curvature="0"
             d="m 2444.33,1854.67 c 3.13,-0.01 6.26,-0.51 9.28,-1.39 -3.63,4.99 -7.11,10.1 -10.34,15.36 -5.73,-1.06 -11.68,-1.51 -17.36,0.05 -1.03,-4.87 -2.18,-9.69 -3.08,-14.56 7.129,0.8 14.319,0.55 21.5,0.54 z"
             id="path10942" />
          <path
             style="fill:#f1f1f3;stroke:#f1f1f3;stroke-width:0.5"
             inkscape:connector-curvature="0"
             d="m 2456.919,1855.2 c 9.46,-0.02 18.88,0.98 28.35,0.65 7.08,0.5 14.29,-1.37 21.28,0.45 0.75,1.34 1.97,2.72 1.51,4.45 -0.81,5.35 -2.09,10.62 -2.98,15.98 -3.89,0.79 -7.86,1.2 -11.81,1.14 -14.6,-0.2 -29.2,0.07 -43.8,-0.13 -3.66,0.1 -7.08,1.58 -10.46,2.79 5.21,-8.97 11.65,-17.11 17.91,-25.33 z"
             id="path10944" />
          <path
             style="fill:#f4f4f5;stroke:#f4f4f5;stroke-width:0.5"
             inkscape:connector-curvature="0"
             d="m 2578.27,1860.81 c 5.36,0.03 10.77,-0.9 16.13,-0.03 6.44,8.67 13.21,17.19 18.39,26.73 -2.81,-2.16 -5.64,-5.03 -9.47,-4.74 -16.69,-0.07 -33.39,0.01 -50.09,0 -3.55,0.05 -7.63,-0.94 -10.39,1.97 -1.2,-7.39 -2.63,-14.74 -4.43,-21.99 2.03,-1.3 4.32,-2.25 6.8,-2.05 11.009,0.12 22.03,0.05 33.06,0.11 z"
             id="path10946" />
          <path
             style="fill:#cfccca;stroke:#cfccca;stroke-width:0.5"
             inkscape:connector-curvature="0"
             d="m 2425.909,1868.69 c 5.68,-1.56 11.63,-1.11 17.36,-0.05 -1.92,3.45 -3.99,6.82 -5.85,10.32 -3.15,-0.06 -6.28,-0.07 -9.41,-0.09 -0.719,-3.4 -1.449,-6.8 -2.1,-10.18 z"
             id="path10948" />
          <path
             sodipodi:nodetypes="ccccccccccc"
             style="fill:#fefefe;stroke:#fefefe;stroke-width:0.5"
             inkscape:connector-curvature="0"
             d="m 2439.01,1880.53 c 3.38,-1.21 6.8,-2.69 10.46,-2.79 14.6,0.2 29.2,-0.07 43.8,0.13 3.95,0.06 7.92,-0.35 11.81,-1.14 -5.72,31.71 -10.53,63.63 -13.03,95.78 -0.24,2.65 -3.1832,16.7445 -3.1832,16.7445 -13.94,-0.6 -23.4736,3.7107 -37.3236,2.1107 -1.01,-3.83 -4.2732,-21.1852 -5.4232,-24.9452 -4.66,-23.51 -10.04,-46.89 -14.38,-70.47 -0.97,-4.99 3.58,-8.64 5.35,-12.91 0.599,-0.88 1.24,-1.72 1.92,-2.51 z"
             id="path10950" />
          <path
             style="fill:#bcb7b6;stroke:#bcb7b6;stroke-width:0.5"
             inkscape:connector-curvature="0"
             d="m 2428.01,1878.87 c 3.13,0.02 6.26,0.03 9.41,0.09 -0.41,0.79 -0.78,1.63 -1.1,2.5 -1.51,3.11 -3.28,6.09 -5.2,8.97 -1.52,-3.73 -2.411,-7.64 -3.11,-11.56 z"
             id="path10952" />
        </g>
        <rect
           ry="10.101552"
           rx="14.698938"
           y="-498.37482"
           x="-248.35214"
           height="108.55807"
           width="96.268486"
           id="rect11768"
           style="opacity:1;fill:#a2bbcd;fill-opacity:1;stroke:#6b6b6b;stroke-width:1.97600007;stroke-linecap:round;stroke-linejoin:round;stroke-miterlimit:4;stroke-dasharray:none;stroke-opacity:1" />
        <g
           transform="matrix(0.11545148,0,0,0.12152804,-487.09061,-502.99991)"
           id="g10668">
          <path
             style="fill:#110f10;stroke:#110f10;stroke-width:0.5"
             inkscape:connector-curvature="0"
             d="m 2455.649,130.13 c 14.36,-6.58 28.76,-13.23 43.69,-18.41 8.24,1.17 16.09,4.41 24.09,6.73 21.81,7.21 43.23,15.76 63.52,26.59 14.37,7.71 28.31,16.52 40.34,27.64 10.89,10.06 20.43,22.39 24.06,37.02 1.27,4.53 1.03,9.31 1.97,13.91 10.03,37.06 8.18,76.16 2.83,113.82 -2.1,12.63 -4.45,25.28 -8.54,37.44 -2.18,-7 -3,-14.34 -5.13,-21.36 -8.57,-31.34 -25.64,-59.32 -38.22,-89.08 -2.27,-5.05 -3.97,-10.35 -6.7,-15.18 -16.87,8.49 -35.9,11 -54.4,13.38 -17.93,1.99 -35.97,2.9 -54.01,2.87 -21.9,-0.11 -43.86,-1.35 -65.43,-5.26 -12.75,-2.34 -25.46,-5.74 -36.83,-12.1 -1.15,3.41 -1.94,6.92 -2.76,10.43 -3.88,15 -10.48,29.17 -18.74,42.24 -6.62,10.64 -13.6,21.23 -17.74,33.15 -5.61,15.75 -6.53,32.63 -6.7,49.2 -3.85,-16.98 -6.21,-34.29 -8.6,-51.52 -2.52,-19.9 -3.72,-40.02 -2.44,-60.06 1.57,-22.21 6.78,-44.61 18.29,-63.87 7.16,-12.36 16.83,-23.32 28.67,-31.36 9.01,-5.96 17.6,-12.54 26.82,-18.19 16.681,-10.47 34.161,-19.63 51.96,-28.03 z"
             id="path10670" />
          <path
             style="fill:#d6ac7e;stroke:#d6ac7e;stroke-width:0.5"
             inkscape:connector-curvature="0"
             d="m 2384.13,258.57 c 0.82,-3.51 1.61,-7.02 2.76,-10.43 11.37,6.36 24.08,9.76 36.83,12.1 21.57,3.91 43.53,5.15 65.43,5.26 -1,5.34 -1.25,10.85 -0.03,16.19 l -0.82,-0.06 c -35.49,-3.43 -70.44,-11.55 -104.17,-23.06 z"
             id="path10672" />
          <path
             style="fill:#c19c72;stroke:#c19c72;stroke-width:0.5"
             inkscape:connector-curvature="0"
             d="m 2543.159,262.63 c 18.5,-2.38 37.53,-4.89 54.4,-13.38 2.73,4.83 4.43,10.13 6.7,15.18 -8.85,1.9 -17.31,5.28 -26.18,7.09 -29.16,6.56 -59.04,10.52 -88.96,10.17 -1.22,-5.34 -0.97,-10.85 0.03,-16.19 18.04,0.03 36.08,-0.88 54.01,-2.87 z"
             id="path10674" />
          <path
             style="fill:#ebbb8a;stroke:#ebbb8a;stroke-width:0.5"
             inkscape:connector-curvature="0"
             d="m 2384.13,258.57 c 33.73,11.51 68.68,19.63 104.17,23.06 0.34,49.36 0.05,98.73 0.15,148.09 -0.01,53.33 0,106.66 0,159.99 -0.19,20.66 0.36,41.33 -0.26,61.97 -7.96,0.75 -15.95,0.16 -23.92,0.38 -3.6,-0.05 -7.27,0.38 -10.78,-0.45 -4.04,-2.13 -7.03,-5.74 -10.56,-8.55 -6.99,-5.65 -12.86,-12.51 -19.79,-18.21 -5.54,-5.15 -10.66,-10.72 -16.53,-15.47 -6.11,-5.57 -11.52,-11.86 -17.95,-17.06 -5.19,-4.5 -9.56,-9.87 -15.03,-14.03 -6.09,-5.9 -12.2,-11.77 -18.5,-17.44 -2.31,-2.33 -5.69,-4.47 -5.56,-8.14 -0.34,-14.69 -1.85,-29.31 -2.32,-43.99 -1.45,-26.54 -3.21,-53.07 -4.37,-79.63 -0.2,-2.02 -0.34,-4.06 -0.96,-5.96 -2.52,-3.19 -6.12,-5.25 -8.86,-8.2 -7.22,-7.57 -13.42,-16.46 -16.31,-26.61 -2.28,-8.34 -3.3,-17.02 -3.28,-25.65 0.44,-8.17 1.4,-16.76 5.95,-23.79 2.62,-4.54 7.44,-8.09 12.93,-7.24 2.39,17.23 4.75,34.54 8.6,51.52 0.17,-16.57 1.09,-33.45 6.7,-49.2 4.14,-11.92 11.12,-22.51 17.74,-33.15 8.259,-13.07 14.86,-27.24 18.74,-42.24 z"
             id="path10676" />
          <path
             style="fill:#d4a97c;stroke:#d4a97c;stroke-width:0.5"
             inkscape:connector-curvature="0"
             d="m 2578.08,271.52 c 8.87,-1.81 17.33,-5.19 26.18,-7.09 12.58,29.76 29.65,57.74 38.22,89.08 2.13,7.02 2.95,14.36 5.13,21.36 4.09,-12.16 6.44,-24.81 8.54,-37.44 3.67,2.68 4.55,7.41 5.88,11.49 2.93,12.98 1.83,26.56 -1.34,39.39 -3.2,11.82 -10.88,21.89 -19.76,30.07 -2.38,2.21 -4.86,4.81 -4.71,8.31 -2.34,37.02 -4.57,74.04 -7.07,111.06 -0.45,6.03 -0.16,12.32 -1.8,18.14 -5.68,6.61 -12.55,12.08 -18.93,17.98 -2.35,2.47 -5.89,4.85 -5.29,8.76 0.76,11.06 1.33,22.15 1.34,33.24 -7.02,14.91 -15.04,29.36 -23.58,43.45 -13.14,21.43 -28.22,41.91 -46.99,58.78 -6.46,5.07 -13.01,10.1 -20.26,13.98 -4.79,2.65 -9.98,4.45 -14.97,6.63 -3.63,-1.17 -7.3,-2.78 -11.15,-2.59 -4.56,0.86 -8.75,3 -12.99,4.76 -6.97,-1.29 -13.9,-2.98 -20.32,-6.01 -0.99,-0.46 -1.91,-0.92 -2.8,-1.4 0.68,-5.01 -2.17,-9.4 -4.11,-13.76 -14.89,-33.29 -33.63,-64.98 -56.93,-93.09 -5.59,-6.82 -10.91,-13.95 -17.61,-19.73 -0.6,1.78 -1.2,3.56 -1.78,5.36 0.99,-6.81 1.4,-13.69 1.44,-20.55 0.05,-4.5 -0.32,-9.11 1.21,-13.41 5.47,4.16 9.84,9.53 15.03,14.03 6.43,5.2 11.84,11.49 17.95,17.06 5.87,4.75 10.99,10.32 16.53,15.47 6.93,5.7 12.8,12.56 19.79,18.21 3.53,2.81 6.52,6.42 10.56,8.55 3.51,0.83 7.18,0.4 10.78,0.45 7.97,-0.22 15.96,0.37 23.92,-0.38 0.62,-20.64 0.07,-41.31 0.26,-61.97 0,-53.33 -0.01,-106.66 0,-159.99 -0.1,-49.36 0.19,-98.73 -0.15,-148.09 l 0.82,0.06 c 29.92,0.35 59.799,-3.61 88.96,-10.17 z"
             id="path10678" />
          <path
             style="fill:#484877;fill-opacity:1;stroke:#020228;stroke-width:0.5"
             inkscape:connector-curvature="0"
             d="m 2362.439,618.14 c 1.66,-4.3 4.43,-8.14 6.31,-12.37 0.76,2.13 1.51,4.29 2.23,6.48 2.3,8.41 7.41,15.61 11.67,23.12 19.26,31.26 40.51,61.24 61.83,91.12 1.85,2.72 3.85,5.5 6.93,6.98 0.89,0.48 1.81,0.94 2.8,1.4 -0.99,0.47 -1.95,0.96 -2.87,1.46 1.54,1.31 3.15,2.56 4.82,3.78 -0.93,6.17 -2.43,12.35 -1.73,18.65 0.64,6.04 -1.22,11.95 -1.25,17.99 -0.01,2.98 -0.6,6.02 -2.69,8.29 -8.38,-5.33 -15.79,-12 -24,-17.56 -14.27,-10.72 -28.18,-21.93 -42.75,-32.24 -10.78,-8.23 -21.16,-16.99 -32.36,-24.66 -4.64,-3.32 -8.7,-7.38 -13.52,-10.43 -3.1,-2.21 -6.84,-4.06 -8.58,-7.6 0.37,-3.34 2.15,-6.27 3.47,-9.28 8.87,-18.65 16.83,-37.71 25.97,-56.23 1.571,-2.82 3.18,-5.68 3.72,-8.9 z"
             id="path10680" />
          <path
             style="fill:#ebbb8a;stroke:#ebbb8a;stroke-width:0.5"
             inkscape:connector-curvature="0"
             d="m 2372.76,606.89 c 6.7,5.78 12.02,12.91 17.61,19.73 23.3,28.11 42.04,59.8 56.93,93.09 1.94,4.36 4.79,8.75 4.11,13.76 -3.08,-1.48 -5.08,-4.26 -6.93,-6.98 -21.32,-29.88 -42.57,-59.86 -61.83,-91.12 -4.26,-7.51 -9.37,-14.71 -11.67,-23.12 0.58,-1.8 1.179,-3.58 1.78,-5.36 z"
             id="path10682" />
          <path
             style="fill:#484877;fill-opacity:1;stroke:#020228;stroke-width:0.5"
             inkscape:connector-curvature="0"
             d="m 2604.469,615.87 c 0.55,-1.36 1.57,-2.42 2.6,-3.45 2.33,4.3 4.09,8.89 6.23,13.3 2.26,4.75 6.97,7.54 10.27,11.48 -2.01,-0.46 -4.01,-0.84 -5.98,-1.27 4.08,6.74 6.73,14.21 10.24,21.25 4.31,8.77 7.95,17.84 12.33,26.58 1.9,4.97 5.19,9.49 6.11,14.79 -0.85,1.78 -2.49,2.99 -3.95,4.22 -4.76,3.61 -9.51,7.24 -14.56,10.42 -4.05,2.53 -7.38,6.01 -11.28,8.73 -8.46,5.35 -15.91,12.08 -23.86,18.13 -6.43,4.51 -12.11,9.96 -18.49,14.54 -5.52,5.37 -12.67,8.49 -18.43,13.54 -8.02,6.35 -16.83,11.69 -24.25,18.78 -2.17,1.72 -4.81,4.18 -7.75,3.45 -2.38,-6.19 -0.87,-12.95 -1.84,-19.36 -0.72,-4.46 -0.33,-8.95 0.28,-13.38 0.51,-3.13 -1.54,-5.79 -2.12,-8.72 0.99,-3.93 3.87,-7.02 6.23,-10.2 4.28,-5.19 7.09,-11.41 11.51,-16.5 1.94,-2.57 4.89,-5.16 4.1,-8.72 -2.5,1.78 -4.69,4.44 -7.96,4.62 18.77,-16.87 33.85,-37.35 46.99,-58.78 8.54,-14.09 16.56,-28.54 23.58,-43.45 z"
             id="path10684" />
          <path
             sodipodi:nodetypes="ccccccccccccccccccccccccccccccccc"
             style="fill:#2d2a69;fill-opacity:1;stroke:#070534;stroke-width:0.5"
             inkscape:connector-curvature="0"
             d="m 2359.37,614.57 c 0.98,1.19 1.98,2.38 3.07,3.57 -0.54,3.22 -2.15,6.08 -3.72,8.9 -9.14,18.52 -17.1,37.58 -25.97,56.23 -1.32,3.01 -3.1,5.94 -3.47,9.28 1.74,3.54 5.48,5.39 8.58,7.6 4.82,3.05 8.88,7.11 13.52,10.43 11.2,7.67 21.58,16.43 32.36,24.66 14.57,10.31 28.48,21.52 42.75,32.24 8.21,5.56 15.62,12.23 24,17.56 2.09,-2.27 2.68,-5.31 2.69,-8.29 0.03,-6.04 1.89,-11.95 1.25,-17.99 -0.7,-6.3 0.8,-12.48 1.73,-18.65 -1.67,-1.22 -3.28,-2.47 -4.82,-3.78 0.92,-0.5 1.88,-0.99 2.87,-1.46 6.42,3.03 13.35,4.72 20.32,6.01 -5.55,3.23 -11.07,6.95 -14.85,12.23 -2.46,2.97 -0.8,6.92 0.03,10.19 2.69,8.56 5.48,17.21 10.02,25.01 2.03,3.57 5.35,7.21 3.92,11.67 -6.29,31.67 -11.18,63.62 -14.48,95.75 -0.67,7.06 0.074,29.0959 0.4243,36.2159 -47.65,-1.74 -104.6058,13.10825 -151.1158,2.60825 -40.65,-9.37 -96.4231,15.07974 -133.7431,-3.70026 -26.6,-13.64 -56.9129,-12.31293 -77.1129,-34.58293 -2.25,-2.71 23.2975,-96.34096 21.7975,-99.54096 5.56,-17.01 12.91,-33.49 21.69,-49.1 6.53,-12.6 18.02,-21.56 29.15,-29.9 7.95,-5.66 16.36,-10.67 25.16,-14.87 10.17,-4.99 21.07,-8.2 31.56,-12.42 35.02,-13.78 69.89,-28.47 102.32,-47.7 7.65,-4.87 15.72,-9.39 22.18,-15.84 3.439,-3.53 5.89,-7.86 7.89,-12.33 z"
             id="path10686" />
          <path
             sodipodi:nodetypes="cccccccccccccccccccccccccccccccccccccc"
             style="fill:#2d2a69;fill-opacity:1;stroke:#070534;stroke-width:0.5"
             inkscape:connector-curvature="0"
             d="m 2617.59,635.93 c 1.97,0.43 3.97,0.81 5.98,1.27 5.49,3.06 10.28,7.38 15.91,10.32 16.48,9.66 34.47,16.24 52.42,22.56 38.65,14.88 77.15,31.68 110.67,56.36 11.91,9.33 23.81,19.85 30.04,33.97 6.74,16.31 12.57,125.71655 18.21,142.44655 0.42,2.37 2.87,5.53 0.38,7.48 -11.86,10.77 -43.9317,6.56969 -57.6317,14.82969 -33.89,20.24 -50.644,-6.06091 -88.514,4.68909 -60.21,16.84 -117.9371,3.71174 -180.3371,5.69174 l -23.6346,-3.74117 c -0.88,-21.42 14.3774,-57.7459 12.0074,-79.0459 -2.11,-18.1 -4.24,-36.28 -8.9,-53.93 -0.9,-2.31 0.8,-4.33 1.96,-6.15 6.63,-9.61 10,-20.97 13.04,-32.11 0.58,-2.75 1.81,-6.06 -0.31,-8.44 -5.05,-6.6 -12.85,-10.11 -20.21,-13.42 4.99,-2.18 10.18,-3.98 14.97,-6.63 7.25,-3.88 13.8,-8.91 20.26,-13.98 3.27,-0.18 5.46,-2.84 7.96,-4.62 0.79,3.56 -2.16,6.15 -4.1,8.72 -4.42,5.09 -7.23,11.31 -11.51,16.5 -2.36,3.18 -5.24,6.27 -6.23,10.2 0.58,2.93 2.63,5.59 2.12,8.72 -0.61,4.43 -1,8.92 -0.28,13.38 0.97,6.41 -0.54,13.17 1.84,19.36 2.94,0.73 5.58,-1.73 7.75,-3.45 7.42,-7.09 16.23,-12.43 24.25,-18.78 5.76,-5.05 12.91,-8.17 18.43,-13.54 6.38,-4.58 12.06,-10.03 18.49,-14.54 7.95,-6.05 15.4,-12.78 23.86,-18.13 3.9,-2.72 7.23,-6.2 11.28,-8.73 5.05,-3.18 9.8,-6.81 14.56,-10.42 1.46,-1.23 3.1,-2.44 3.95,-4.22 -0.92,-5.3 -4.21,-9.82 -6.11,-14.79 -4.38,-8.74 -8.02,-17.81 -12.33,-26.58 -3.51,-7.04 -6.161,-14.51 -10.24,-21.25 z"
             id="path10688" />
          <path
             sodipodi:nodetypes="ccccccccccccccccc"
             style="fill:#9d9761;fill-opacity:1;stroke:#0b4da1;stroke-width:0.5"
             inkscape:connector-curvature="0"
             d="m 2474.53,740.88 c 4.24,-1.76 8.43,-3.9 12.99,-4.76 3.85,-0.19 7.52,1.42 11.15,2.59 7.36,3.31 15.16,6.82 20.21,13.42 2.12,2.38 0.89,5.69 0.31,8.44 -3.04,11.14 -6.41,22.5 -13.04,32.11 -1.16,1.82 -2.86,3.84 -1.96,6.15 4.66,17.65 6.79,35.83 8.9,53.93 2.37,21.3 2.8557,57.6259 3.7357,79.0459 -5,0.9 -10.09,0.38 -15.13,0.49 -15.08,-0.08 -30.18,0.24 -45.25,-0.35 -0.35,-7.12 2.0543,-29.1559 2.7243,-36.2159 3.3,-32.13 8.19,-64.08 14.48,-95.75 1.43,-4.46 -1.89,-8.1 -3.92,-11.67 -4.54,-7.8 -7.33,-16.45 -10.02,-25.01 -0.83,-3.27 -2.49,-7.22 -0.03,-10.19 3.779,-5.28 9.299,-9 14.85,-12.23 z"
             id="path10690" />
        </g>
        <rect
           style="opacity:1;fill:none;fill-opacity:1;stroke:#6b6b6b;stroke-width:1.97600007;stroke-linecap:round;stroke-linejoin:round;stroke-miterlimit:4;stroke-dasharray:none;stroke-opacity:1"
           id="rect11770"
           width="96.268486"
           height="108.55807"
           x="-248.35214"
           y="-498.37482"
           rx="14.698938"
           ry="10.101552" />
        <rect
           ry="5.9563198"
           rx="5.7769599"
           y="-548.63037"
           x="-273.74799"
           height="304.84158"
           width="469.45605"
           id="rect11772"
           style="opacity:1;fill:none;fill-opacity:1;stroke:#6b6b6b;stroke-width:4.80000019;stroke-linecap:round;stroke-linejoin:round;stroke-miterlimit:4;stroke-dasharray:none;stroke-opacity:1" />
      </g>
      <rect
         x="-178.00659"
         y="373.44553"
         width="34.123199"
         height="24.1824"
         style="color:#000000;fill:#555753;fill-rule:evenodd;stroke:#222728;stroke-width:7.81807995;stroke-linecap:square;stroke-linejoin:round"
         id="rect5149" />
      <rect
         x="-136.07059"
         y="373.44553"
         width="34.123199"
         height="24.1824"
         style="color:#000000;fill:#555753;fill-rule:evenodd;stroke:#222728;stroke-width:7.81807995;stroke-linecap:square;stroke-linejoin:round"
         id="rect5159" />
      <rect
         x="-94.006607"
         y="373.44553"
         width="198.62399"
         height="24.1824"
         style="color:#000000;fill:#555753;fill-rule:evenodd;stroke:#222728;stroke-width:7.81807995;stroke-linecap:square;stroke-linejoin:round"
         id="rect5163" />
      <rect
         x="113.4334"
         y="373.44553"
         width="34.123199"
         height="24.1824"
         style="color:#000000;fill:#555753;fill-rule:evenodd;stroke:#222728;stroke-width:7.81807995;stroke-linecap:square;stroke-linejoin:round"
         id="rect5167" />
      <rect
         x="155.43343"
         y="373.44553"
         width="34.123199"
         height="24.1824"
         style="color:#000000;fill:#555753;fill-rule:evenodd;stroke:#222728;stroke-width:7.81807995;stroke-linecap:square;stroke-linejoin:round"
         id="rect5171" />
      <rect
         x="199.7054"
         y="392.45352"
         width="34.123199"
         height="21.1824"
         style="color:#000000;fill:#555753;fill-rule:evenodd;stroke:#222728;stroke-width:7.81807995;stroke-linecap:square;stroke-linejoin:round"
         id="rect5175" />
      <rect
         x="237.9294"
         y="372.45352"
         width="34.123199"
         height="19.1824"
         style="color:#000000;fill:#555753;fill-rule:evenodd;stroke:#222728;stroke-width:7.81807995;stroke-linecap:square;stroke-linejoin:round"
         id="rect5183" />
      <rect
         x="241.99342"
         y="394.40555"
         width="34.123199"
         height="18.681601"
         style="color:#000000;fill:#555753;fill-rule:evenodd;stroke:#222728;stroke-width:7.81807995;stroke-linecap:square;stroke-linejoin:round"
         id="rect5179" />
      <rect
         x="283.92938"
         y="393.95752"
         width="34.123199"
         height="19.681601"
         style="color:#000000;fill:#555753;fill-rule:evenodd;stroke:#222728;stroke-width:7.81807995;stroke-linecap:square;stroke-linejoin:round"
         id="rect5187" />
      <rect
         x="-219.5074"
         y="373.44553"
         width="34.123199"
         height="24.1824"
         style="color:#000000;fill:#555753;fill-rule:evenodd;stroke:#222728;stroke-width:7.81807995;stroke-linecap:square;stroke-linejoin:round"
         id="rect5191" />
      <rect
         x="-261.50739"
         y="373.44553"
         width="34.123199"
         height="24.1824"
         style="color:#000000;fill:#555753;fill-rule:evenodd;stroke:#222728;stroke-width:7.81807995;stroke-linecap:square;stroke-linejoin:round"
         id="rect5195" />
      <g
         transform="matrix(16,0,0,16,-383.94579,-237.38807)"
         style="color:#000000;fill:#555753;fill-rule:evenodd;stroke:#222728;stroke-width:0.48863;stroke-linecap:square;stroke-linejoin:round"
         id="g5328">
        <rect
           x="8.4952002"
           y="33.123001"
           width="2.1782"
           height="1.5114"
           style="color:#000000;fill:#555753;fill-rule:evenodd;stroke:#222728;stroke-width:0.48863;stroke-linecap:square;stroke-linejoin:round"
           id="rect5330" />
        <rect
           x="10.989"
           y="33.123001"
           width="2.1327"
           height="1.5114"
           style="color:#000000;fill:#555753;fill-rule:evenodd;stroke:#222728;stroke-width:0.48863;stroke-linecap:square;stroke-linejoin:round"
           id="rect5332" />
        <rect
           x="13.475"
           y="33.123001"
           width="2.1327"
           height="1.5114"
           style="color:#000000;fill:#555753;fill-rule:evenodd;stroke:#222728;stroke-width:0.48863;stroke-linecap:square;stroke-linejoin:round"
           id="rect5334" />
        <rect
           x="15.906"
           y="33.123001"
           width="2.1327"
           height="1.5114"
           style="color:#000000;fill:#555753;fill-rule:evenodd;stroke:#222728;stroke-width:0.48863;stroke-linecap:square;stroke-linejoin:round"
           id="rect5336" />
        <rect
           x="18.513"
           y="33.123001"
           width="2.1327"
           height="1.5114"
           style="color:#000000;fill:#555753;fill-rule:evenodd;stroke:#222728;stroke-width:0.48863;stroke-linecap:square;stroke-linejoin:round"
           id="rect5338" />
        <rect
           x="20.988001"
           y="33.123001"
           width="2.1327"
           height="1.5114"
           style="color:#000000;fill:#555753;fill-rule:evenodd;stroke:#222728;stroke-width:0.48863;stroke-linecap:square;stroke-linejoin:round"
           id="rect5340" />
        <rect
           x="23.462999"
           y="33.123001"
           width="2.1327"
           height="1.5114"
           style="color:#000000;fill:#555753;fill-rule:evenodd;stroke:#222728;stroke-width:0.48863;stroke-linecap:square;stroke-linejoin:round"
           id="rect5342" />
        <rect
           x="26.07"
           y="33.123001"
           width="2.1327"
           height="1.5114"
           style="color:#000000;fill:#555753;fill-rule:evenodd;stroke:#222728;stroke-width:0.48863;stroke-linecap:square;stroke-linejoin:round"
           id="rect5344" />
        <rect
           x="28.59"
           y="33.123001"
           width="2.1327"
           height="1.5114"
           style="color:#000000;fill:#555753;fill-rule:evenodd;stroke:#222728;stroke-width:0.48863;stroke-linecap:square;stroke-linejoin:round"
           id="rect5346" />
        <rect
           x="31.063999"
           y="33.123001"
           width="2.1327"
           height="1.5114"
           style="color:#000000;fill:#555753;fill-rule:evenodd;stroke:#222728;stroke-width:0.48863;stroke-linecap:square;stroke-linejoin:round"
           id="rect5348" />
        <rect
           x="33.494999"
           y="33.123001"
           width="2.1327"
           height="1.5114"
           style="color:#000000;fill:#555753;fill-rule:evenodd;stroke:#222728;stroke-width:0.48863;stroke-linecap:square;stroke-linejoin:round"
           id="rect5350" />
        <rect
           x="36.014"
           y="33.123001"
           width="2.1327"
           height="1.5114"
           style="color:#000000;fill:#555753;fill-rule:evenodd;stroke:#222728;stroke-width:0.48863;stroke-linecap:square;stroke-linejoin:round"
           id="rect5352" />
        <rect
           x="38.488998"
           y="33.123001"
           width="2.1327"
           height="1.5114"
           style="color:#000000;fill:#555753;fill-rule:evenodd;stroke:#222728;stroke-width:0.48863;stroke-linecap:square;stroke-linejoin:round"
           id="rect5354" />
        <rect
           x="40.964001"
           y="33.123001"
           width="2.1327"
           height="1.5114"
           style="color:#000000;fill:#555753;fill-rule:evenodd;stroke:#222728;stroke-width:0.48863;stroke-linecap:square;stroke-linejoin:round"
           id="rect5356" />
      </g>
      <path
         inkscape:connector-curvature="0"
         d="m -69.686595,438.98153 -2.288,26.56 176.000005,0 -1.136,-24.608 c -0.256,-4.992 -3.232003,-7.296 -6.864003,-7.392 l -161.136002,0 c -2.304,0.144 -3.808,1.984 -4.576,5.44 z"
         style="color:#000000;opacity:0.75;fill:#555753;fill-rule:evenodd"
         sodipodi:nodetypes="ccccccc"
         id="path5386" />
      <path
         inkscape:connector-curvature="0"
         d="m -69.686595,477.23753 -2.288,-11.696 176.000005,0 -1.136,12.304 c -0.4,3.504 -4.144003,3.264 -6.864003,3.696 l -161.136002,0 c -1.872,0.256 -3.472,-0.8 -4.576,-4.304 z"
         style="color:#000000;opacity:0.75;fill:#555753;fill-rule:evenodd"
         sodipodi:nodetypes="ccccccc"
         id="path5388" />
      <path
         inkscape:connector-curvature="0"
         d="m -334.51859,498.34153 c 1.5744,10.304 0.0544,21.936 14.1424,26.88 l 678.81598,0 c 7.984,-7.616 14.832,-12.528 19.104,-27.584 l -712.06398,0.704 z"
         style="color:#000000;fill:#2e3436;fill-rule:evenodd"
         sodipodi:nodetypes="ccccc"
         id="path5398" />
      <path
         inkscape:connector-curvature="0"
         d="m -247.97459,-92.59126 2.008,222.128 c 113.912,-67.583996 425.504,-103.311996 541.984,-106.399996 l 0,-117.600004 -544,1.8672 z"
         style="color:#000000;opacity:0.528;fill:url(#linearGradient5418);fill-rule:evenodd;filter:url(#filter12270)"
         sodipodi:nodetypes="ccccc"
         id="path5410" />
      <path
         inkscape:connector-curvature="0"
         d="m -333.31699,497.54153 710.33598,0 c 0,9.904 -7.808,16 -14.992,16 l -676.33598,0 c -14.696,0 -19.0064,-16 -19.0064,-16 z"
         style="color:#000000;opacity:0.12000002;fill:#eeeeec;fill-rule:evenodd"
         sodipodi:nodetypes="ccccc"
         id="rect5496" />
      <path
         inkscape:connector-curvature="0"
         d="m 103.97741,497.63753 0.048,17.184 c 0,3.056 -2.464,5.52 -5.520003,5.52 l -164.960002,0 c -3.056,0 -5.52,-2.464 -5.52,-5.52 l 0,-17.312 175.952005,0.128 z"
         style="color:#000000;opacity:0.61493997;fill:#000000;fill-rule:evenodd"
         sodipodi:nodetypes="ccccccc"
         id="rect5733" />
      <rect
         x="19.0334"
         y="488.34152"
         width="85"
         height="16"
         ry="5.52704"
         rx="2.51232"
         style="color:#000000;opacity:0.27308003;fill:#808285;fill-rule:evenodd"
         id="rect5466" />
      <rect
         x="-71.974594"
         y="488.34152"
         width="87"
         height="16"
         ry="5.52704"
         rx="2.51232"
         style="color:#000000;opacity:0.27308003;fill:#808285;fill-rule:evenodd"
         id="rect3766" />
      <path
         inkscape:connector-curvature="0"
         d="m -63.958595,405.78153 -2.352,20.688 74.3360023,0 -0.496,-19.168 c -0.112,-3.888 -1.424,-5.68 -3.008,-5.76 l -66.4640023,0 c -1.008,0.112 -1.664,1.552 -2.016,4.24 z"
         style="color:#000000;opacity:0.27000002;fill:#888a85;fill-rule:evenodd"
         sodipodi:nodetypes="ccccccc"
         id="path4778" />
      <path
         inkscape:connector-curvature="0"
         d="m 97.865407,405.78153 2.464003,20.688 -77.008003,0 0.512,-19.168 c 0.112,-3.888 1.472,-5.68 3.12,-5.76 l 68.848,0 c 1.04,0.112 1.728,1.552 2.064,4.24 z"
         style="color:#000000;opacity:0.27000002;fill:#888a85;fill-rule:evenodd"
         sodipodi:nodetypes="ccccccc"
         id="path4780" />
      <ellipse
         ry="8.0001354"
         rx="15.999812"
         cy="369.54504"
         cx="16.017591"
         style="fill:#555753;fill-opacity:0.75;fill-rule:evenodd;stroke:#3465a4;stroke-width:16.00004578px"
         id="path4782" />
      <rect
         x="7.0333991"
         y="401.54153"
         width="17.499201"
         height="24"
         ry="5.52704"
         rx="2.51232"
         style="color:#000000;opacity:0.61922996;fill:#808285;fill-rule:evenodd"
         id="rect3781" />
      <ellipse
         ry="16.222717"
         rx="17.093691"
         cy="-135.78777"
         cx="47.642162"
         id="path9078"
         style="opacity:0.553;fill:#000000;fill-opacity:1;stroke:#6b6b6b;stroke-width:3.70970249;stroke-linecap:round;stroke-linejoin:round;stroke-miterlimit:4;stroke-dasharray:none;stroke-opacity:1" />
      <ellipse
         style="opacity:1;fill:#c04e4e;fill-opacity:1;stroke:#6b6b6b;stroke-width:1.00147593;stroke-linecap:round;stroke-linejoin:round;stroke-miterlimit:4;stroke-dasharray:none;stroke-opacity:1"
         id="ellipse9080"
         cx="73.738182"
         cy="-145.3685"
         rx="4.4789357"
         ry="4.5121908" />
    </g>
  </g>
  <metadata
     id="metadata8536">
    <rdf:RDF>
      <cc:Work>
        <dc:format>image/svg+xml</dc:format>
        <dc:type
           rdf:resource="http://purl.org/dc/dcmitype/StillImage" />
        <cc:license
           rdf:resource="http://creativecommons.org/publicdomain/zero/1.0/" />
        <dc:publisher>
          <cc:Agent
             rdf:about="http://openclipart.org/">
            <dc:title>Openclipart</dc:title>
          </cc:Agent>
        </dc:publisher>
        <dc:title>Laptop</dc:title>
        <dc:date>2011-09-09T08:54:44</dc:date>
        <dc:description>An opened laptop, front view, influenced by Tango project guidelines</dc:description>
        <dc:source>https://openclipart.org/detail/159709/laptop-by-b.gaultier</dc:source>
        <dc:creator>
          <cc:Agent>
            <dc:title>b.gaultier</dc:title>
          </cc:Agent>
        </dc:creator>
        <dc:subject>
          <rdf:Bag>
            <rdf:li>black</rdf:li>
            <rdf:li>computer</rdf:li>
            <rdf:li>grey</rdf:li>
            <rdf:li>laptop</rdf:li>
            <rdf:li>tango</rdf:li>
          </rdf:Bag>
        </dc:subject>
      </cc:Work>
      <cc:License
         rdf:about="http://creativecommons.org/publicdomain/zero/1.0/">
        <cc:permits
           rdf:resource="http://creativecommons.org/ns#Reproduction" />
        <cc:permits
           rdf:resource="http://creativecommons.org/ns#Distribution" />
        <cc:permits
           rdf:resource="http://creativecommons.org/ns#DerivativeWorks" />
      </cc:License>
    </rdf:RDF>
  </metadata>
</svg>
