<?xml version="1.0" encoding="UTF-8"?>
<!DOCTYPE svg PUBLIC "-//W3C//DTD SVG 1.1//EN" "http://www.w3.org/Graphics/SVG/1.1/DTD/svg11.dtd">
<svg version="1.1" xmlns="http://www.w3.org/2000/svg" xmlns:xlink="http://www.w3.org/1999/xlink" x="0" y="0" width="685.086" height="635.821" viewBox="0, 0, 685.086, 635.821">
  <g id="Layer_1">
    <g id="_301670624">
      <path d="M259.643,278.316 C260.939,278.316 262.451,278.1 263.747,277.884 C268.499,276.372 271.523,274.212 273.683,271.404 C280.379,265.573 284.699,256.501 279.515,248.725 C274.763,240.733 265.691,236.629 258.347,238.573 C254.244,237.493 247.332,236.845 239.124,242.677 C233.076,248.077 230.7,258.877 235.884,268.381 C239.772,276.588 250.14,280.044 259.643,278.316 z M166.334,255.205 L166.334,255.205 C157.046,250.453 144.95,254.773 142.574,261.685 C141.279,261.037 135.879,260.173 127.887,261.037 C119.895,260.173 100.024,270.972 108.447,288.252 C113.631,299.7 126.159,302.508 134.799,299.916 C134.367,302.508 134.799,306.18 139.119,309.635 C146.678,314.819 160.07,315.251 171.734,308.555 C180.805,303.372 185.125,291.708 181.669,284.148 C181.669,282.852 181.453,281.556 181.021,280.26 C182.317,279.18 183.397,277.236 183.829,273.996 C182.965,266.221 176.054,259.093 166.55,255.205 z M310.186,307.691 L310.186,307.691 C308.242,307.26 306.298,307.044 304.57,307.044 C304.138,302.076 298.09,289.548 282.107,289.98 C275.411,289.764 270.659,291.924 267.203,294.732 C263.747,292.572 255.539,289.548 245.82,292.572 C233.724,295.812 229.62,305.748 229.62,308.771 C228.324,308.771 227.028,308.555 225.732,308.555 C213.205,306.612 184.909,316.763 188.797,343.115 C190.957,364.714 210.829,380.266 225.948,376.81 C225.948,376.81 225.948,377.026 225.948,377.026 C225.3,377.458 225.3,379.186 226.164,381.346 C226.596,383.937 227.676,386.961 230.484,390.417 C236.964,398.625 252.084,401.865 266.123,398.841 C274.763,397.329 282.323,393.657 288.155,389.121 C292.043,390.201 298.09,391.065 305.866,390.417 C320.122,389.985 340.857,375.082 341.073,351.538 C341.721,327.995 324.01,311.795 310.402,307.691 z M319.69,257.149 L319.69,257.149 C319.69,257.797 319.69,258.445 319.69,259.309 C320.77,269.892 341.073,266.653 339.993,253.045 C339.345,236.629 317.962,242.893 319.69,251.317 C319.474,253.693 319.474,255.421 319.69,256.933 z M582.987,232.093 L582.987,232.093 C583.203,232.093 583.419,232.093 583.635,232.093 C585.579,232.309 587.739,232.309 589.899,232.525 C592.923,234.253 596.379,235.549 600.05,236.413 C606.53,238.357 614.09,238.573 621.65,237.061 C640.009,234.253 659.233,223.238 671.113,205.31 C684.936,189.327 688.176,166.215 680.832,149.368 C673.272,132.52 660.097,121.288 647.569,115.889 C635.689,110.705 623.81,111.353 617.33,115.889 C617.114,115.889 616.898,116.105 616.466,116.105 C620.138,100.553 612.146,78.738 594.651,65.562 C575.427,49.146 550.588,46.338 535.036,50.226 C528.34,52.17 523.372,54.762 519.701,56.922 C522.724,53.034 525.1,46.77 522.292,37.483 C512.789,20.851 486.221,11.347 459.222,15.667 C431.143,22.147 416.671,47.634 415.159,65.13 C414.727,78.522 422.287,83.057 427.471,84.353 C420.775,85.649 415.591,88.889 413.215,91.265 C411.703,89.321 409.975,87.593 408.031,86.513 C407.599,86.297 407.383,86.297 406.952,86.081 C406.952,85.865 406.952,85.865 406.952,85.649 C408.031,83.057 410.407,69.45 401.768,61.458 C397.448,56.058 392.048,54.762 389.024,54.546 C385.568,48.93 379.952,43.53 372.392,40.723 C370.448,39.859 368.721,39.427 366.777,38.779 C365.481,30.571 356.409,10.051 330.922,4.004 C323.794,1.844 317.314,1.196 311.482,1.412 C303.706,0.332 297.442,1.412 292.043,5.947 C291.827,6.163 291.611,6.379 291.611,6.595 C290.099,7.243 288.803,8.107 287.507,8.755 C285.779,8.971 284.051,9.619 282.971,10.699 C282.323,11.131 281.891,11.779 281.675,12.427 C281.027,12.211 280.379,12.427 279.947,12.859 C279.299,13.507 278.435,13.723 277.571,13.723 C277.139,13.723 276.923,13.723 276.491,13.507 C276.059,13.507 275.843,13.507 275.627,13.507 C268.715,10.699 259.427,8.755 248.196,10.267 C226.812,13.507 216.229,28.843 214.717,32.515 C206.077,30.571 195.709,30.571 184.261,34.459 C167.63,39.211 154.67,50.874 151.646,62.322 C149.486,70.098 150.35,75.714 151.43,78.306 C145.166,79.17 138.039,80.897 130.263,84.137 C98.944,95.801 81.664,149.368 106.719,191.919 C132.423,235.333 185.989,241.597 213.421,228.206 C221.628,224.534 228.972,220.43 234.372,215.894 C238.044,219.134 247.548,224.102 260.075,222.158 C261.371,222.158 262.667,221.942 263.747,221.726 C269.363,225.83 287.723,235.117 312.13,233.389 C327.034,232.525 339.993,223.238 343.233,213.518 C345.393,207.47 345.609,202.934 345.393,200.342 C358.353,197.534 373.256,186.951 381.032,170.535 C384.92,162.975 386.864,154.768 387.08,146.992 C389.456,146.776 392.912,145.696 397.016,143.752 C397.448,147.424 398.528,150.88 400.256,154.12 C403.496,164.703 415.159,174.639 427.687,179.823 C434.599,183.063 441.295,184.791 447.774,185.439 C446.478,186.735 445.398,188.895 444.966,191.919 C444.966,192.567 445.182,193.215 445.182,193.863 C445.182,194.294 444.966,194.726 444.966,195.374 C445.614,200.558 448.206,204.446 451.662,207.686 C451.23,208.118 451.014,208.334 450.798,208.766 C450.15,208.982 449.502,209.198 448.638,209.414 C442.159,211.79 437.623,222.59 439.999,233.821 C442.591,259.957 478.23,275.292 511.493,275.508 C546.7,276.588 576.291,254.341 582.771,231.662 z M106.071,210.926 L106.071,210.926 C101.752,203.15 94.408,199.262 87.28,197.966 C86.848,197.75 86.632,197.75 86.2,197.534 C84.904,192.567 79.72,182.199 66.112,178.311 C52.289,173.775 41.057,179.607 37.817,182.415 C36.737,181.983 35.657,181.551 34.577,180.903 C29.825,178.959 22.914,177.447 15.786,180.471 C8.658,183.711 4.338,191.919 3.69,200.126 C2.394,209.414 6.066,218.486 11.898,223.886 C6.93,223.886 -0.414,228.422 0.018,237.061 C0.018,237.925 0.018,238.789 0.234,239.653 C0.018,240.949 0.018,242.245 0.018,243.541 C-0.198,250.885 5.634,261.037 14.706,266.869 C22.482,274.212 33.281,279.612 46.241,279.612 C65.033,280.908 85.768,271.404 92.464,257.797 C94.408,257.581 96.352,257.149 98.296,256.501 C100.888,255.853 104.127,254.557 107.367,251.749 C107.799,251.317 108.231,250.885 108.663,250.237 C108.879,250.021 109.095,250.021 109.311,249.805 C114.927,245.053 115.575,237.493 113.847,231.446 C113.199,224.318 110.607,216.974 106.071,210.494 z M665.713,346.354 L665.713,346.354 C665.713,346.354 665.713,346.138 665.713,346.138 C665.713,344.843 665.281,343.547 665.065,342.251 C665.065,342.251 665.065,342.035 665.065,342.035 C664.849,338.579 663.769,334.691 661.177,331.019 C659.449,328.427 657.289,326.699 654.913,325.619 C655.129,325.187 655.561,324.755 655.777,324.107 C658.153,320.003 657.937,315.035 656.857,311.147 C657.073,304.884 655.129,297.972 649.513,293.004 C643.033,286.092 634.826,282.42 627.266,281.556 C625.538,280.044 622.946,279.18 619.274,279.612 C616.034,280.26 613.658,281.988 612.362,283.716 C609.986,284.796 608.258,286.308 607.178,287.388 C598.106,283.068 585.579,282.636 574.563,286.74 C565.491,289.764 557.068,297.108 555.772,306.396 C554.26,315.467 558.796,322.595 562.035,327.563 C563.115,328.859 563.979,329.939 564.843,331.019 C563.547,332.315 560.307,336.419 558.58,343.979 C555.556,353.05 560.091,368.602 572.835,376.594 C577.371,379.618 582.339,381.778 587.091,383.074 C594.651,386.961 606.53,386.745 616.682,381.778 C618.626,380.914 620.354,379.834 622.082,378.754 C622.946,378.97 623.81,379.186 624.89,379.402 C633.53,383.289 645.841,382.426 654.697,374.65 C664.633,366.874 666.577,355.858 665.497,346.57 z M532.228,287.82 L532.228,287.82 C527.476,283.932 514.301,275.508 504.797,288.684 C504.365,304.884 519.917,306.18 526.18,305.964 C534.388,305.316 536.116,298.62 535.252,299.052 C534.388,298.62 532.444,302.724 525.964,302.292 C520.565,302.508 508.901,297.54 509.765,290.412 C513.437,284.148 525.748,287.388 529.852,290.844 C535.252,294.516 534.388,298.836 535.252,299.052 C535.684,299.916 538.492,293.436 532.228,288.036 z M594.219,253.477 L594.219,253.477 C592.059,249.589 581.691,245.485 576.723,254.989 C574.995,265.357 585.579,268.381 589.683,266.653 C594.867,264.925 594.867,260.821 594.435,260.821 C595.299,261.685 582.339,266.437 581.691,256.501 C588.171,249.157 595.515,260.605 594.435,260.821 C594.867,261.253 597.242,258.013 594.219,253.477 z M565.059,280.476 L565.059,280.476 C562.899,276.588 552.532,272.484 547.564,281.988 C545.836,292.356 556.42,295.38 560.523,293.652 C565.707,291.924 565.707,287.604 565.275,287.82 C566.139,288.684 553.18,293.436 552.532,283.5 C559.011,276.156 566.355,287.604 565.275,287.82 C565.707,288.252 568.083,285.012 565.059,280.476 z M325.306,279.396 L325.306,279.396 C323.578,289.764 334.161,292.788 338.265,291.06 C343.449,289.332 343.449,285.012 343.017,285.228 C343.881,286.092 330.922,290.844 330.274,280.908 C336.753,273.564 344.097,285.012 343.017,285.228 C343.449,285.66 345.825,282.42 342.801,277.884 C340.641,273.996 330.274,269.892 325.306,279.396 z M349.065,217.622 L349.065,217.622 C348.417,229.718 359.649,230.798 363.969,230.15 C369.8,229.286 370.664,224.318 369.8,224.534 C368.936,224.318 367.641,226.694 363.537,226.478 C360.081,226.694 353.169,223.022 354.033,219.35 C355.545,215.894 363.321,217.19 365.913,219.35 C369.152,221.51 368.936,224.318 369.8,224.534 C370.232,225.182 372.608,220.862 368.505,216.542 C365.481,213.302 355.761,207.47 349.065,217.406 z M406.52,286.956 L406.52,286.956 C404.36,285.876 402.2,285.444 399.824,285.444 C399.608,285.444 399.392,285.444 398.96,285.444 C397.88,285.444 397.016,286.524 397.232,287.604 C397.232,288.684 398.312,289.548 399.392,289.332 C399.608,289.332 399.824,289.332 399.824,289.332 C401.552,289.332 403.28,289.764 404.792,290.412 C405.008,290.628 405.44,290.628 405.656,290.628 C406.304,290.628 407.168,290.196 407.383,289.548 C407.815,288.684 407.383,287.388 406.52,286.956 z M424.663,301.212 L424.663,301.212 C424.879,301.212 425.311,300.996 425.527,300.996 C426.607,300.78 427.255,299.7 426.823,298.62 C426.607,297.54 425.527,296.892 424.447,297.324 C422.503,297.756 420.559,298.404 418.831,299.484 C417.967,299.484 417.103,299.484 416.239,299.484 C415.375,299.484 414.727,299.916 414.511,300.78 C414.079,302.076 413.863,303.156 413.863,304.452 C413.863,305.316 414.079,306.18 414.295,307.044 C414.295,307.26 414.295,307.475 414.295,307.691 C414.079,308.555 414.727,309.419 415.591,309.851 C416.023,310.715 416.671,311.363 417.319,312.227 C417.751,312.659 418.183,312.875 418.831,312.875 C419.263,312.875 419.695,312.659 420.127,312.443 C420.559,312.011 420.775,311.579 420.775,311.147 C420.991,311.147 421.207,311.147 421.423,311.147 C423.583,311.147 425.311,310.067 428.335,308.123 C429.199,307.475 429.415,306.396 428.767,305.532 C427.687,303.804 426.391,302.508 424.879,301.644 z" fill="#FEFEFE" id="path21135"/>
      <g id="g21265">
        <g id="g21243">
          <path d="M246.9,257.365 C237.828,261.469 244.092,281.556 263.963,277.668 C280.811,272.484 279.299,256.285 270.875,252.829 C262.451,249.589 254.244,243.973 255.971,245.917 C256.619,248.725 256.187,249.373 256.187,249.373 C254.676,251.965 250.572,254.125 246.9,257.365 z M450.582,71.178 L450.582,71.178 C450.798,71.178 451.23,71.178 451.446,71.178 C455.334,73.986 461.814,76.578 469.59,77.01 C467.43,80.466 467.43,83.273 469.374,83.705 C473.478,85.433 485.357,75.282 504.797,80.034 C531.364,86.297 513.437,115.673 513.437,118.265 C513.221,120.208 537.844,124.312 545.188,103.145 C548.86,92.561 540.652,77.226 533.956,73.122 C530.5,70.098 526.828,67.938 522.94,66.21 C520.781,64.698 518.405,63.618 516.245,62.538 C519.053,60.594 516.677,61.674 519.269,57.57 C533.524,43.314 502.637,8.107 459.006,20.635 C459.438,23.227 466.566,23.443 475.854,26.251 C486.221,28.195 490.973,37.699 483.845,44.826 C474.558,53.682 459.654,58.434 451.014,59.514 C441.727,61.026 438.487,56.922 435.895,57.57 C432.871,57.354 435.895,69.882 450.366,71.61 z M244.524,364.714 L244.524,364.714 C251.436,357.37 252.516,351.106 251.22,350.458 C249.06,346.354 231.78,372.274 213.421,358.45 C195.061,342.683 209.749,320.003 206.725,318.923 C205.861,317.843 199.813,320.867 195.493,330.371 C191.389,339.659 191.821,357.37 205.429,368.602 C219.9,380.914 239.124,372.49 244.524,364.93 z M306.514,309.851 L306.514,309.851 C293.77,309.203 289.883,315.467 290.099,316.763 C290.531,319.571 297.658,318.707 303.274,321.515 C307.81,322.811 308.458,332.531 306.082,345.059 C305.434,348.082 304.57,350.89 303.274,353.266 C302.842,351.106 302.194,348.946 301.114,347.002 C294.85,334.907 283.835,330.587 279.299,331.883 C275.195,330.803 271.739,332.531 272.603,333.611 C272.819,336.419 277.787,338.147 277.571,344.843 C278.219,350.89 274.763,366.226 268.931,371.41 C261.371,377.242 247.116,379.402 239.988,379.402 C232.212,379.618 228.756,376.162 226.164,377.026 C223.788,377.026 225.3,387.393 237.396,391.281 C248.628,394.521 263.531,396.033 279.947,384.585 C281.891,382.426 283.403,380.482 284.699,378.322 C287.075,378.538 289.883,378.538 293.122,378.106 C303.49,377.026 319.906,366.442 322.93,348.73 C324.874,340.307 324.658,333.395 322.714,325.403 C321.418,317.411 312.778,310.283 306.514,309.851 z M173.246,273.564 L173.246,273.564 C157.694,269.893 154.886,258.013 147.542,261.037 C139.767,263.413 132.855,274.86 132.639,289.116 C132.207,303.156 145.814,314.819 162.23,310.067 C180.157,307.26 189.661,277.236 173.462,273.564 z M107.799,223.238 L107.799,223.238 C107.367,222.806 107.151,222.158 106.719,221.726 C106.719,221.51 106.503,221.51 106.503,221.294 C105.855,220.43 105.207,219.782 104.559,219.134 C102.184,206.606 92.464,197.318 82.744,196.886 C81.88,194.295 80.584,191.487 78.64,188.463 C75.4,184.575 71.944,181.983 68.488,180.255 C68.488,180.255 68.272,180.039 68.272,180.039 C68.056,180.039 68.056,179.823 67.84,179.823 C66.112,178.959 64.385,178.311 62.873,178.095 C49.049,174.207 40.841,180.255 41.057,183.711 C40.841,188.679 52.937,191.271 60.065,194.942 C63.305,196.022 65.464,199.694 67.84,202.934 C58.985,205.094 53.585,211.79 57.041,213.734 C58.121,214.382 59.417,214.814 61.145,215.246 C61.145,215.462 60.929,215.894 60.929,216.326 C60.929,216.758 60.929,217.19 61.145,217.622 C55.745,217.622 52.937,220.43 53.369,221.078 C53.369,223.886 60.281,224.75 64.817,229.934 C69.136,235.117 70,246.349 62.009,250.885 C55.529,254.989 49.481,257.149 44.081,258.445 C39.113,257.581 33.497,256.285 28.097,254.125 C11.034,248.725 11.034,231.446 5.85,230.582 C3.906,230.366 0.45,234.685 0.666,243.541 C0.45,252.397 8.874,265.573 21.618,269.893 C25.29,271.188 28.745,272.052 31.985,272.484 C37.601,273.78 44.081,273.996 50.777,272.7 C54.881,276.588 72.808,277.668 87.496,263.197 C89.224,261.685 90.952,259.957 92.248,257.797 C97.432,257.581 103.695,255.421 109.959,249.805 C119.679,241.813 114.495,224.75 108.231,222.806 z M661.177,331.019 L661.177,331.019 C657.937,326.267 653.401,324.323 648.649,323.891 C650.161,321.731 651.457,319.571 652.753,316.979 C657.073,296.028 639.145,286.524 629.858,285.66 C629.21,281.988 625.754,278.748 619.274,279.396 C614.09,280.476 611.498,283.716 610.85,286.74 C607.61,286.956 605.666,288.252 605.45,289.332 C605.45,294.948 620.786,299.484 609.338,312.659 C599.834,326.699 584.931,326.483 583.203,330.587 C579.963,334.259 595.947,341.603 611.066,333.395 C611.498,333.827 611.714,334.259 612.146,334.475 C609.122,336.419 607.394,337.931 607.826,339.227 C607.394,340.523 610.202,342.035 614.954,342.251 C613.226,346.57 606.53,354.562 597.458,356.29 C586.011,359.098 574.995,357.802 570.675,354.13 C566.139,350.026 566.139,343.115 563.115,342.899 C562.035,342.467 555.34,348.298 560.739,361.042 C564.411,367.522 570.891,371.41 578.667,373.138 C579.099,375.514 581.259,378.754 586.011,381.778 C593.571,386.529 606.314,386.529 617.114,381.13 C620.57,379.618 623.594,377.674 626.186,375.514 C628.994,375.946 632.018,375.946 634.826,375.298 C639.145,377.458 645.841,377.89 652.969,372.922 C659.017,367.738 660.529,361.69 660.097,357.154 C660.529,356.29 660.745,355.426 660.961,354.346 C664.849,349.594 667.657,339.659 660.961,330.587 z M408.031,130.576 L408.031,130.576 C408.031,130.576 408.031,130.576 408.031,130.792 C408.247,130.792 408.247,130.792 408.031,130.576 z M46.889,208.118 L46.889,208.118 C51.209,208.982 56.177,205.958 57.689,201.422 C59.201,196.886 54.881,192.135 47.969,191.055 C40.841,191.271 35.873,195.59 36.953,200.126 C38.033,204.662 42.353,208.55 46.889,208.118 z M519.701,274.212 L519.701,274.212 C543.244,271.836 566.787,261.901 574.995,244.837 C577.371,239.869 578.451,235.333 578.667,231.446 C580.395,231.662 581.907,232.094 583.635,232.094 C586.227,232.309 588.603,232.525 591.411,232.525 C592.275,232.957 593.355,233.389 594.219,233.821 C613.01,244.189 643.033,234.037 662.689,213.518 C684.936,192.783 685.152,158.655 673.488,143.104 C668.953,136.408 664.417,131.872 660.529,129.064 C658.153,126.256 655.345,123.88 652.321,121.936 C645.193,118.049 638.929,116.537 633.745,116.105 C625.106,113.297 618.41,114.809 614.09,117.185 C614.522,115.673 615.17,114.161 615.386,112.433 C619.058,81.329 598.106,66.426 589.467,68.37 C583.635,59.73 575.427,53.898 568.515,51.738 C556.852,48.282 549.724,50.874 549.724,52.818 C549.076,57.354 575.859,62.538 580.179,90.185 C586.443,118.912 560.955,127.12 561.387,131.008 C561.387,132.304 565.707,134.464 572.835,132.736 C571.971,135.976 571.755,138.784 572.835,141.376 C573.915,148.72 599.402,149.152 611.282,123.664 C612.578,123.448 614.522,123.232 616.466,123.016 C621.65,129.064 640.441,141.592 627.05,163.839 C621.866,173.991 613.658,181.551 606.746,186.087 C612.146,176.583 612.146,168.159 609.554,168.375 C604.802,166.863 595.731,185.871 573.051,191.919 C555.988,197.534 545.188,192.999 538.924,189.759 C541.732,183.495 541.084,177.447 537.844,177.663 C535.036,177.663 532.444,179.175 528.988,181.119 C526.396,181.983 523.156,183.279 519.701,184.575 C519.917,184.359 519.917,184.143 519.917,183.927 C526.18,177.663 527.908,170.103 525.1,167.727 C526.828,166.215 528.34,164.703 529.636,162.975 C534.388,158.007 536.98,151.96 536.764,146.776 C537.628,144.4 538.06,142.024 537.844,139.432 C535.9,129.712 530.5,128.416 528.988,129.28 C528.124,129.712 527.692,130.576 527.476,131.656 C523.156,133.816 513.437,142.672 493.133,142.672 C477.798,143.752 466.998,138.568 460.734,135.976 C459.222,133.816 458.358,131.872 456.414,130.576 C454.47,129.928 450.15,132.736 450.15,140.944 C450.15,142.888 450.582,145.048 451.446,146.992 C451.446,147.424 451.23,148.072 451.23,148.504 C451.23,148.504 451.23,148.504 451.23,148.504 C444.103,148.936 434.383,148.936 423.583,145.264 C412.567,142.456 408.463,135.976 406.52,130.36 C406.52,130.36 406.736,130.144 406.736,129.928 C406.951,129.712 406.951,129.496 407.167,129.496 C407.167,129.496 407.167,129.496 407.167,129.496 C408.031,127.984 408.895,126.256 409.543,124.528 C414.943,110.921 421.423,102.497 412.783,92.777 C406.951,86.297 406.951,86.297 406.951,86.297 C406.951,86.297 406.951,72.258 404.36,67.074 C401.768,61.89 384.272,52.602 384.272,52.602 C384.272,52.602 376.064,43.098 366.777,40.075 C365.265,37.267 351.657,11.563 333.945,6.163 C315.154,0.332 301.546,-3.556 292.043,4.868 C287.075,9.187 334.593,3.572 339.777,38.563 C340.425,40.507 354.681,34.459 365.697,39.859 C364.185,39.427 362.673,39.211 361.161,39.211 C349.497,39.211 336.537,41.155 336.537,41.155 C336.537,41.155 365.049,43.746 367.641,60.594 C370.232,77.442 357.273,94.937 337.833,101.201 L337.833,101.417 C338.481,98.609 337.833,98.609 337.833,98.609 C337.833,98.609 332.649,79.17 322.066,73.338 C310.186,66.858 303.706,67.506 296.794,69.018 C296.794,69.018 330.058,83.057 318.394,103.793 C309.754,119.344 295.714,118.697 295.714,118.697 C295.714,118.697 305.65,137.056 332.649,114.809 C338.697,117.617 360.729,129.712 353.169,153.472 C347.769,170.751 330.273,173.559 324.226,173.991 C325.306,171.183 325.954,168.375 325.954,164.919 C326.602,135.112 307.81,131.872 307.81,131.872 C307.81,131.872 309.106,167.511 270.443,175.071 C241.932,180.687 226.596,151.744 226.596,151.744 C207.805,169.239 184.045,156.927 184.045,156.927 C184.045,156.927 189.229,171.183 202.189,176.367 C203.917,177.015 205.645,177.663 207.373,177.879 C207.805,179.607 209.749,192.783 189.229,204.878 C149.27,225.614 107.799,190.623 115.575,199.694 C132.423,219.134 165.902,240.949 209.965,225.614 C219.252,222.374 226.38,217.622 231.564,212.438 C234.156,214.814 241.932,220.43 256.403,220.43 C261.155,220.43 263.963,220.43 265.475,220.214 C264.611,219.566 264.179,219.134 264.179,219.134 C264.179,219.134 269.795,219.782 265.475,220.214 C271.091,224.75 295.066,240.949 324.874,225.614 C347.553,213.95 343.017,197.102 343.017,197.102 C343.017,197.102 368.936,190.623 376.712,172.479 C384.488,154.336 385.568,144.616 385.568,144.616 C385.568,144.616 390.32,143.752 395.936,140.512 C395.936,140.728 396.152,140.944 396.152,141.376 C397.232,152.824 405.008,162.327 415.807,170.103 C425.311,176.367 435.247,178.743 444.534,178.959 C446.262,179.391 447.99,179.607 449.934,179.823 C450.366,179.823 450.582,179.823 451.014,180.039 C450.582,181.983 450.582,183.927 450.582,185.655 C448.422,185.439 444.75,187.383 444.534,194.295 C445.182,199.478 447.774,203.366 451.23,206.606 C449.718,207.902 448.638,209.198 447.99,210.71 C447.342,211.142 446.694,211.358 445.83,212.006 C441.511,215.462 439.999,223.67 442.159,231.446 C442.591,234.037 443.671,236.629 445.614,239.437 C446.478,244.189 449.934,251.533 458.574,257.797 C472.182,267.733 493.565,274.644 519.053,272.7 z M564.411,225.83 L564.411,225.83 C564.627,226.046 564.843,226.046 565.059,226.262 C564.627,227.126 564.195,227.99 563.547,228.854 C563.979,227.774 564.195,226.91 564.411,225.83 z M546.916,207.902 L546.916,207.902 C546.916,208.118 546.7,208.334 546.7,208.55 C546.7,208.55 546.484,208.55 546.484,208.55 C546.484,208.118 546.268,207.902 546.268,207.47 C546.484,207.47 546.7,207.686 546.916,207.686 z M456.198,159.951 L456.198,159.951 C456.198,159.951 456.198,159.951 456.198,159.951 C456.198,159.951 456.198,159.951 456.198,159.951 C456.198,159.951 456.198,159.951 456.198,159.951 z" fill="#C1C2C2" id="path21137"/>
          <g id="g21143">
            <path d="M554.476,213.95 C554.26,213.734 554.26,213.518 554.044,213.302 C554.26,213.302 554.476,213.302 554.692,213.518 C554.476,213.734 554.476,213.95 554.476,213.95 z" fill="#818182" id="path21139"/>
            <path d="M555.988,217.622 C555.772,216.758 555.34,215.894 555.124,215.246 C555.556,215.678 555.988,216.326 556.635,216.974 C556.419,217.19 556.204,217.406 555.988,217.838 z" fill="#818182" id="path21141"/>
          </g>
          <path d="M384.704,57.786 C379.088,62.97 379.52,71.61 380.6,78.306 C381.464,85.433 383.624,94.505 390.968,97.529 C397.232,100.337 409.327,91.913 408.031,75.282 C404.792,58.434 389.456,53.034 384.92,57.786 z" fill="#818182" id="path21145"/>
          <path d="M342.585,196.886 C344.529,189.111 342.801,183.279 340.209,184.359 C335.673,184.359 330.922,202.502 309.322,209.198 C297.01,213.734 286.211,212.438 278.651,210.926 C283.619,207.038 285.563,202.718 283.835,200.99 C280.811,197.318 269.363,200.99 256.619,202.718 C244.092,204.662 233.724,201.854 230.484,205.526 C227.028,208.55 239.34,221.51 258.779,218.918 C261.155,218.486 262.883,220.646 265.043,219.998 C271.955,226.91 284.915,229.718 302.842,231.014 C315.802,232.741 330.922,228.638 336.537,219.566 C338.049,218.486 339.777,216.974 341.073,215.246 C347.121,207.254 345.609,198.614 342.153,196.67 z" fill="#818182" id="path21147"/>
          <path d="M289.451,51.954 C289.235,53.466 271.307,37.915 247.764,47.202 C224.22,56.274 223.14,80.682 221.628,79.602 C220.332,81.329 218.604,53.466 245.82,42.235 C272.819,31.867 291.827,51.522 289.451,51.738 z" fill="#282928" id="path21149"/>
          <path d="M152.51,80.898 C152.294,81.113 148.838,74.202 152.078,62.97 C155.102,51.522 168.278,39.859 184.693,35.107 C220.116,23.227 244.74,48.282 240.852,49.578 C241.5,49.578 219.036,29.275 186.205,40.291 C170.87,44.826 158.99,54.546 155.534,64.266 C151.862,73.77 153.806,80.898 152.51,80.898 z" fill="#282928" id="path21151"/>
          <path d="M245.604,193.431 C245.604,193.431 246.036,198.398 242.796,206.606 C239.124,215.03 227.892,222.59 213.853,228.854 C186.205,242.245 132.639,235.765 107.151,192.567 C82.096,150.016 99.376,96.449 130.695,84.785 C160.502,72.258 180.373,81.761 179.941,81.113 C180.157,83.057 159.854,75.498 132.423,88.025 C103.695,99.689 88.36,149.584 111.903,189.759 C135.879,230.366 185.989,237.277 212.773,225.398 C243.876,215.894 245.604,192.783 245.82,193.431 z" fill="#282928" id="path21153"/>
          <path d="M229.404,174.855 C230.7,175.935 218.604,183.927 203.485,178.527 C187.501,173.775 184.045,159.087 185.557,159.303 C187.069,158.439 191.821,169.671 205.213,173.559 C218.172,178.095 228.972,173.559 229.62,174.855 z" fill="#282928" id="path21155"/>
          <path d="M321.85,123.664 C321.202,122.584 327.898,119.992 333.513,111.785 C339.777,103.793 337.617,87.593 324.01,78.954 C295.714,60.378 270.227,84.137 270.659,81.113 C267.851,82.625 293.77,53.898 327.034,74.634 C342.585,84.137 344.961,105.305 336.537,113.945 C328.978,122.8 321.634,123.88 321.634,123.664 z" fill="#282928" id="path21157"/>
          <path d="M391.616,79.818 C390.104,80.897 395.504,55.41 371.096,45.69 C348.201,36.187 328.546,46.338 328.33,44.826 C326.602,43.962 347.553,30.355 373.256,40.723 C385.784,45.69 393.344,57.354 393.992,66.21 C394.64,75.066 392.048,79.818 391.832,79.602 z" fill="#282928" id="path21159"/>
          <path d="M366.993,42.235 C366.561,42.883 360.081,16.315 330.058,9.187 C301.114,0.116 280.595,17.395 280.379,16.315 C277.787,15.667 299.818,-5.932 331.569,4.004 C364.401,11.995 370.016,43.314 366.993,42.235 z" fill="#282928" id="path21161"/>
          <path d="M288.155,21.715 C287.507,23.443 271.091,13.075 249.492,16.099 C227.676,19.339 216.445,35.323 215.149,34.027 C213.853,34.027 224.004,14.587 248.628,10.915 C273.035,7.675 289.019,21.283 288.155,21.715 z" fill="#282928" id="path21163"/>
          <path d="M284.267,207.686 C285.995,207.902 277.787,221.726 260.291,222.806 C243.444,225.398 231.564,215.03 233.292,213.95 C234.156,213.086 244.524,219.566 259.643,217.406 C274.979,216.326 282.971,206.606 284.267,207.47 z" fill="#282928" id="path21165"/>
          <path d="M345.177,198.614 C345.393,198.614 347.121,204.662 343.665,214.166 C340.425,223.886 327.466,233.173 312.562,234.037 C282.323,236.197 261.371,221.294 262.451,220.646 C262.883,219.134 284.051,231.014 311.914,228.854 C343.017,227.558 344.097,197.102 345.177,198.614 z" fill="#282928" id="path21167"/>
          <path d="M356.625,113.297 C356.193,113.297 365.913,110.705 377.36,119.992 C389.024,129.496 390.536,152.392 381.032,170.967 C371.96,190.191 353.169,201.422 339.345,201.638 C325.306,202.286 317.746,197.318 317.962,197.318 C318.178,196.022 326.17,199.478 338.913,197.966 C351.657,196.886 367.857,186.303 376.28,168.807 C385.136,151.528 384.056,131.224 374.768,122.8 C365.697,114.161 356.193,114.809 356.625,113.513 z" fill="#282928" id="path21169"/>
          <path d="M395.504,83.705 C395.504,83.489 400.904,82.409 408.679,86.945 C416.887,91.481 421.423,105.521 417.103,118.049 C409.975,145.48 383.408,150.232 384.488,146.56 C384.488,146.776 405.44,140.944 412.135,116.537 C420.991,90.185 393.992,84.137 395.504,83.705 z" fill="#282928" id="path21171"/>
          <path d="M249.492,261.901 C250.572,262.765 243.012,251.533 255.539,239.653 C263.315,235.549 274.331,239.437 279.731,248.725 C286.859,259.309 276.275,272.484 266.123,275.94 C255.755,281.34 240.852,278.532 236.1,268.381 C231.132,258.877 233.508,248.077 239.34,242.677 C252.948,233.173 262.883,240.733 262.451,240.085 C262.883,241.813 252.084,236.845 241.932,245.485 C230.484,254.125 242.58,282.852 263.963,271.404 C273.467,267.517 280.163,258.661 275.411,251.317 C271.523,244.189 262.667,240.733 257.267,243.325 C247.332,250.885 251.436,263.197 249.492,262.333 z" fill="#282928" id="path21173"/>
          <path d="M149.918,282.636 C150.134,282.636 149.054,288.9 141.71,295.596 C135.663,303.804 115.143,303.804 108.231,288.468 C99.808,271.188 119.679,260.389 127.671,261.253 C137.175,260.173 142.79,261.685 142.79,262.117 C142.79,263.197 136.959,263.197 128.319,264.925 C120.111,266.005 106.719,273.996 112.983,286.308 C118.599,297.972 133.287,299.052 139.335,292.788 C146.246,287.604 148.838,281.988 149.702,282.852 z" fill="#282928" id="path21175"/>
          <path d="M162.878,282.636 C163.526,283.068 165.686,278.1 176.27,278.748 C187.069,284.148 183.613,302.076 171.518,308.771 C159.854,315.467 146.678,315.035 138.903,309.851 C130.479,303.156 136.527,295.812 136.311,296.892 C137.607,296.676 134.583,303.156 141.062,306.828 C147.11,310.067 159.206,310.067 168.71,304.236 C178.646,299.484 180.157,284.58 174.542,282.204 C169.358,281.124 162.446,284.58 162.878,282.636 z" fill="#282928" id="path21177"/>
          <path d="M140.847,272.268 C140.631,272.268 139.335,268.165 142.358,261.901 C144.518,254.773 156.83,250.453 166.334,255.205 C175.622,259.093 182.749,266.437 183.613,273.996 C182.533,282.42 175.838,282.204 176.486,281.988 C175.838,281.124 180.373,279.18 179.941,274.428 C178.862,269.461 172.598,263.413 164.39,260.173 C145.166,251.749 142.142,274.212 140.847,272.484 z" fill="#282928" id="path21179"/>
          <path d="M233.94,333.611 C232.644,334.475 235.02,314.819 255.324,309.203 C276.059,303.156 287.723,320.219 285.563,320.003 C284.699,321.083 273.899,308.987 256.835,314.171 C239.772,318.707 235.668,334.475 233.94,333.611 z" fill="#282928" id="path21181"/>
          <path d="M245.604,361.474 C245.82,361.258 242.364,370.762 228.108,376.162 C212.989,382.21 190.741,366.01 188.581,343.331 C184.909,316.979 213.205,306.828 225.516,308.771 C239.772,308.987 247.98,312.011 247.98,312.443 C247.764,313.307 239.34,311.795 225.732,312.659 C212.989,312.443 190.525,321.083 193.765,342.899 C195.925,362.986 214.285,377.026 227.028,372.706 C239.556,369.034 244.524,360.61 245.388,361.474 z" fill="#282928" id="path21183"/>
          <path d="M299.818,364.066 C300.034,363.85 301.546,370.33 296.794,379.186 C292.043,387.825 280.379,396.465 265.691,399.057 C251.436,401.865 236.532,398.841 230.052,390.633 C223.572,382.426 225.948,375.514 226.164,375.73 C227.244,375.514 226.812,381.994 232.86,388.041 C238.692,394.089 251.868,396.465 264.827,393.873 C294.202,389.553 299.602,363.634 299.818,364.066 z" fill="#282928" id="path21185"/>
          <path d="M290.747,317.627 C290.099,319.139 293.339,304.02 310.186,307.691 C323.794,312.011 341.505,328.211 340.857,351.538 C340.641,375.082 319.906,389.985 305.65,390.417 C291.179,391.713 282.971,387.393 283.187,387.177 C283.403,385.881 291.827,388.905 305.218,386.745 C318.394,385.017 335.457,372.274 335.889,351.106 C336.969,331.451 320.77,315.251 309.538,311.147 C296.362,306.828 291.827,319.139 291.179,317.411 z" fill="#282928" id="path21187"/>
          <path d="M261.155,309.851 C258.563,311.579 260.939,289.764 282.107,290.196 C302.842,289.548 306.946,310.499 303.706,309.203 C303.274,309.419 298.954,294.948 282.107,295.38 C265.259,294.732 262.019,310.283 261.155,309.851 z" fill="#282928" id="path21189"/>
          <path d="M230.052,309.851 C228.108,310.067 231.348,296.46 245.82,292.788 C259.427,288.684 270.011,296.028 268.931,296.892 C268.067,298.188 258.779,294.3 247.332,297.756 C235.452,300.78 231.564,310.067 230.052,309.851 z" fill="#282928" id="path21191"/>
          <path d="M321.85,261.901 C321.634,262.117 318.826,258.445 319.69,251.533 C318.178,243.109 339.561,236.845 339.993,253.261 C341.289,266.869 320.986,270.108 319.69,259.525 C318.826,251.749 322.93,248.941 322.93,249.157 C324.226,249.373 321.634,253.477 323.146,258.445 C324.658,263.629 334.593,261.901 334.593,253.261 C335.025,245.485 323.362,246.997 323.146,252.613 C321.418,257.581 322.93,261.901 321.634,262.117 z" fill="#282928" id="path21193"/>
          <path d="M469.158,108.113 C467.646,108.977 460.734,94.937 443.239,90.401 C425.743,85.433 413.215,95.153 412.351,93.857 C410.623,93.425 424.231,79.602 444.535,85.217 C464.622,90.401 470.67,108.329 469.158,108.113 z" fill="#282928" id="path21195"/>
          <path d="M543.46,106.169 C546.7,107.465 546.268,78.522 517.109,67.506 C488.165,58.434 471.318,85.433 470.454,82.193 C468.726,84.353 484.493,52.602 518.837,62.538 C533.956,67.938 543.46,80.466 546.268,90.401 C549.94,100.985 543.46,107.033 543.46,106.169 z" fill="#282928" id="path21197"/>
          <path d="M467.862,70.746 C467.214,71.826 457.278,66.426 445.83,71.61 C432.439,77.226 446.694,87.161 444.75,87.593 C444.534,88.025 441.511,87.593 438.055,83.921 C432.871,80.682 435.895,68.802 443.671,66.858 C458.358,60.594 469.59,69.882 467.862,70.746 z" fill="#282928" id="path21199"/>
          <path d="M513.005,62.97 C510.629,62.538 525.532,54.978 519.484,39.427 C511.061,25.819 485.357,16.963 460.95,21.067 C436.327,26.467 421.639,50.226 419.479,65.778 C417.535,83.921 434.599,84.137 432.871,85.001 C435.247,85.649 415.159,87.161 415.807,65.562 C417.319,48.066 431.791,22.579 459.87,16.099 C486.869,11.995 513.221,21.283 522.94,37.915 C528.772,58.218 511.061,63.618 513.221,63.186 z" fill="#282928" id="path21201"/>
          <path d="M597.026,141.16 C595.947,140.08 605.45,134.896 611.282,121.072 C617.546,107.033 610.418,84.137 591.843,69.882 C573.915,54.546 551.236,51.306 536.548,54.114 C521.644,57.354 513.869,64.05 513.221,62.97 C513.005,62.97 519.917,54.978 535.684,50.442 C551.236,46.338 576.075,49.362 595.299,65.778 C615.386,80.897 622.946,107.033 614.954,122.368 C607.61,137.488 597.026,141.16 597.242,141.16 z" fill="#282928" id="path21203"/>
          <path d="M490.757,173.991 C493.565,175.071 463.974,196.238 428.119,180.039 C411.487,173.343 397.016,158.439 400.04,144.616 C403.064,131.872 411.487,128.632 411.055,128.848 C412.135,129.712 405.224,134.464 403.712,145.048 C401.984,156.064 414.511,168.591 430.063,175.071 C463.542,190.191 490.973,172.911 490.757,173.775 z" fill="#282928" id="path21205"/>
          <path d="M509.117,201.206 C511.493,200.342 495.941,224.318 468.078,215.03 C455.982,210.926 445.831,202.07 445.183,192.135 C446.478,181.335 455.982,183.063 454.902,183.063 C455.982,184.143 448.422,185.223 449.07,191.919 C449.934,198.398 459.222,206.606 470.022,210.062 C493.565,218.486 508.685,199.262 509.333,201.206 z" fill="#282928" id="path21207"/>
          <path d="M557.716,212.87 C557.716,212.438 561.171,212.438 567.435,212.438 C573.051,212.654 585.579,218.486 583.203,232.094 C576.723,254.773 547.132,277.236 511.925,275.94 C478.878,275.724 443.239,260.173 440.431,234.253 C438.055,223.022 442.591,212.222 449.07,209.846 C455.118,207.254 459.006,209.198 458.79,208.982 C460.518,208.982 438.487,208.982 444.103,233.389 C447.126,256.285 479.526,270.108 512.141,270.54 C544.54,272.052 573.483,250.237 579.531,231.23 C581.907,220.43 572.619,215.678 567.219,214.382 C561.171,213.734 557.932,213.086 557.716,212.87 z" fill="#282928" id="path21209"/>
          <path d="M535.036,185.655 C536.332,185.439 533.524,193.863 539.572,202.934 C546.268,211.79 564.195,212.222 580.179,206.39 C596.594,200.774 609.77,189.327 610.85,178.311 C611.498,167.295 604.802,161.679 606.098,161.031 C605.882,160.599 614.09,165.135 614.522,178.527 C614.09,192.351 599.186,205.526 581.907,211.358 C564.843,217.622 544.324,216.974 536.548,205.094 C530.068,193.215 535.036,185.223 535.036,185.655 z" fill="#282928" id="path21211"/>
          <path d="M608.69,192.135 C611.498,193.431 590.115,200.342 582.987,222.374 C597.458,240.301 645.841,236.197 667.225,201.854 C680.184,186.735 682.776,166.647 676.512,151.096 C669.817,135.76 657.937,124.744 646.273,119.344 C620.354,106.385 609.338,127.768 609.986,126.256 C610.202,126.472 610.418,121.504 616.682,116.753 C622.73,111.569 635.473,110.489 648.001,116.105 C660.529,121.504 673.704,132.736 681.264,149.584 C688.608,166.431 685.368,189.543 671.544,205.526 C648.433,240.517 597.674,248.509 579.315,223.454 C581.043,207.47 593.786,203.15 598.754,198.182 C605.018,194.079 608.69,192.135 608.69,192.351 z" fill="#282928" id="path21213"/>
          <path d="M42.353,220.862 C42.353,220.646 38.681,226.91 27.881,229.286 C15.786,232.741 1.53,216.974 3.906,200.342 C4.338,192.135 8.658,183.927 16.002,180.687 C23.13,177.663 30.041,179.175 34.793,181.119 C44.513,185.007 49.049,189.759 48.833,189.975 C48.401,191.055 43.001,187.383 33.713,184.791 C24.642,180.903 9.522,185.223 9.306,200.99 C7.794,215.462 17.946,227.558 27.449,225.83 C36.737,224.75 41.705,219.782 42.353,221.078 z" fill="#282928" id="path21215"/>
          <path d="M74.536,223.454 C73.888,223.67 86.632,225.614 93.976,242.677 C100.672,263.629 71.728,281.772 46.457,279.828 C18.162,279.828 0.45,254.557 0.234,237.277 C-0.414,226.91 10.17,222.59 14.706,224.534 C19.458,225.398 21.834,226.694 21.834,226.91 C23.994,229.286 5.418,219.782 4.122,237.061 C5.202,251.749 21.834,274.644 46.673,274.428 C70.648,275.94 95.488,260.173 90.52,243.541 C85.336,228.638 73.456,224.318 74.752,223.238 z" fill="#282928" id="path21217"/>
          <path d="M56.393,216.974 C56.177,216.974 58.553,210.278 67.408,203.15 C75.184,194.295 97,194.727 106.287,210.926 C116.223,224.75 116.871,243.757 107.583,252.181 C98.296,259.741 90.304,256.933 90.736,257.149 C90.304,255.853 98.08,256.501 104.991,249.589 C111.687,242.677 111.039,226.262 101.968,213.95 C93.544,200.126 77.56,199.478 69.568,206.174 C61.145,211.79 57.473,217.622 56.609,216.758 z" fill="#282928" id="path21219"/>
          <path d="M86.2,200.126 C84.688,200.774 79.936,187.599 64.601,183.279 C49.481,178.311 37.817,185.223 36.953,183.927 C35.441,183.063 48.617,172.479 66.112,178.311 C84.256,183.711 87.712,200.558 85.984,200.126 z" fill="#282928" id="path21221"/>
          <path d="M614.306,318.923 C613.01,318.707 617.978,311.363 614.954,300.78 C611.498,289.98 592.707,285.66 576.723,291.492 C557.932,296.676 557.932,316.331 565.707,325.403 C571.971,335.123 577.803,340.307 576.939,340.955 C576.723,341.387 570.027,337.283 562.467,327.563 C559.228,322.595 554.692,315.467 556.204,306.396 C557.5,297.108 565.923,289.764 574.995,286.74 C592.707,280.044 614.738,285.228 618.626,299.7 C621.218,313.091 614.306,319.355 614.522,319.139 z" fill="#282928" id="path21223"/>
          <path d="M638.713,334.475 C635.041,334.475 664.201,318.059 645.409,296.46 C636.985,287.604 625.106,284.148 617.33,285.444 C609.338,286.524 605.882,291.276 605.018,290.412 C604.586,290.412 607.178,284.364 616.466,281.772 C625.538,279.18 639.361,282.42 649.081,292.788 C660.313,303.156 657.289,320.219 650.161,326.051 C644.113,332.963 638.497,334.475 638.497,334.259 z" fill="#282928" id="path21225"/>
          <path d="M618.194,351.106 C619.49,351.106 616.034,358.234 619.49,367.306 C622.73,377.026 639.793,379.834 651.889,370.114 C664.201,361.042 662.257,343.547 658.585,335.123 C654.481,324.539 646.489,329.291 646.489,328.427 C644.329,327.995 655.561,320.867 661.825,333.395 C666.793,342.467 670.249,362.338 654.913,374.218 C641.521,385.881 619.058,381.778 615.818,368.602 C612.794,356.938 617.978,350.674 617.978,350.89 z" fill="#282928" id="path21227"/>
          <path d="M620.138,372.49 C620.57,372.49 618.194,378.97 608.906,382.426 C599.834,385.665 585.579,384.801 573.483,376.378 C560.74,368.602 556.204,353.05 559.228,343.763 C561.387,334.475 565.923,330.371 566.139,330.371 C568.515,329.291 551.884,355.642 576.507,371.842 C600.266,388.041 621.434,372.706 620.354,372.49 z" fill="#282928" id="path21229"/>
          <path d="M535.252,298.836 C534.388,298.62 535.252,294.3 529.852,290.628 C525.748,287.172 513.437,284.148 509.765,290.196 C508.901,297.324 520.565,302.292 525.964,302.076 C532.444,302.508 534.388,298.404 535.252,298.836 C536.116,298.62 534.388,305.1 526.18,305.748 C519.917,305.964 504.581,304.668 504.797,288.468 C514.301,275.508 527.476,283.716 532.228,287.604 C538.492,293.22 535.684,299.484 535.252,298.62 z" fill="#282928" id="path21231"/>
          <path d="M594.435,261.037 C595.73,260.821 588.171,249.373 581.691,256.717 C582.339,266.653 595.299,261.901 594.435,261.037 C595.083,260.821 594.867,265.141 589.683,266.869 C585.579,268.597 574.779,265.573 576.723,255.205 C581.691,245.917 591.843,249.805 594.219,253.693 C597.242,258.229 594.867,261.685 594.435,261.037 z" fill="#282928" id="path21233"/>
          <path d="M565.275,288.036 C566.571,287.82 559.011,276.372 552.532,283.716 C553.18,293.652 566.139,288.9 565.275,288.036 C565.923,287.82 565.707,292.14 560.523,293.868 C556.419,295.596 545.62,292.572 547.564,282.204 C552.532,272.916 562.683,276.804 565.059,280.692 C568.083,285.228 565.707,288.684 565.275,288.036 z" fill="#282928" id="path21235"/>
          <path d="M343.233,285.444 C344.529,285.228 336.969,273.78 330.49,281.124 C331.137,291.06 344.097,286.308 343.233,285.444 C343.881,285.228 343.665,289.548 338.481,291.276 C334.377,293.004 323.794,289.98 325.522,279.612 C330.49,270.324 340.641,274.212 343.017,278.1 C346.041,282.636 343.665,286.092 343.233,285.444 z" fill="#282928" id="path21237"/>
          <path d="M370.016,224.534 C369.152,224.318 369.584,221.51 366.129,219.35 C363.537,216.974 355.761,215.894 354.249,219.35 C353.385,223.022 360.297,226.91 363.753,226.478 C367.641,226.694 369.152,224.318 370.016,224.534 C370.664,224.318 370.016,229.07 364.185,230.15 C359.865,230.798 348.633,229.502 349.281,217.622 C355.977,207.686 365.697,213.518 368.72,216.758 C372.824,221.078 370.448,225.398 370.016,224.75 z" fill="#282928" id="path21239"/>
          <path d="M402.632,61.674 C395.72,53.034 386.648,54.762 387.08,54.978 C387.296,54.978 393.56,57.57 398.96,64.698 C407.383,72.042 408.031,86.081 407.168,86.297 C407.815,87.161 412.351,70.962 402.416,61.674 z" fill="#333333" id="path21241"/>
        </g>
        <path d="M392.264,75.282 C392.264,74.85 392.264,74.418 392.264,73.986 L392.264,73.986 C392.264,72.906 393.128,72.042 394.208,72.042 C395.288,72.042 396.152,72.906 396.152,73.986 C396.152,74.418 396.152,74.85 396.152,75.282 C396.152,76.362 395.288,77.226 394.208,77.226 C393.128,77.226 392.264,76.362 392.264,75.282 z" fill="#292929" id="path21245"/>
        <path d="M368.073,166.431 C366.993,166.215 366.345,165.135 366.561,164.271 C366.993,161.679 368.073,159.303 369.368,157.143 C370.016,156.28 371.096,156.064 371.96,156.495 C372.824,157.143 373.04,158.223 372.608,159.087 C371.528,160.815 370.664,162.975 370.232,164.919 C370.016,165.783 369.152,166.431 368.289,166.431 C368.073,166.431 368.073,166.431 367.857,166.431 z" fill="#292929" id="path21247"/>
        <path d="M152.078,300.348 C152.078,299.268 152.726,298.404 153.806,298.188 C159.206,297.756 164.606,295.38 166.334,290.412 C166.766,289.332 167.846,288.9 168.71,289.332 C169.79,289.764 170.222,290.844 169.79,291.708 C167.198,298.836 160.07,301.428 154.022,302.076 C154.022,302.076 153.806,302.076 153.806,302.076 C152.726,302.076 151.862,301.428 151.862,300.348 z" fill="#292929" id="path21249"/>
        <path d="M255.323,265.357 C255.323,264.277 256.187,263.413 257.267,263.413 C257.699,263.413 258.131,263.413 258.563,263.413 C259.643,263.413 260.507,264.277 260.507,265.357 C260.507,266.437 259.643,267.301 258.563,267.301 C258.131,267.301 257.699,267.301 257.267,267.301 L257.267,267.301 C256.187,267.301 255.323,266.437 255.323,265.357 z" fill="#292929" id="path21251"/>
        <path d="M176.702,86.081 C176.486,85.433 176.486,85.001 176.486,84.353 C176.486,81.761 177.782,79.17 179.941,77.658 L179.941,77.658 C180.805,77.01 182.101,77.226 182.533,78.09 C183.181,78.954 182.965,80.25 182.101,80.898 C180.805,81.977 180.157,83.057 180.157,84.353 C180.157,84.569 180.157,85.001 180.157,85.433 C180.373,86.513 179.725,87.593 178.646,87.809 C178.43,87.809 178.43,87.809 178.214,87.809 C177.35,87.809 176.486,87.161 176.27,86.297 z" fill="#292929" id="path21253"/>
        <path d="M278.219,18.043 C277.571,18.043 276.923,18.043 276.275,17.827 C275.195,17.611 274.547,16.531 274.763,15.451 C274.979,14.371 276.059,13.723 277.139,13.939 C277.571,13.939 277.787,14.155 278.219,14.155 C279.083,14.155 279.731,13.939 280.595,13.291 C281.459,12.643 282.539,12.643 283.403,13.291 C284.051,14.155 284.051,15.235 283.403,16.099 C282.107,17.395 280.163,18.043 278.435,18.043 C278.435,18.043 278.435,18.043 278.435,18.043 z" fill="#292929" id="path21255"/>
        <path d="M281.243,18.691 C281.243,18.259 281.243,17.827 281.243,17.395 C281.243,14.803 282.107,12.427 283.619,10.915 C285.347,9.403 287.723,8.755 290.315,8.755 C290.531,8.755 290.747,8.755 290.963,8.755 C292.043,8.755 292.907,9.835 292.691,10.915 C292.691,11.995 291.611,12.859 290.531,12.643 C290.315,12.643 290.315,12.643 290.099,12.643 C286.211,12.859 285.131,13.723 284.915,17.395 C284.915,17.611 284.915,18.043 284.915,18.259 C284.915,19.339 284.267,20.203 283.187,20.419 C283.187,20.419 283.187,20.419 282.971,20.419 C281.891,20.419 281.027,19.555 281.027,18.691 z" fill="#292929" id="path21257"/>
        <path d="M218.388,38.563 C217.309,38.563 216.445,37.483 216.661,36.403 C216.661,35.971 216.661,35.539 216.661,34.891 C216.661,34.243 216.661,33.595 216.661,32.947 C216.661,31.219 217.092,28.843 219.468,27.115 C220.116,26.467 221.196,26.467 222.06,27.115 C222.708,27.763 222.924,28.843 222.492,29.707 C222.06,30.571 222.06,31.003 221.844,32.083 C221.844,32.515 221.844,33.163 221.844,34.027 C221.844,34.891 221.412,35.539 220.548,35.971 C220.548,36.187 220.548,36.619 220.548,36.835 C220.548,37.915 219.684,38.563 218.604,38.563 C218.604,38.563 218.388,38.563 218.388,38.563 z" fill="#292929" id="path21259"/>
        <path d="M219.252,34.459 C218.172,34.027 217.74,32.947 218.172,32.083 C220.116,26.467 224.004,22.147 229.404,19.339 C230.268,18.907 231.564,19.339 231.996,20.203 C232.428,21.067 231.996,22.363 231.132,22.795 C226.38,25.171 223.572,28.627 221.844,33.379 C221.628,34.243 220.764,34.675 220.116,34.675 C219.9,34.675 219.684,34.675 219.468,34.459 z" fill="#292929" id="path21261"/>
        <path d="M407.383,121.72 z M409.975,121.936 L409.975,121.936 C409.975,121.936 409.975,121.936 409.975,121.936 C409.975,121.936 409.975,121.936 409.975,121.936 C410.191,121.936 410.191,122.152 410.407,122.368 C410.407,122.368 410.191,122.152 410.191,122.152 z M409.111,121.504 L409.111,121.504 C409.111,121.504 409.111,121.504 409.111,121.504 C409.111,121.504 409.111,121.504 408.895,121.504 C408.895,121.504 409.111,121.504 409.111,121.504 C409.111,121.504 409.111,121.504 409.111,121.504 C409.111,121.504 409.111,121.504 409.111,121.504 z" fill="#292929" id="path21263"/>
      </g>
    </g>
    <g id="_301677920">
      <path d="M436.327,191.055 C443.671,171.831 458.79,126.04 458.79,126.04 C458.79,126.04 434.383,174.207 427.039,193.863 C419.479,213.518 419.263,219.566 421.855,218.702 C424.447,217.838 428.983,210.494 436.327,191.055 z" fill="#00AFEF" id="path21268"/>
      <path d="M452.526,226.262 C458.79,207.47 473.91,161.895 474.126,161.895 C474.126,161.895 449.718,210.278 443.023,229.502 C436.111,248.941 436.111,254.773 438.703,253.693 C441.511,252.613 445.831,245.269 452.526,226.262 z" fill="#00AFEF" id="path21272"/>
      <path d="M397.88,188.247 C402.2,176.151 412.999,145.48 413.215,145.48 C413.215,145.264 393.344,177.879 388.592,191.055 C383.624,204.23 384.488,207.902 387.08,206.822 C389.888,205.742 393.344,200.558 397.88,188.247 z" fill="#00AFEF" id="path21276"/>
      <path d="M492.917,189.327 C497.885,175.935 504.797,145.048 504.797,145.264 C504.797,145.264 488.597,178.959 483.414,192.567 C478.446,206.174 479.094,210.062 481.686,209.198 C484.277,208.334 488.165,202.718 492.917,189.327 z" fill="#00AFEF" id="path21280"/>
      <path d="M340.857,339.875 C344.961,327.347 351.873,306.396 359.001,288.036 C366.129,269.676 373.256,253.909 373.256,253.909 C373.256,253.909 363.969,269.892 354.465,289.116 C344.961,308.339 335.457,330.803 331.137,343.547 C322.498,369.034 322.498,376.594 325.09,375.514 C327.898,374.434 332.433,364.93 340.857,340.091 z" fill="#00AFEF" id="path21284"/>
      <path d="M343.449,271.188 C349.497,254.125 364.617,212.654 364.833,212.438 C364.617,212.438 340.641,256.285 334.161,273.996 C327.25,291.708 327.682,296.892 330.274,296.028 C333.081,294.948 336.969,288.468 343.449,271.188 z" fill="#00AFEF" id="path21288"/>
      <path d="M280.595,358.234 C289.235,335.555 309.97,280.908 309.97,280.908 C309.97,280.908 280.163,337.715 271.307,360.826 C262.019,383.938 261.155,391.281 263.747,390.417 C266.339,389.553 271.523,380.914 280.595,358.234 z" fill="#00AFEF" id="path21292"/>
      <path d="M346.689,217.19 C355.329,200.558 371.096,160.815 370.88,161.031 C371.096,161.247 347.121,201.422 338.265,218.27 C329.842,235.117 329.194,240.733 331.57,240.301 C334.161,239.869 338.697,233.605 346.905,217.19 z" fill="#00AFEF" id="path21296"/>
      <path d="M505.661,113.945 C510.845,99.689 525.316,64.482 526.18,64.266 C525.748,63.834 501.989,101.417 496.589,116.321 C490.325,131.224 490.325,135.76 492.917,135.112 C495.509,134.464 499.613,128.632 505.661,113.945 z" fill="#00AFEF" id="path21300"/>
      <path d="M550.372,111.785 C556.636,95.801 567.219,58.866 567.219,58.866 C567.219,58.866 547.348,98.609 541.084,114.593 C534.82,130.576 534.604,135.544 537.196,134.896 C539.788,134.248 544.108,127.984 550.372,112.001 z" fill="#00AFEF" id="path21304"/>
      <path d="M408.247,348.73 C411.919,337.067 416.671,318.059 421.639,301.428 C426.391,284.796 431.791,270.54 431.791,270.54 C431.791,270.54 424.231,285.444 416.887,303.156 C409.543,320.867 402.2,341.171 398.528,352.834 C391.184,375.946 390.536,383.29 393.128,382.426 C395.72,381.562 400.904,372.274 408.247,348.946 z" fill="#00AFEF" id="path21308"/>
      <path d="M338.049,426.272 C341.721,414.609 346.473,395.601 351.441,378.97 C356.193,362.338 361.593,348.082 361.593,348.082 C361.593,348.082 354.033,362.986 346.689,380.698 C339.345,398.409 332.001,418.713 328.33,430.376 C320.986,453.488 320.338,460.831 322.93,459.967 C325.522,459.104 330.705,449.816 338.049,426.488 z" fill="#00AFEF" id="path21312"/>
      <path d="M393.992,255.205 C398.744,240.301 408.247,205.526 408.679,205.31 C408.463,205.094 389.24,243.757 384.488,258.661 C379.088,273.78 379.304,278.316 381.896,277.452 C384.488,276.588 388.592,270.54 393.992,255.421 z" fill="#00AFEF" id="path21316"/>
      <path d="M395.504,310.067 C402.2,289.332 413.647,241.381 413.863,241.381 C413.647,241.381 392.48,293.22 385.784,313.739 C378.872,334.475 378.44,340.955 381.248,340.091 C383.84,339.227 388.592,331.019 395.504,310.067 z" fill="#00AFEF" id="path21320"/>
      <path d="M281.459,437.936 C288.803,414.609 304.138,359.962 304.354,359.746 C304.138,359.746 279.299,418.281 271.739,441.608 C263.747,465.151 263.099,472.495 265.691,471.631 C268.283,470.767 273.251,461.695 281.243,438.152 z" fill="#00AFEF" id="path21324"/>
      <path d="M374.336,475.087 C382.112,451.976 392.048,400.353 391.4,400.785 C392.048,400.569 372.392,456.08 364.617,478.975 C357.489,501.87 357.489,508.782 360.297,507.486 C363.105,506.19 367.425,497.551 374.336,474.871 z" fill="#00AFEF" id="path21328"/>
      <path d="M480.822,285.228 C487.301,265.573 501.989,218.702 502.637,218.27 C501.989,218.27 477.798,268.597 471.318,288.468 C464.19,308.339 463.758,314.603 466.35,313.739 C468.942,312.875 473.694,305.1 480.822,285.012 z" fill="#00AFEF" id="path21332"/>
      <path d="M441.727,314.603 C448.854,295.812 459.654,253.261 459.438,253.261 C459.438,253.261 439.351,299.052 432.223,317.627 C425.311,336.203 424.879,342.035 427.471,341.171 C430.063,340.307 434.599,333.179 441.727,314.387 z" fill="#00AFEF" id="path21336"/>
    </g>
    <g id="_301647704">
      <path d="M387.728,169.671 L331.785,260.821 L374.984,257.365 L262.235,407.481 L367.425,359.53 L175.19,631.035 L376.064,479.191" fill-opacity="0" stroke="#373435" stroke-width="12" id="polyline21341"/>
      <path d="M376.064,479.191 C376.064,479.191 316.45,490.855 322.282,485.023 C328.114,479.191 473.478,319.787 473.478,319.787" fill-opacity="0" stroke="#373435" stroke-width="12" id="path21343"/>
      <path d="M473.694,319.787 L371.96,331.451 L450.798,204.662 L373.688,232.741 L387.728,169.671" fill-opacity="0" stroke="#373435" stroke-width="12" id="polyline21345"/>
      <path d="M387.728,169.671 L331.785,260.821 L374.984,257.365 L262.235,407.481 L367.209,359.53 L175.19,631.035 L376.064,479.191 C376.064,479.191 316.45,490.855 322.282,485.023 C328.114,479.191 473.478,319.787 473.478,319.787 L371.96,331.451 L450.798,204.662 L373.688,232.741 z" fill="#FFDE2F" id="path21347"/>
    </g>
  </g>
</svg>
