<?xml version="1.0" encoding="UTF-8" standalone="no"?>
<svg id="svg2" xmlns:rdf="http://www.w3.org/1999/02/22-rdf-syntax-ns#" xmlns="http://www.w3.org/2000/svg" height="784pt" width="306pt" version="1.1" xmlns:cc="http://creativecommons.org/ns#" xmlns:dc="http://purl.org/dc/elements/1.1/" viewBox="0 0 306 784">
<path id="path4" fill="#050905" d="m267.6 3.8297c-2.7775 0.0026-5.5531 0.64219-7.7375 1.8703-21.23 21.8-35.8 49.54-43.45 78.83-3.22 40.63-7.78 81.17-14.54 121.37-8.78 106.74-17.07 213.53-25.7 320.29-1.95 21.6-2.58 43.709-9.05 64.559-5.18 1.22-11.591-1.2506-16.191 1.8594-10.61 9.08 2.7 25.57-6.85 35.55-13.38 16.31-17.569 42.531-40.759 48.141-35.28 12.17-75.89 21.72-98.1 54.8-7.17 8.76-8.9209 29.931 6.7391 28.691 8.39 8.74 17.251 22.219 31.261 19.609 9.91-1.5 9.6894-14.2 14.659-20.32 2.6 17.01 24.23 6.1297 35.75 8.8797 9.67 4.3 9.9003-12.94 17.67-9.2797-0.18 10.37 8.6203 20.18 19.42 18.33 10.3 0.87 17.309-10.8 14.489-20.03 24.23 1.42 48.2-3.3597 72.35-3.6297 0.16 10.33 4.0206 24.82 17.041 24.27 14.04 4.87 23.951-12.04 19.491-23.85-8.6 2.58-0.9703 19.8-12.42 19.33-13.87 4.14-20.181-8.6697-20.541-20.18 10.88-1.38 21.891-0.96062 32.841-0.99062 4.44-0.21 10.61 1.2609 13-3.5391 1.78-26.7-12.781-50.781-24.811-73.511 11.77-28.29 35.311-49.699 50.791-75.909 5.38-9.68 2.4197-21.311 11.03-29.391-5.46-108.29-9.46-216.68-14.3-325.01-10.15 2.02-22.42 1.2891-33.92 3.2391-1.75-20.15 6.23-41.209 0.85-60.409 2.66-10.88 3.5103-22.551 0.3203-33.341-5.02-3.29-10.69 3.53-15.48 4.35-7.51 2.73 2.5206 20.131-9.3594 16.461 0.11-19.69 5.8097-38.77 8.6297-58.15 6.04-36.26 13.94-74.77 39.01-103.12 0.1-6.6962-6.02-9.776-12.13-9.7703zm-5.19 3.4203c3.96 0.52 12.03 0.060625 12.57 5.6406-25.19 29.08-32.389 68.349-39.289 104.99-5.12 1.12-11.76 2.5209-17.65 2.6109-1.58-42.289 17-81.94 44.37-113.24zm-40.706 119.91c4.0327-0.0103 8.0638 0.55593 12.106 0.32344-1.82 16.65-6.4391 33.01-6.9391 49.87-18.19 39.89-14.091 85.22-20.861 127.65-3.02 19.55-2.5597 39.52-4.6297 59.08-6.22 10.24-11.839 36.32 6.0609 34.73 13.26-2.39 1.7194 5.0006 4.7094 11.791-1.31 26.29-3.8694 52.571-4.1094 78.891 9.59 4.85 0.059 19.64-9.9312 13.3-4.48-34.09 5.8806-67.011 6.5906-100.59-8.69 30.65-14.07 68.23-11.57 102.27 1.41 4.56 11.34 1.2791 7.9203 8.7891-1.06 16.58 2.2703 33.63-1.9797 49.9-6.23-2.07-12.62-3.5888-18.88-5.5188 9.39-124.04 19.99-248.03 29.31-372.04 4.22-19.16 4.7003-38.941 8.1703-58.191 1.345-0.18251 2.6886-0.24969 4.0328-0.25313zm30.717 29.134c7.15 8.4 0.8997 28.39-2.9703 40.43-2.84 8.32 0.4106 26.08-12.509 25.9 1.05-20.37 3.9991-40.61 5.2391-60.98 2.93-2.51 6.5606-4.23 10.241-5.35zm-15.641 21.539c-1.25 15.06-3.2603 30.271-9.9203 44.011-8.3 18.21-9.02 39.539-11.8 58.269-2.29-27.84 4.43-55.68 8.85-83.1 0.33-7.63 5.6106-13.699 10.491-18.709 0.59-0.12 1.7897-0.36031 2.3797-0.47031zm17.691 17.85c-2.36 37.62-1.96 75.381-1.55 113.26-6.8-21.69 3.34-53.571-4-76.261-2.58 35.12 0.4803 70.58-1.4297 105.73-10.27 38.69-10.61 79.361-20.77 117.88 0.19-23.95-1.9606-49.691 3.9594-73.641 14.17-50.23 6.7-102.91 12.55-154.08 10.79-7.04 8.1606-21.891 11.241-32.891zm-23.39 25.52c2.12 2.47 3.48 6.6003 1.95 9.7703-13.7 34.56-2.0194 72.64-10.859 108.17-2.51 9.97-6.3306 19.649-6.9406 30.019-3.57-18.69 0.2706-37.569 1.6406-56.259 3.38-30.7 2.5694-62.59 14.209-91.7zm6.2906 11.541c-0.51 52.88 1.5591 107.25-12.761 159.03-0.01 28.5-2.0588 56.859-4.8688 85.209l-5.7203-0.12031c-0.14-40.38 5.5794-79.46 7.5594-119.3 16.69-39.88 0.061-84.879 15.791-124.82zm39.378 17.067c1.6507 0.006 3.3016 0.0241 4.9516 0.0516-0.44 6.62-3.82 12.61-5.1 19.07-7.98 113.65-16.16 227.32-24.47 340.95-13.42-13.76-32.07-17.9-50.4-17.97 0.9-26.94 7.3206-55.459 4.0906-83.569 10.72-6.35-2.5309 17.1 9.6891 14.18 17.63 2.34 6.46-25.181 11.25-33.641 0.1 6.44 8.1309 3.3203 4.8109-1.2297 14.66-51.93 10.539-106.7 21.859-159.24 5.23-24.55 3.1909-49.74 3.5609-74.63 0.58-2.17 2.8788-3.22 4.9188-3.55 4.935-0.33751 9.8872-0.43875 14.839-0.42187zm7.4719 11.012c1.57 20.5 0.88 42.81 2.85 64.03-10.76 85.75-9.5203 172.55-8.2203 258.81-5.71 14.66-16.71 27.22-19.7 43.1 0.76 1.55 3.82 3.5212 4.55 0.98124 5.57-12.46 9.24-26.911 19.45-36.561 2.49-3.33 5.4794 3.9306 7.7094 0.69062-0.41-3.87-4.6988-5.6906-6.6188-8.7906-1.58-72.96-3.1012-146.24 3.9188-218.97 3.46 66.17 6.0712 135.76 8.9312 203.29-4.16 7.05-5.8912 14.93-4.3312 23.1-7.09 15.57-20.199 27.541-28.739 42.341-1.36 4.1-9.1906 9.0597-7.0906 0.0797 9.58-123.91 17.471-248.19 27.291-372.1zm-71.061 24.5c3.9 20.39-4.5894 47.12-2.1094 69.58-0.91 3.51 3.0694 15.051-4.1406 12.941-0.58-27.67 2.81-55.15 6.25-82.52zm-3.2219 87.261c8.4797-0.3237 2.2997 15.26 4.0125 21.269-15.25 8.45-19.501-17.82-7.1406-20.63 1.2159-0.40218 2.2509-0.60557 3.1281-0.63906zm30.292 17.539c1.04 30.96-1.6703 66.46-12.87 97 0.47-32.45 11.59-64.24 12.87-97zm-18.1 91.03c-1.2 12.19 2.0903 25.02-1.4797 36.92-12.62 2.81-3.18-14.16-5.5-20.12 3.38-4.27-4.6406-15.77 1.4594-16.53 1.38-0.07 4.1403-0.20031 5.5203-0.27031zm-39.488 81.97c15.889 0.23083 14.573 16.914 11.958 29.739-7.29 0.81-14.619-0.0491-21.609-2.1891 2.48-8.35 0.7691-20.93 6.2391-27.37 1.2169-0.13687 2.3532-0.19507 3.4125-0.17969zm20.781 34.233c16.639-0.17643 33.458 4.2828 44.497 17.556 9.35 7.24 1.64 20.371 6.9 29.211-5.28 8.08-10.25 16.359-14.53 25.039-2.64-4.63-6.06-9.0488-11.8-8.0188-19.39-8.87-34.051-25.191-51.181-37.541 4.73-8.01-2.1091-27.57 12.311-25.1 4.4997-0.68469 9.1443-1.0975 13.803-1.1469zm-26.52 1.47c-0.86 6.78-3.1103 13.3-4.5203 19.98-12.92 1.52-27.17-3.2403-20.25-19.62 8.25-0.35 16.51-0.34938 24.77-0.35938zm-24.6 22.409c12.53 2.67 16.619 18.12 25.659 25.92-10.49 17.29-12.859 38.31-20.309 56.62-28.24 4.37-57.67 8.7794-81.03 26.859-18.58 18.03-45.73 9.3206-68.58 6.3406 22.03-38.97 70.339-43.43 107.27-60.63 17.7-13.53 25.421-36.471 36.991-55.111zm15.709 3.1797c7.5 0.68 26.371 13.61 13.041 18.45-5.23-5.38-10.481-11.33-13.041-18.45zm21.381 16.161c14.87 11.73 30.629 22.37 46.489 32.63 12.13 22.54 27.111 46.009 26.091 72.609-84 5.71-170.65 9.9-255.89 5.95 1.28-2.49-3.45-12.549 4.45-8.2391 22.91 1.39 50.011 10.49 68.611-7.3703 23.15-19.75 54.009-21.131 82.069-27.841 8.7-18.07 12.01-39.739 20.97-57.759 8.08 1.77 0.5509-7.6397 7.2109-9.9797zm-112.81 53.881c-1.4425 0.007-2.8853 0.0775-4.3266 0.21875-16.84 6.07-36.84 13.219-46.25 29.039 12.05 5.14 27.97 7.7106 41.1 9.3406 6.93-17.94 27.7-20.05 43.53-25.38 4.35-4.65-4.7591-2.9509-4.3391-7.2109-9.5287-3.0362-19.617-6.057-29.714-6.0078zm-1.8969 4.0891c10.27-0.01 21.1 3.0097 30.4 6.4797-16.14 2.04-32.73 8.44-41.52 22.8-10.71-1.1-21.04-5.0506-31.78-6.3906 12.75-10.31 27.43-17.719 42.9-22.889zm124.48 0.21c-2.8282 0.039-5.6766 0.28125-8.5375 0.75-4.98 0.98-15.62 0.84969-16.48 6.3297 19.85-2.68 42.36-4.6603 59.43 7.7797 2.59 1.06 8.7094 3.0609 8.3094-1.2891-12.77-8.06-27.45-13.78-42.72-13.57zm44.295 30.762c-1.5578 0.0355-2.9703 0.375-3.7828 1.0875-53.38 5.24-106.57 14.121-160.24 13.541-0.93 1.57-0.7591 4.62 1.7609 3.85 56.2 1 111.93-8.0509 167.88-12.511 5.0325-3.45-0.9437-6.0736-5.6172-5.9672zm-106.01 28.066c3.8212-0.0187 6.1825 1.2672 3.1625 6.8422-1.76 11.41-22.429 10.85-23.719-0.57969-4.1-7.25 5.0091-4.3212 8.6391-5.2812 2.815 0.36 8.0959-0.96251 11.917-0.98125zm-120.03 0.82c11.49 0.8 23.009 0.63 34.509 0.35-0.92 5.38-3.1897 10.61-6.4297 15-11.43 5.12-23.46-5.94-28.08-15.35zm47.738 0.0156c1.0306-0.0295 2.1122 0.0238 3.0422 0.0938 10.21 1.83 24.23-2.1797 32.15 2.1703-10.71 5.98-25.53 0.81093-37.6 2.0109-3.315-3.3525-0.6841-4.1864 2.4078-4.275z"/>
</svg>
