<?xml version="1.0" encoding="UTF-8" standalone="no"?>
<svg
   xmlns:dc="http://purl.org/dc/elements/1.1/"
   xmlns:cc="http://creativecommons.org/ns#"
   xmlns:rdf="http://www.w3.org/1999/02/22-rdf-syntax-ns#"
   xmlns:svg="http://www.w3.org/2000/svg"
   xmlns="http://www.w3.org/2000/svg"
   xmlns:sodipodi="http://sodipodi.sourceforge.net/DTD/sodipodi-0.dtd"
   xmlns:inkscape="http://www.inkscape.org/namespaces/inkscape"
   version="1.1"
   x="0"
   y="0"
   width="1561.3549"
   height="1127.4724"
   viewBox="0 0 1561.3549 1127.4724"
   id="svg8409"
   inkscape:version="0.91 r13725"
   sodipodi:docname="AC-remix.svg">
  <metadata
     id="metadata8449">
    <rdf:RDF>
      <cc:Work
         rdf:about="">
        <dc:format>image/svg+xml</dc:format>
        <dc:type
           rdf:resource="http://purl.org/dc/dcmitype/StillImage" />
        <dc:title></dc:title>
        <dc:description>remix by j4p4n</dc:description>
        <cc:license
           rdf:resource="http://creativecommons.org/publicdomain/zero/1.0/" />
      </cc:Work>
      <cc:License
         rdf:about="http://creativecommons.org/publicdomain/zero/1.0/">
        <cc:permits
           rdf:resource="http://creativecommons.org/ns#Reproduction" />
        <cc:permits
           rdf:resource="http://creativecommons.org/ns#Distribution" />
        <cc:permits
           rdf:resource="http://creativecommons.org/ns#DerivativeWorks" />
      </cc:License>
    </rdf:RDF>
  </metadata>
  <sodipodi:namedview
     pagecolor="#ffffff"
     bordercolor="#666666"
     borderopacity="1"
     objecttolerance="10"
     gridtolerance="10"
     guidetolerance="10"
     inkscape:pageopacity="0"
     inkscape:pageshadow="2"
     inkscape:window-width="1916"
     inkscape:window-height="1035"
     id="namedview8447"
     showgrid="false"
     fit-margin-top="0"
     fit-margin-left="0"
     fit-margin-right="0"
     fit-margin-bottom="0"
     inkscape:zoom="0.21435469"
     inkscape:cx="1105.1218"
     inkscape:cy="422.59427"
     inkscape:window-x="4"
     inkscape:window-y="1"
     inkscape:window-maximized="1"
     inkscape:current-layer="layer2" />
  <defs
     id="defs8411">
    <linearGradient
       id="Gradient_1"
       gradientUnits="userSpaceOnUse"
       x1="1129.4"
       y1="347.703"
       x2="1573.014"
       y2="370.952">
      <stop
         offset="0"
         stop-color="#FFFFFE"
         id="stop8414" />
      <stop
         offset="1"
         stop-color="#1B1715"
         id="stop8416" />
    </linearGradient>
  </defs>
  <g
     id="Layer_1"
     transform="translate(0.00314869,-0.30435098)">
    <g
       id="g8419">
      <path
         d="m 1538.23,17.006 c -21.95,-27.754 -386.3,3.468 -386.3,3.468 l -70.24,19.655 c 0,0 -1018.439,276.32 -1044.777,299.443 -26.336,23.131 -34.828,166.846 -30.728,241.66 4.101,74.815 4.392,194.239 122.914,231.237 39.511,18.502 1391.571,-78.618 1426.691,-106.364 0,0 4.38,-661.353 -17.56,-689.099"
         id="path8421"
         inkscape:connector-curvature="0"
         style="fill:#f4f4f1" />
      <path
         d="m 1538.23,17.006 c -21.95,-27.754 -386.3,3.468 -386.3,3.468 l -70.24,19.655 c 0,0 -1018.439,276.32 -1044.777,299.443 -26.336,23.131 -34.828,166.846 -30.728,241.66 4.101,74.815 4.392,194.239 122.914,231.237 39.511,18.502 1391.571,-78.618 1426.691,-106.364 0,0 4.38,-661.353 -17.56,-689.099 z"
         id="path8423"
         inkscape:connector-curvature="0"
         style="fill-opacity:0;stroke:#8a8b8c;stroke-width:10.40999985" />
      <path
         d="m 25.853,670.015 c 0,0 -31.245,-294.349 23.177,-319.039 52.994,-24.043 297.616,-91.132 297.616,-91.132 0,0 -252.049,104.908 -271.327,159.236 C 56.04,473.406 45.526,543.508 45.526,543.508 L 25.853,670.015"
         id="path8425"
         inkscape:connector-curvature="0"
         style="fill:#deded9" />
    </g>
    <path
       d="m 65.314,770.394 c 5.001,0.463 40.162,37.848 78.177,37.862 205.352,0.07 217.828,-0.575 915.909,-51.129 0,0 389.03,-35.153 471.61,-46.979 -187.97,-37.472 -228.15,-77.119 -228.15,-77.119 L 58.374,770.394"
       id="path8427"
       inkscape:connector-curvature="0"
       style="fill:#c4c5c2" />
    <path
       d="m 27.472,703.293 -8.397,-18.197 1182.655,-208.038 13.8,37.6 L 27.472,703.293"
       id="path8429"
       inkscape:connector-curvature="0"
       style="fill:#deded9" />
    <path
       d="m 27.472,703.293 -8.397,-18.197 1182.655,-208.038 13.8,37.6 L 27.472,703.293"
       id="path8431"
       inkscape:connector-curvature="0"
       style="fill-opacity:0;stroke:#8a8b8c;stroke-width:3.47000003;stroke-linecap:round;stroke-linejoin:round" />
    <path
       d="M 1273.08,607.746 55.368,758.351 c 0,0 -15.994,-11.548 -29.515,-57.105 L 1215.53,514.658 c 0,0 31.87,70.41 57.55,93.088"
       id="path8433"
       inkscape:connector-curvature="0"
       style="fill:#030605" />
    <path
       d="M 1555.52,704.703 C 1350.89,706.605 1256.64,588.465 1256.64,588.465 1170.18,488.017 1145.75,146.642 1146.25,26.14 l 74,-9.326 c 0,0 -25.92,427.717 68.72,552.002 0,0 47.32,93.381 266.55,135.887 z"
       id="path8435"
       inkscape:connector-curvature="0"
       style="fill:url(#Gradient_1)" />
    <path
       d="M 1555.52,704.703 C 1350.89,706.605 1256.64,588.465 1256.64,588.465 1170.18,488.017 1145.75,146.642 1146.25,26.14 l 74,-9.326 c 0,0 -25.92,427.717 68.72,552.002 0,0 47.32,93.381 266.55,135.887 z m -339.99,-581.342 334.13,0 M 189.321,741.781 c 0,0 13.596,45.4 72.498,71.332 M 955.534,646.627 c 0,0 23.41,72.01 124.806,113.162"
       id="path8437"
       inkscape:connector-curvature="0"
       style="fill-opacity:0;stroke:#8a8b8c;stroke-width:3.47000003" />
    <path
       d="m 1254.71,713.853 -130.16,13.741 -59.01,-39.227 129.05,-15.76 60.12,41.246"
       id="path8439"
       inkscape:connector-curvature="0"
       style="fill:#8a8b8c" />
    <path
       d="m 1254.71,713.853 -130.16,13.741 -59.01,-39.227 129.05,-15.76 60.12,41.246 z"
       id="path8441"
       inkscape:connector-curvature="0"
       style="fill-opacity:0;stroke:#8a8b8c;stroke-width:1.89699996" />
    <path
       d="m 1257.16,670.439 c 0,6.451 -5.24,11.692 -11.7,11.692 -6.46,0 -11.7,-5.241 -11.7,-11.692 0,-6.459 5.24,-11.705 11.7,-11.705 6.46,0 11.7,5.246 11.7,11.705"
       id="path8443"
       style="fill:#68e145;fill-opacity:1"
       inkscape:connector-curvature="0" />
    <path
       d="m 1293,691.517 c 0,6.452 -5.24,11.69 -11.69,11.69 -6.46,0 -11.69,-5.238 -11.69,-11.69 0,-6.466 5.23,-11.699 11.69,-11.699 6.45,0 11.69,5.233 11.69,11.699"
       id="path8445"
       style="fill:#a2682f;fill-opacity:1"
       inkscape:connector-curvature="0" />
  </g>
  <g
     id="g9085"
     transform="matrix(3.5433071,0,0,3.5433073,1801.3534,-865.98321)">
    <g
       style="display:inline"
       transform="translate(0,-81.1)"
       id="layer1"
       inkscape:label="Layer 1" />
    <g
       inkscape:label="Layer 2"
       id="layer2">
      <flowRoot
         style="font-style:normal;font-weight:normal;font-size:40px;line-height:1.25;font-family:sans-serif;letter-spacing:1px;word-spacing:0px;fill:#000000;fill-opacity:1;stroke:none"
         id="flowRoot5979"
         xml:space="preserve"><flowRegion
           id="flowRegion5981"><rect
             y="87.023148"
             x="1315.7542"
             height="858.10059"
             width="1417.0918"
             id="rect5983" /></flowRegion><flowPara
           id="flowPara5985" /></flowRoot>      <g
         style="fill:#6775cc;fill-opacity:1;stroke:#3e60ca;stroke-opacity:1"
         transform="matrix(5.0494399,-0.5551984,-0.36655985,5.5188234,-1444.8859,291.76296)"
         id="g5665">
        <path
           style="color:#000000;font-style:normal;font-variant:normal;font-weight:normal;font-stretch:normal;font-size:medium;line-height:normal;font-family:sans-serif;text-indent:0;text-align:start;text-decoration:none;text-decoration-line:none;text-decoration-style:solid;text-decoration-color:#000000;letter-spacing:normal;word-spacing:normal;text-transform:none;direction:ltr;writing-mode:lr-tb;baseline-shift:baseline;text-anchor:start;white-space:normal;clip-rule:nonzero;display:inline;overflow:visible;visibility:visible;opacity:1;isolation:auto;mix-blend-mode:normal;color-interpolation:sRGB;color-interpolation-filters:linearRGB;solid-color:#000000;solid-opacity:1;fill:#6775cc;fill-opacity:1;fill-rule:nonzero;stroke:#3e60ca;stroke-width:1.47300005;stroke-linecap:round;stroke-linejoin:round;stroke-miterlimit:4;stroke-dasharray:none;stroke-dashoffset:0;stroke-opacity:1;color-rendering:auto;image-rendering:auto;shape-rendering:auto;text-rendering:auto;enable-background:accumulate"
           d="m 213.23053,51.539062 a 0.73657367,0.73657367 0 0 0 -0.33593,0.07227 c 0,0 -0.64187,0.313532 -1.19336,1.044922 -0.5515,0.73139 -1.07142,1.915601 -1.08789,3.650391 -0.0178,1.875893 1.05131,3.164226 1.95117,4.30664 0.89985,1.142415 1.65625,2.144014 1.65625,3.69336 0,1.667745 -0.43196,2.688839 -0.83203,3.300781 -0.40008,0.611942 -0.70703,0.773437 -0.70703,0.773437 a 0.73661726,0.73661726 0 1 0 0.74414,1.271485 c 0,0 0.64527,-0.395924 1.19726,-1.240235 0.552,-0.84431 1.07227,-2.177696 1.07227,-4.105468 0,-2.046166 -1.06297,-3.448098 -1.97461,-4.605469 -0.91164,-1.157371 -1.64724,-2.066602 -1.63477,-3.38086 0.0138,-1.455367 0.42307,-2.289378 0.79102,-2.777343 0.36794,-0.487965 0.63672,-0.59375 0.63672,-0.59375 a 0.73657367,0.73657367 0 0 0 -0.28321,-1.410157 z"
           id="path4874"
           inkscape:connector-curvature="0" />
        <path
           style="color:#000000;font-style:normal;font-variant:normal;font-weight:normal;font-stretch:normal;font-size:medium;line-height:normal;font-family:sans-serif;text-indent:0;text-align:start;text-decoration:none;text-decoration-line:none;text-decoration-style:solid;text-decoration-color:#000000;letter-spacing:normal;word-spacing:normal;text-transform:none;direction:ltr;writing-mode:lr-tb;baseline-shift:baseline;text-anchor:start;white-space:normal;clip-rule:nonzero;display:inline;overflow:visible;visibility:visible;opacity:1;isolation:auto;mix-blend-mode:normal;color-interpolation:sRGB;color-interpolation-filters:linearRGB;solid-color:#000000;solid-opacity:1;fill:#6775cc;fill-opacity:1;fill-rule:nonzero;stroke:#3e60ca;stroke-width:1.47300017;stroke-linecap:round;stroke-linejoin:round;stroke-miterlimit:4;stroke-dasharray:none;stroke-dashoffset:0;stroke-opacity:1;color-rendering:auto;image-rendering:auto;shape-rendering:auto;text-rendering:auto;enable-background:accumulate"
           d="m 224.27546,51.539062 a 0.73657373,0.73657373 0 0 0 -0.33594,0.07227 c 0,0 -0.64186,0.313532 -1.19336,1.044922 -0.5515,0.73139 -1.07142,1.915601 -1.08789,3.650391 -0.0178,1.875893 1.05131,3.164226 1.95117,4.30664 0.89986,1.142415 1.6582,2.144014 1.6582,3.69336 0,1.667745 -0.43195,2.688839 -0.83203,3.300781 -0.40007,0.611942 -0.70898,0.773437 -0.70898,0.773437 a 0.73661726,0.73661726 0 1 0 0.74414,1.271485 c 0,0 0.64527,-0.395924 1.19726,-1.240235 0.552,-0.84431 1.07227,-2.177696 1.07227,-4.105468 0,-2.046166 -1.06297,-3.448098 -1.97461,-4.605469 -0.91164,-1.157371 -1.64724,-2.066602 -1.63477,-3.38086 0.0138,-1.455367 0.42307,-2.289378 0.79102,-2.777343 0.36795,-0.487965 0.63672,-0.59375 0.63672,-0.59375 a 0.73657373,0.73657373 0 0 0 -0.2832,-1.410157 z"
           id="path4874-0"
           inkscape:connector-curvature="0" />
        <path
           style="color:#000000;font-style:normal;font-variant:normal;font-weight:normal;font-stretch:normal;font-size:medium;line-height:normal;font-family:sans-serif;text-indent:0;text-align:start;text-decoration:none;text-decoration-line:none;text-decoration-style:solid;text-decoration-color:#000000;letter-spacing:normal;word-spacing:normal;text-transform:none;direction:ltr;writing-mode:lr-tb;baseline-shift:baseline;text-anchor:start;white-space:normal;clip-rule:nonzero;display:inline;overflow:visible;visibility:visible;opacity:1;isolation:auto;mix-blend-mode:normal;color-interpolation:sRGB;color-interpolation-filters:linearRGB;solid-color:#000000;solid-opacity:1;fill:#6775cc;fill-opacity:1;fill-rule:nonzero;stroke:#3e60ca;stroke-width:1.47300017;stroke-linecap:round;stroke-linejoin:round;stroke-miterlimit:4;stroke-dasharray:none;stroke-dashoffset:0;stroke-opacity:1;color-rendering:auto;image-rendering:auto;shape-rendering:auto;text-rendering:auto;enable-background:accumulate"
           d="m 235.32038,51.539062 a 0.73657373,0.73657373 0 0 0 -0.33594,0.07227 c 0,0 -0.64186,0.313532 -1.19336,1.044922 -0.5515,0.73139 -1.07142,1.915601 -1.08789,3.650391 -0.0178,1.875893 1.05132,3.164226 1.95117,4.30664 0.89986,1.142415 1.65821,2.144014 1.65821,3.69336 0,1.667745 -0.43196,2.688839 -0.83204,3.300781 -0.40007,0.611942 -0.70898,0.773437 -0.70898,0.773437 a 0.73661726,0.73661726 0 1 0 0.74414,1.271485 c 0,0 0.64527,-0.395924 1.19727,-1.240235 0.55199,-0.84431 1.07226,-2.177696 1.07226,-4.105468 0,-2.046166 -1.06297,-3.448098 -1.97461,-4.605469 -0.91164,-1.157371 -1.64724,-2.066602 -1.63476,-3.38086 0.0138,-1.455367 0.42307,-2.289378 0.79101,-2.777343 0.36795,-0.487965 0.63672,-0.59375 0.63672,-0.59375 a 0.73657373,0.73657373 0 0 0 -0.2832,-1.410157 z"
           id="path4874-2"
           inkscape:connector-curvature="0" />
      </g>
    </g>
  </g>
</svg>
