<?xml version="1.0" encoding="UTF-8"?>
<!DOCTYPE svg PUBLIC "-//W3C//DTD SVG 1.1//EN" "http://www.w3.org/Graphics/SVG/1.1/DTD/svg11.dtd">
<svg version="1.1" xmlns="http://www.w3.org/2000/svg" xmlns:xlink="http://www.w3.org/1999/xlink" x="0" y="0" width="457.444" height="212.155" viewBox="0, 0, 457.444, 212.155">
  <g id="Layer_1">
    <path d="M1.253,51.002 C21.589,52.949 41.751,57.111 60.554,63.233 C61.692,64.015 63.554,64.505 63.785,65.898 L63.046,66.528 C64.916,66.847 63.871,69.18 63.449,70.178 C62.356,70.949 60.572,69.606 59.919,71.276 C59.854,72.13 59.96,73.001 58.901,73.264 C39.603,71.231 24.554,74.354 6.63,72.429 C6.158,71.875 6.394,71.031 6.463,70.178 C11.019,69.156 15.24,70.178 19.574,69.828 C21.654,69.651 24.735,69.892 27.041,69.039 C20.274,67.473 11.206,66.765 3.195,65.784 C2.746,64.895 2.655,63.856 2.737,62.825 L5.351,62.345 C13.053,62.948 21.109,63.406 28.194,63.103 C24.931,60.778 20.469,60.602 16.435,59.421 C11.288,56.952 4.942,56.626 0,53.83 C0.763,52.858 -0.331,51.393 1.253,51.002" fill="#C43268" id="path833"/>
    <path d="M10.747,2.508 C31.143,12.375 51.068,23.925 70.915,34.26 L72.154,36.079 C73.361,36.002 70.216,36.619 69.072,35.839 C67.175,35.862 65.959,33.869 64.193,34.423 C65.673,35.231 67.384,37.605 66.195,39.579 C65.283,40.196 63.263,39.688 63.299,41.412 C55.284,40.442 47.123,36.874 39.045,34.519 L15.821,27.697 C15.181,27.134 15.599,26.135 15.667,25.282 C17.369,23.349 18.748,25.518 20.605,26.008 C24.539,26.317 28.198,27.987 31.62,28.25 C27.875,25.546 23.7,23.843 19.769,21.298 C15.798,19.264 11.65,17.213 7.524,14.993 L7.738,12.257 C17.382,14.39 26.473,19.237 35.655,22.886 L36.022,22.569 C27.226,16.196 18.236,10.16 8.264,5.585 C6.839,3.924 8.641,0.792 10.747,2.508" fill="#C43268" id="path835"/>
    <path d="M12.34,98.363 C32.3,96.312 54.58,93.234 74.8,92.245 C74.891,93.285 76.021,94.238 74.913,95.177 C73.792,96.299 70.81,94.859 70.933,97.628 C69.422,99.398 66.036,98.617 63.735,99.47 C46.756,102.957 30.186,107.849 12.63,107.853 C12.685,107.168 11.682,106.742 12.108,105.743 C23.364,104.908 33.871,102.63 44.391,100.187 C32.99,100.669 20.564,101.073 8.645,101.513 C6.308,98.399 10.447,98.382 12.34,98.363" fill="#C43268" id="path837"/>
    <path d="M44.242,62.644 C39.753,62.808 31.08,59.2 24.109,58.133 C30.359,59.658 38.074,60.093 44.242,62.644" fill="#C43268" id="path839"/>
    <path d="M49.488,63.747 L46.951,63.197 L49.175,63.374 z" fill="#C43268" id="path841"/>
    <path d="M109.021,5.063 C112.62,3.107 116.265,2.708 119.51,0.892 C127.157,-0.061 135.712,-1.622 141.93,4.723 C149.283,9.77 154.416,18.956 158.269,26.831 C159.971,27.144 159.286,24.847 160.543,24.257 C171.608,10.491 191.265,1.36 208.766,6.52 C212.66,7.346 216.041,10.369 220.189,10.174 C226.221,5.658 234.558,4.759 241.675,6.175 C259.634,14.304 272.378,36.139 271.044,55.319 C270.822,62.526 267.772,70.723 260.483,73.591 C251.492,74.095 245.419,68.109 239.228,63.661 C239.746,68.009 239.423,74.354 245.106,76.523 C247.866,78.629 252.309,81.22 253.185,85.419 C267.45,90.158 280.257,82.728 293.242,79.614 C314.665,69.933 342.722,65.594 362.152,81.234 C364.167,81.906 365.742,83.757 367.588,84.42 C373.72,89.549 379.73,96.388 388.912,93.498 C396.232,92.349 403.929,86.409 407.742,79.482 C414.808,66.257 411.5,51.371 414.88,36.824 C416.229,32.798 418.698,29.894 422.742,28.836 C423.89,27.375 426.585,28.101 428.351,27.552 C440.46,26.78 449.524,36.275 454.961,45.997 C458.651,56.099 458.378,68.308 453.132,78.048 C451.462,86.181 445.925,93.153 442.24,100.61 C440.774,101.704 439.73,104.027 438.254,105.289 C427.784,120.309 410.21,127.017 392.529,128.56 C386.955,129.323 378.772,128.342 373.902,126.754 C372.69,129.06 373.616,132.582 373.562,135.504 C374.901,142.494 377.841,148.929 381.136,155.211 C380.851,161.039 383.66,166.939 379.516,171.441 C375.287,177.132 371.22,182.833 370.298,190.167 C370.203,191.366 369.572,192.863 369.672,193.735 C367.789,195.822 368.31,200.17 366.59,202.276 C365.152,207.496 358.384,205.934 354.436,208.031 C342.273,209.493 329.31,212.261 316.924,212.152 C311.951,211.925 305.274,211.399 301.302,207.132 C293.37,207.369 285.572,207.967 280.307,200.488 C279.853,195.287 280.739,192.772 283.298,188.678 C294.69,177.35 314.501,188.198 324.45,175.553 C325.326,170.969 319.535,167.937 317.397,164.497 C316.847,162.727 314.542,161.338 316.076,159.396 L309.182,152.833 C293.642,160.049 275.442,163.78 257.478,157.898 C239.619,172.675 220.076,186.981 198.976,194.796 C190.784,196.041 184.479,195.205 175.625,193.989 C169.452,191.438 162.045,189.314 160.938,181.471 C161.324,178.749 161.01,176.143 157.575,176.052 C151.825,174.736 146.301,170.515 145.407,164.416 C145.861,160.839 146.655,157.281 149.26,154.739 C156.935,149.138 167.178,148.049 176.11,150.473 C188.124,144.355 199.72,137.002 211.135,129.804 C212.655,128.034 210.776,125.647 210.068,123.695 C208.257,124.757 205.521,124.548 203.392,123.168 C201.74,120.119 198.1,116.042 196.829,112.503 C197.714,109.991 201.291,110.445 203.151,108.693 C201.88,107.385 200.655,105.398 199.239,103.737 C181.792,115.453 162.663,122.215 141.699,119.538 C134.791,117.614 127.557,113.265 124.67,106.147 C122.369,102.525 120.681,97.746 122.9,93.611 C124.765,89.622 129.204,87.906 133.348,87.715 C137.578,86.5 143.069,93.302 144.331,86 C146.174,84.42 148.834,83.421 150.853,84.098 C153.004,85.128 152.95,90.289 156.25,87.625 C158.705,87.126 159.386,89.413 160.307,90.865 C162.268,89.99 164.496,87.924 166.811,89.14 C168.781,90.33 168.018,93.542 170.805,93.071 C176.151,90.729 182.991,86.966 184.521,80.717 C185.061,78.18 184.208,75.87 183.299,74.254 C179.991,79.156 177.177,86.508 170.224,87.343 C165.717,87.679 166.207,79.283 160.952,82.655 C156.263,83.15 156.74,70.442 151.584,79.165 C150.159,79.741 148.08,79.918 146.769,79.128 C144.817,77.603 143.9,76.151 142.167,74.118 C139.725,76.682 135.767,76.714 132.694,76.305 C127.883,74.032 125.805,69.738 124.116,64.955 C111.885,58.487 93.958,50.018 94.761,33.211 C94.148,21.28 100.375,12.13 109.021,5.063" fill="#332D2B" id="path843"/>
    <path d="M109.725,9.247 C108.745,15.197 113.542,19.877 117.404,23.281 C120.168,23.149 122.959,24.919 125.41,22.187 C129.286,21.111 134.383,19.79 137.111,15.705 C137.932,9.569 130.28,6.211 126.903,3.193 C142.938,2.898 151.053,22.305 157.344,34.337 C158.71,34.445 160.403,34.75 160.884,33.061 C162.254,26.625 167.079,22.187 171.704,18.075 C177.118,14.884 182.429,10.827 188.342,10.087 C181.33,13.836 173.928,18.247 169.779,24.982 C168.186,25.545 165.504,24.646 163.975,26.589 C163.471,28.618 165.685,28.968 166.852,29.403 C163.353,36.701 161.742,46.214 167.251,52.85 C173.161,54.348 178.248,50.957 182.46,47.667 C188.737,42.31 193.525,36.139 196.657,29.158 C198.813,27.951 205.407,31.736 204.913,27.052 C203.71,24.892 200.674,26.204 198.69,25.187 C199.448,19.908 199.843,12.71 194.778,9.211 L192.899,9.061 C200.233,7.745 208.902,9.116 214.97,13.037 C214.108,15.206 210.473,17.676 209.374,20.689 C212.124,22.967 209.088,26.517 211.117,29.258 C211.993,37.764 218.85,44.676 224.043,50.935 L233.51,59.77 C233.156,66.456 239.029,72.774 236.242,79.786 C229.93,92.199 218.12,100.056 206.905,106.922 C204.236,105.851 204.078,103.428 203.047,101.276 C207.332,97.142 213.591,94.191 216.441,88.56 C215.492,87.452 216.041,84.915 213.958,85.092 C208.326,93.261 200.261,97.273 192.563,103.21 C182.669,108.638 172.158,113.146 161.674,115.08 C152.801,116.269 144.89,116.17 136.553,112.757 C131.696,108.761 126.481,102.847 126.331,95.948 C126.835,93.924 128.374,91.8 130.489,91.282 C142.725,93.274 153.037,100.105 166.798,98.09 C175.148,94.786 186.831,90.71 188.651,80.698 C189.404,77.657 188.819,74.167 187.662,71.321 C183.186,64.777 173.251,64.159 166.258,65.508 C161.347,66.674 154.988,66.519 149.447,66.941 C133.698,65.703 118.734,59.022 106.593,49.119 C98.329,42.615 97.775,32.067 100.543,23.158 C102.336,17.789 105.127,13.019 109.725,9.247" fill="#DE9C5A" id="path845"/>
    <path d="M110.324,32.368 C110.964,32.935 111.095,33.457 110.868,34.134 C109.525,35.922 108.227,34.959 106.711,34.492 C106.856,32.608 108.817,31.727 110.324,32.368" fill="#332D2B" id="path847"/>
    <path d="M118.089,5.776 C120.726,5.122 123.24,6.007 125.392,7.038 C121.403,9.652 119.052,13.255 117.53,17.263 C114.821,16.71 115.435,13.31 114.199,11.495 C114.073,8.726 115.942,6.811 118.089,5.776" fill="#FEFEFE" id="path849"/>
    <path d="M116.392,40.591 C117.023,41.331 118.571,41.277 118.126,42.619 C116.633,44.054 115.321,43.255 113.791,42.969 C113.941,41.085 115.14,41.181 116.392,40.591" fill="#332D2B" id="path851"/>
    <path d="M122.433,31.596 C123.472,31.505 124.489,31.759 125.288,32.508 C125.932,33.071 124.77,34.704 123.59,34.437 C122.447,33.665 120.604,32.998 122.433,31.596" fill="#332D2B" id="path853"/>
    <path d="M124.452,51.897 L127.161,52.456 C127.057,53.822 126.004,54.085 124.919,54.688 L121.357,54.066 C121.493,52.351 122.9,51.947 124.452,51.897" fill="#332D2B" id="path855"/>
    <path d="M131.392,44.699 C132.604,44.617 133.775,45.053 134.024,46.278 C133.062,47.586 131.138,47.949 130.203,46.669 C129.94,45.611 130.838,45.171 131.392,44.699" fill="#332D2B" id="path857"/>
    <path d="M141.091,70.246 C140.142,71.376 138.808,72.992 136.893,73.359 C133.897,74.163 131.623,70.196 130.216,68.362 L129.944,67.477 C133.185,67.904 137.383,69.27 141.091,70.246" fill="#FEFEFE" id="path859"/>
    <path d="M140.51,53.503 C141.513,53.921 142.966,53.009 143.369,54.411 C143.473,55.282 142.902,55.927 142.207,56.045 L139.298,55.817 C139.212,54.774 139.775,54.13 140.51,53.503" fill="#332D2B" id="path861"/>
    <path d="M175.452,68.985 C177.122,69.633 179.006,69.784 180.308,70.746 C177.708,75.362 176.078,80.744 171.177,83.976 C168.876,82.587 168.853,78.457 165.603,78.203 C163.497,78.72 161.033,79.392 160.761,76.269 C160.171,75.016 159.621,73.256 158.119,72.621 C153.213,69.307 150.04,81.28 147.263,72.801 L145.171,70.914 C154.08,71.44 165.285,69.044 175.452,68.985" fill="#FEFEFE" id="path863"/>
    <path d="M148.157,87.674 C150.318,88.704 148.742,93.402 152.814,91.999 C153.953,92.776 154.434,91.092 155.292,91.159 C156.117,91.573 156.367,92.798 156.467,93.665 C153.667,94.305 151.103,91.863 148.134,92.318 C147.748,90.742 144.876,92.236 145.906,90.075 z" fill="#FEFEFE" id="path865"/>
    <path d="M151.774,50.426 C152.746,51.189 154.666,50.825 154.53,52.536 C153.414,53.657 151.479,54.194 150.55,52.913 z" fill="#332D2B" id="path867"/>
    <path d="M155.278,154.866 C161.863,152.116 170.015,151.372 176.169,154.095 L178.08,153.895 L214.044,132.273 C216.535,135.568 219.426,138.21 222.731,140.016 L222.621,141.387 C214.171,148.122 205.702,155.212 196.607,161.375 C184.298,160.24 170.473,160.876 163.243,171.841 C163.334,172.885 162.558,174.028 161.514,174.119 C159.304,173.774 157.479,172.939 155.687,171.595 C159.295,169.471 163.697,168.264 166.475,165.722 C166.979,165.94 167.201,165.269 167.559,165.124 C167.773,162.383 165.53,164.615 164.233,163.653 C159.962,165.387 155.995,167.656 151.783,168.709 C151.293,168.319 151.348,167.638 150.69,167.238 C156.985,163.78 163.016,159.432 169.865,157.725 C170.241,157.245 169.588,156.845 169.279,156.309 C162.145,155.057 155.718,160.231 149.687,162.518 C150.109,159.278 152.419,156.182 155.278,154.866" fill="#DE9C5A" id="path869"/>
    <path d="M164.133,92.544 C164.432,93.084 164.923,93.47 164.709,93.969 L161.773,94.083 z" fill="#FEFEFE" id="path871"/>
    <path d="M171.499,29.421 L175.489,29.04 C175.262,29.716 175.393,30.243 176.038,30.811 C177.735,31.119 179.079,31.564 180.227,30.107 L180.309,29.076 C183.939,28.845 188.115,28.314 192.063,28.454 C187.561,37.572 181.044,46.01 171.245,50.235 C168.849,50.045 168.349,47.599 167.814,45.66 C167.247,39.761 168.726,34.024 171.499,29.421" fill="#FEFEFE" id="path873"/>
    <path d="M192.958,12.683 C194.528,16.767 195.25,20.784 193.53,25.123 L175.484,24.737 C179.905,18.891 186.454,14.412 192.958,12.683" fill="#ABDCF6" id="path875"/>
    <path d="M183.281,164.46 C188.006,163.452 193.679,163.562 198.758,164.642 C213.481,152.542 230.401,143.201 239.628,126.536 C239.024,125.456 237.64,125.519 236.614,125.438 L233.45,128.46 L233.764,128.832 C231.513,131.237 229.198,134.324 226.747,137.065 C221.514,135.785 216.204,128.832 215.45,123.087 C225.544,119.573 233.687,114.536 240.894,105.979 C245.119,100.455 248.696,94.368 251.605,88.051 C265.243,94.114 279.621,86.462 292.933,83.549 C309.531,78.312 326.31,70.673 344.124,76.205 C357.295,79.473 367.216,91.273 378.962,97.364 C389.759,98.036 401.16,95.317 408.245,86.235 C418.034,73.4 417.522,55.8 418.97,39.561 C419.923,36.184 421.816,31.858 425.987,31.327 C433.62,30.552 443.201,33.538 447.917,41.485 C460.375,60.365 448.085,83.163 437.673,99.561 C423.863,121.888 397.185,128.405 373.162,123.077 C372.54,119.928 374.251,115.752 370.248,114.064 C368.156,114.418 367.612,116.959 368.491,118.92 C368.224,131.129 369.698,145.189 376.91,156.427 C376.689,161.401 379.43,168.154 374.987,172.112 C365.26,179.792 367.72,192.372 362.632,202.303 C350.114,205.97 335.414,206.887 322.207,208.43 C323.978,205.644 327.599,203.347 328.897,199.997 C324.581,197.937 322.125,202.911 318.871,204.899 C317.86,208.947 314.61,208.693 311.569,207.94 C313.012,204.953 316.452,202.812 318.866,200.587 C320.496,199.517 321.894,199.28 323.07,197.483 C322.624,196.584 320.968,195.759 319.87,196.539 C314.946,197.873 310.502,201.831 307.098,205.698 C305.241,205.198 304.548,203.083 303.971,201.658 C304.216,198.581 307.811,196.62 310.511,195.114 C321.477,189.259 336.277,193.698 345.654,183.931 C345.077,182.506 346.742,183.15 346.838,181.952 C344.982,177.159 346.661,171.096 348.758,166.267 C346.629,164.896 342.326,164.905 340.185,163.697 C328.797,161.773 318.036,158.523 310.915,148.321 C307.951,142.231 307.965,133.28 311.886,127.217 C312.926,127.126 313.679,126.327 314.428,125.519 C313.284,124.747 311.45,123.912 310.034,124.493 C303.585,129.84 303.822,137.773 304.802,145.08 L306.822,150.055 C293.078,156.218 275.292,159.123 261.145,155.083 C265.353,149.728 272.859,146.188 273.739,139.371 C272.85,137.583 271.484,137.474 269.573,137.664 C267.608,138.545 270.054,140.288 268.579,141.55 C247.701,161.773 221.541,183.649 193.484,192.291 C185.646,191.338 180.758,192.154 174.231,189.749 C179.346,186.019 186.685,184.702 191.151,180.409 C188.192,178.62 184.724,181.107 181.606,181.38 C176.551,182.188 170.228,190.303 166.434,183.804 L166.584,181.915 C173.065,178.294 180.127,176.097 187.311,174.427 L189.308,173.201 C188.546,169.698 184.924,171.994 182.714,171.649 C176.891,173.429 171.231,175.398 165.825,178.421 C165.036,177.495 166.107,174.826 166.897,173.51 C170.591,168.118 176.968,165.858 183.281,164.46" fill="#DE9C5A" id="path877"/>
    <path d="M240.436,81.148 C242.46,77.349 245.401,81.539 247.375,82.728 L247.96,83.98 C243.091,102.189 226.647,118.63 207.544,120.745 C206.019,118.212 202.707,116.579 201.74,113.574 C216.299,107.835 233.106,95.549 240.436,81.148" fill="#FFF000" id="path879"/>
    <path d="M219.454,15.107 C225.677,10.432 235.303,6.198 243.023,10.932 C257.478,19.818 265.852,35.971 266.855,51.715 C266.655,58.586 266.012,66.801 259.371,70.242 C250.33,69.18 244.335,62.172 237.332,57.144 C226.466,48.543 211.811,33.448 215.501,19.446 z" fill="#785432" id="path881"/>
    <path d="M216.735,111.132 C218.033,112.094 220.107,109.855 219.935,112.076 C220.506,113.501 218.741,114.046 218.042,114.163 L215.532,113.283 C215.6,112.43 216.004,111.595 216.735,111.132" fill="#332D2B" id="path883"/>
    <path d="M226.811,105.561 C227.655,105.797 229.234,105.407 228.785,106.75 C229.194,108.158 227.428,108.71 226.557,108.811 C223.952,109.12 224.288,104.844 226.811,105.561" fill="#332D2B" id="path885"/>
    <path d="M238.362,94.414 C238.825,95.14 240.073,94.55 240.322,95.77 C240.74,97.01 239.12,97.918 238.081,98.009 C235.131,98.29 235.966,94.227 238.362,94.414" fill="#332D2B" id="path887"/>
    <path d="M288.236,189.405 C297.39,184.612 306.522,186.709 316.507,184.567 C322.299,183.133 327.536,180.092 329.056,173.846 C328.249,168.791 323.089,166.494 320.846,162.182 C327.663,165.296 335.084,167.265 342.931,168.218 C343.09,172.703 339.885,176.243 341.932,180.882 C339.091,188.579 328.575,186.546 321.545,188.406 C313.498,190.013 303.885,191.838 299.828,199.617 L299.138,204.037 L294.831,204.037 C294.994,201.995 300.345,199.653 297.046,197.846 C292.621,197.148 289.77,207.088 286.326,200.615 C289.444,198.11 293.506,196.876 295.679,193.262 C291.79,190.204 288.078,195.768 284.379,196.848 C284.624,193.771 286.348,191.493 288.236,189.405" fill="#DE9C5A" id="path889"/>
  </g>
</svg>
