<?xml version="1.0" encoding="utf-8"?>
<!-- Generator: Adobe Illustrator 17.0.0, SVG Export Plug-In . SVG Version: 6.00 Build 0)  -->
<!DOCTYPE svg PUBLIC "-//W3C//DTD SVG 1.1//EN" "http://www.w3.org/Graphics/SVG/1.1/DTD/svg11.dtd">
<svg xmlns="http://www.w3.org/2000/svg" xmlns:xlink="http://www.w3.org/1999/xlink" version="1.1" x="0px" y="0px" width="743.77px" height="703.672px" viewBox="0 0 743.77 703.672" enable-background="new 0 0 743.77 703.672" xml:space="preserve">
<g id="Layer_1">
	<g id="NXNGvW_1_" display="none">
		
			
	</g>
	<g>
		<g>
			<path fill="#0B783D" d="M721.225,132.593l12.745,5.741c0,0-385.931,445.696-361,557.5l-268.556-60.111c0,0,0-44.21,82.667-94.958     L721.225,132.593z"/>
		</g>
		<g>
			<path d="M720.426,125.653l16.009,7.211l7.335,3.304l-5.264,6.094l0,0c-9.417,10.29-18.729,20.774-27.963,31.284     c-9.193,10.555-18.396,21.107-27.447,31.788c-9.064,10.67-18.125,21.345-27.043,32.138c-8.928,10.785-17.855,21.572-26.658,32.46     c-8.801,10.889-17.552,21.819-26.254,32.788c-8.712,10.961-17.269,22.044-25.824,33.126     c-8.526,11.104-17.054,22.208-25.409,33.442c-8.372,11.22-16.681,22.486-24.903,33.814     c-8.222,11.328-16.383,22.699-24.408,34.164c-8.013,11.473-15.925,23.014-23.721,34.629     c-7.779,11.626-15.487,23.298-22.945,35.124c-7.469,11.818-14.786,23.727-21.873,35.761     c-7.107,12.022-13.903,24.217-20.401,36.545c-6.471,12.339-12.631,24.83-18.112,37.567     c-5.462,12.727-10.434,25.675-13.875,38.866c-1.733,6.583-3.078,13.222-3.731,19.804c-0.6,6.554-0.548,13.11,0.885,18.957     l0.002,0.009l1.69,9.144l-8.857-1.982l-268.555-60.111l-4.859-1.088l0.17-4.768l0.031-0.864l0.057-0.633l0.123-1.261l0.366-2.323     c0.29-1.513,0.634-2.976,0.999-4.437l1.282-4.256l1.546-4.099c0.479-1.39,1.159-2.653,1.74-3.98l0.907-1.967     c0.296-0.66,0.604-1.312,0.962-1.93l2.064-3.765l1.035-1.881c0.369-0.609,0.762-1.199,1.142-1.799l2.304-3.584l1.154-1.79     l1.255-1.704c1.7-2.247,3.326-4.567,5.095-6.749l5.458-6.403c0.884-1.095,1.888-2.061,2.852-3.07l2.912-3.005l2.914-3.003     c0.97-1.003,2.035-1.892,3.048-2.843l6.155-5.616c1.005-0.964,2.105-1.801,3.173-2.68l3.222-2.615     c2.157-1.73,4.277-3.515,6.466-5.197l6.698-4.852c2.246-1.594,4.436-3.283,6.73-4.798l13.84-8.968l-0.504,0.346L720.426,125.653z      M722.024,139.534l-531.3,405.998l-0.167,0.127l-0.338,0.219l-13.368,8.663c-2.214,1.461-4.306,3.081-6.466,4.613l-6.432,4.655     c-2.093,1.61-4.107,3.311-6.165,4.96l-3.073,2.492c-1.018,0.836-2.073,1.636-3.018,2.546l-5.819,5.312     c-0.956,0.897-1.973,1.741-2.88,2.682l-2.727,2.816l-2.729,2.814c-0.902,0.944-1.852,1.851-2.663,2.865l-5.059,5.933     c-1.632,2.013-3.105,4.13-4.669,6.187l-1.151,1.556l-1.038,1.619l-2.08,3.234c-0.344,0.54-0.703,1.074-1.034,1.619l-0.914,1.672     l-1.835,3.341c-0.324,0.551-0.59,1.121-0.844,1.695l-0.788,1.714c-0.5,1.148-1.118,2.269-1.509,3.442l-1.318,3.483l-1.055,3.505     c-0.285,1.159-0.561,2.33-0.783,3.467l-0.269,1.68l-0.071,0.756l-0.039,0.376c0,0.05-0.003,0.099-0.009,0.149l-4.689-5.855     l268.555,60.111l-7.167,7.161l-0.002-0.012c-1.564-7.881-1.196-15.533-0.238-22.867c1.041-7.329,2.704-14.417,4.781-21.312     c4.147-13.798,9.599-26.948,15.547-39.797c5.991-12.83,12.487-25.359,19.303-37.688c6.83-12.32,13.994-24.429,21.303-36.434     c7.324-11.997,14.865-23.849,22.554-35.597c7.713-11.732,15.485-23.419,23.421-34.991c7.931-11.575,15.974-23.07,24.115-34.493     c8.131-11.429,16.308-22.824,24.592-34.138c8.274-11.322,16.633-22.581,25.053-33.792c8.439-11.197,16.844-22.419,25.361-33.556     c8.493-11.156,17.1-22.222,25.655-33.329c8.569-11.096,17.188-22.154,25.858-33.172l26.029-33.041l26.193-32.918l26.334-32.818     l26.462-32.78v0l2.072,9.398L722.024,139.534z"/>
		</g>
	</g>
	<g>
		<g>
			<path fill="#0B783D" d="M719.225,115.593l12.745,5.741c0,0-382.952,461.369-381,527.5L92.415,588.723     c0,0,21.056-41.056,45.993-66.354L719.225,115.593z"/>
		</g>
		<g>
			<path d="M718.578,108.721l15.856,7.143l7.183,3.236l-5.03,6.067v0c-9.287,9.939-18.385,20.083-27.455,30.233     c-9.048,10.173-18.002,20.426-26.903,30.725c-8.896,10.303-17.725,20.661-26.498,31.067     c-8.761,10.415-17.495,20.854-26.135,31.368c-8.676,10.486-17.239,21.063-25.812,31.633c-8.51,10.62-17.052,21.215-25.457,31.918     l-12.621,16.044l-12.523,16.121c-8.335,10.758-16.648,21.532-24.874,32.374c-8.234,10.835-16.46,21.676-24.576,32.599     c-8.129,10.913-16.235,21.844-24.23,32.855c-8.009,11.001-15.966,22.038-23.81,33.155c-7.867,11.1-15.626,22.276-23.284,33.515     c-7.671,11.231-15.155,22.587-22.54,33.995c-3.687,5.708-7.338,11.436-10.94,17.192c-3.594,5.76-7.099,11.574-10.555,17.407     c-6.894,11.671-13.569,23.472-19.469,35.549c-2.926,6.038-5.734,12.119-8.01,18.271c-1.127,3.069-2.141,6.151-2.896,9.17     c-0.775,2.99-1.199,6.037-1.03,8.296l0,0.005l-0.271,7.668l-7.085-1.647L91.056,594.567l-7.532-1.751l3.552-6.831     c0.832-1.6,1.631-3.084,2.461-4.602c0.825-1.507,1.658-3.008,2.505-4.497l2.559-4.457c0.85-1.487,1.745-2.947,2.615-4.422     c0.866-1.477,1.782-2.926,2.673-4.388c0.887-1.465,1.809-2.91,2.73-4.356c0.918-1.447,1.832-2.897,2.788-4.323l2.845-4.291     l2.923-4.247c0.966-1.42,2.003-2.8,3.002-4.202c1.001-1.4,2.013-2.795,3.073-4.161l3.146-4.118l3.27-4.044     c1.067-1.362,2.244-2.656,3.377-3.978c1.148-1.312,2.257-2.649,3.485-3.91l3.608-3.831l0.333-0.354l0.498-0.349L718.578,108.721z      M719.872,122.465L141.85,527.284l0.831-0.702l-3.331,3.541c-1.13,1.155-2.175,2.419-3.249,3.646     c-1.062,1.241-2.16,2.442-3.174,3.738l-3.095,3.828l-2.999,3.926c-1.01,1.3-1.979,2.637-2.94,3.982     c-0.959,1.347-1.951,2.664-2.883,4.035l-2.816,4.092l-2.749,4.146c-0.923,1.377-1.809,2.782-2.698,4.184     c-0.892,1.4-1.785,2.8-2.646,4.222c-0.864,1.419-1.752,2.823-2.593,4.257c-0.844,1.431-1.714,2.849-2.538,4.291l-2.481,4.322     c-0.821,1.444-1.626,2.894-2.421,4.347c-0.789,1.442-1.588,2.93-2.313,4.324l-3.98-8.582l258.555,60.111l-7.356,6.021l0-0.009     c0.104-4.561,1.137-8.244,2.265-11.771c1.156-3.513,2.525-6.816,3.98-10.04c2.95-6.417,6.181-12.547,9.588-18.552     c6.864-11.967,14.172-23.539,21.712-34.939c3.768-5.7,7.621-11.336,11.475-16.965c3.848-5.633,7.74-11.232,11.665-16.806     c7.834-11.157,15.869-22.163,23.877-33.18c16.074-21.993,32.405-43.779,48.854-65.471l24.777-32.456l24.926-32.337l25.042-32.245     l25.124-32.181l25.119-32.186l25.041-32.252l24.971-32.314l24.851-32.419c8.256-10.831,16.497-21.676,24.689-32.564     c8.172-10.909,16.349-21.799,24.424-32.82v0l2.153,9.303L719.872,122.465z"/>
		</g>
	</g>
	<g>
		<g>
			<path fill="#0B783D" d="M717.225,98.593l12.745,5.741c0,0-379,465.556-401,507.5L77.415,549.723c0,0,17.623-29.116,28.993-44.354     L717.225,98.593z"/>
		</g>
		<g>
			<path d="M716.663,91.759l15.772,7.105l7.565,3.408l-5.376,5.851c-9.131,9.938-18.087,20.028-27.036,30.12     c-8.923,10.114-17.774,20.288-26.581,30.498c-8.805,10.212-17.557,20.466-26.268,30.754     c-8.701,10.296-17.387,20.605-25.999,30.974c-8.643,10.344-17.2,20.757-25.773,31.157c-8.518,10.445-17.081,20.854-25.532,31.353     c-8.482,10.474-16.932,20.974-25.339,31.508l-25.209,31.612l-25.081,31.714c-8.316,10.606-16.671,21.182-24.929,31.834     c-8.287,10.629-16.553,21.275-24.769,31.959c-8.23,10.673-16.428,21.372-24.575,32.107c-8.184,10.708-16.225,21.526-24.32,32.299     l-12.076,16.208c-4.017,5.409-7.958,10.873-11.94,16.305L367.35,564.89c-3.944,5.454-7.773,10.989-11.646,16.485     c-3.79,5.542-7.687,11.029-11.313,16.636l-2.76,4.185l-2.619,4.2l-1.306,2.098c-0.436,0.698-0.89,1.404-1.226,2.075l-2.196,4.05     l-0.001,0.002l-2.485,4.092l-4.267-1.054L75.977,555.548l-7.972-1.968l4.278-6.964l3.496-5.692l3.533-5.649l3.54-5.645     l3.636-5.602l3.636-5.601l1.818-2.801l1.923-2.772l7.734-11.074l0.546-0.782l0.937-0.624L716.663,91.759z M717.788,105.427     L109.733,510.363l1.483-1.406l-7.436,10.656l-1.855,2.671l-1.789,2.757l-3.578,5.513l-3.579,5.513l-3.5,5.58l-3.493,5.586     l-3.439,5.598l-3.695-8.932l251.555,62.111l-6.752,3.038l0.001-0.002l3.002-4.619c0.499-0.794,1.011-1.469,1.517-2.168     l1.523-2.091l3.046-4.172l3.112-4.044c4.129-5.418,8.32-10.714,12.501-16.039c8.446-10.559,16.868-21.107,25.362-31.591     l25.491-31.427l25.562-31.35l51.022-62.756l50.88-62.858l25.372-31.482l25.316-31.527c8.448-10.501,16.788-21.09,25.19-31.629     l25.004-31.78c8.324-10.602,16.581-21.258,24.833-31.919c8.242-10.668,16.449-21.366,24.615-32.097     c8.161-10.735,16.29-21.496,24.352-32.312c8.039-10.836,16.077-21.67,23.959-32.64l2.189,9.258L717.788,105.427z"/>
		</g>
	</g>
	<g>
		<g>
			<path fill="#0B783D" d="M713.225,83.593l12.745,5.741c0,0-375.317,476.594-425,487.5L70.415,515.723     c0,0,14.623-10.116,25.993-25.354L713.225,83.593z"/>
		</g>
		<g>
			<path d="M712.679,76.766l15.756,7.097l7.002,3.154l-4.752,6.029c-9.013,10.122-17.868,20.334-26.74,30.545     c-8.845,10.229-17.636,20.498-26.4,30.786L651.35,185.32l-26.035,31.064l-25.924,31.149l-25.81,31.239l-51.549,62.535     l-25.847,31.209l-25.928,31.146c-17.323,20.734-34.719,41.411-52.274,61.967c-8.806,10.253-17.567,20.551-26.486,30.719     c-4.453,5.09-8.929,10.161-13.437,15.208c-4.505,5.05-9,10.113-13.563,15.121c-9.123,10.022-18.409,19.907-28.042,29.575     c-4.838,4.821-9.806,9.531-15.044,14.114c-2.634,2.282-5.349,4.514-8.301,6.642c-1.508,1.053-3.02,2.094-4.748,3.072     c-1.745,0.969-3.51,1.944-6.096,2.614l-0.009,0.002l-1.313,0.34l-1.511-0.401L68.878,521.523l-12.487-3.31l10.611-7.424     c0.489-0.342,1.079-0.79,1.642-1.21c0.567-0.412,1.131-0.872,1.697-1.317c1.139-0.878,2.251-1.807,3.354-2.75     c1.121-0.919,2.202-1.888,3.268-2.873l1.611-1.464c0.548-0.477,1.044-1.005,1.562-1.51l3.085-3.059l2.906-3.2     c0.481-0.536,0.979-1.06,1.447-1.604l1.34-1.675l2.686-3.345l0.73-0.91l0.775-0.511L712.679,76.766z M713.772,90.42     L99.711,495.378l1.506-1.421l-3.012,3.762l-1.509,1.878c-0.521,0.607-1.068,1.186-1.601,1.781l-3.221,3.541l-3.382,3.357     c-0.568,0.554-1.116,1.132-1.713,1.654l-1.759,1.6c-1.165,1.075-2.346,2.132-3.573,3.14c-1.206,1.029-2.424,2.047-3.69,3.024     c-0.628,0.494-1.242,0.992-1.902,1.474c-0.655,0.487-1.272,0.96-2.027,1.488l-1.876-10.734l230.555,61.111l-2.824-0.061     l0.003-0.001c0.72-0.07,2.038-0.56,3.28-1.144c1.274-0.571,2.605-1.363,3.93-2.144c2.659-1.633,5.319-3.502,7.94-5.46     c5.254-3.926,10.333-8.256,15.365-12.653c10.059-8.826,19.748-18.184,29.316-27.664c4.777-4.749,9.541-9.52,14.237-14.359     c4.692-4.843,9.357-9.715,14.001-14.609c9.277-9.799,18.517-19.644,27.607-29.627c9.109-9.966,18.148-20,27.11-30.102     c8.983-10.084,17.879-20.246,26.742-30.437c8.879-10.177,17.66-20.44,26.438-30.705c8.788-10.257,17.479-20.596,26.177-30.93     c8.704-10.328,17.329-20.723,25.947-31.124l12.907-15.617l12.825-15.685c8.559-10.449,16.995-20.999,25.462-31.522     c8.413-10.568,16.832-21.13,25.152-31.771c8.353-10.615,16.62-21.299,24.86-32.003c8.233-10.711,16.411-21.464,24.528-32.265     c8.114-10.803,16.173-21.649,24.146-32.561c7.944-10.931,15.882-21.88,23.598-32.968l2.25,9.183L713.772,90.42z"/>
		</g>
	</g>
	<g>
		<g>
			<path fill="#0B783D" d="M23.193,468.501l261.111,72.222c0,0,40.278,6.944,184.722-158.333S717.859,77.446,717.859,77.446     L509.304,7.39c0,0-20.833,45.833-73.611,101.389S189.859,367.112,189.859,367.112S105.137,444.89,23.193,468.501z"/>
		</g>
		<g>
			<path d="M42.655,467.911l47.179,13.716l65.094,18.72l65.134,18.577l65.164,18.466l-0.334-0.075     c0.003-0.009,0.007-0.013,0.007-0.013l0.003,0.004l0.097-0.005l0.444-0.021c0.294-0.01,0.58,0,0.953-0.079     c0.707-0.128,1.395-0.185,2.123-0.354l2.21-0.586l1.107-0.291l1.11-0.409c1.476-0.57,2.974-1.026,4.438-1.682l4.385-2.017     c1.479-0.62,2.883-1.477,4.316-2.24l4.286-2.343c2.819-1.65,5.566-3.462,8.355-5.184c10.966-7.253,21.54-15.237,31.666-23.786     c5.064-4.276,10.196-8.469,15.06-12.994l7.391-6.672l3.696-3.336c1.235-1.109,2.406-2.29,3.612-3.431l14.378-13.808l1.797-1.726     l1.75-1.776l3.501-3.552l7.002-7.104c9.451-9.359,18.376-19.242,27.497-28.929c4.587-4.82,8.989-9.814,13.426-14.776     l13.308-14.888c4.475-4.928,8.752-9.999,13.132-15.044l13.068-15.137l26.101-30.306c4.373-5.034,8.596-10.183,12.879-15.286     l12.813-15.336l12.813-15.336l12.758-15.381l25.163-31.065c8.382-10.359,16.762-20.72,24.967-31.22l24.683-31.443     c4.124-5.232,8.133-10.554,12.199-15.831l12.142-15.873c8.096-10.582,16.064-21.256,24.006-31.95     c7.968-10.663,15.79-21.472,23.518-32.255l2.895,9.279l-0.006-0.002L507.393,13.078l7.373-3.205l-0.004,0.009     c-0.882,1.799-1.713,3.339-2.587,4.968c-0.885,1.584-1.747,3.187-2.662,4.741c-1.793,3.14-3.66,6.215-5.55,9.274     c-3.748,6.136-7.756,12.077-11.805,17.981c-8.159,11.764-16.852,23.116-25.99,34.079c-9.119,10.975-18.752,21.516-28.627,31.762     l-29.508,30.487l-29.428,30.563l-29.375,30.614l-29.3,30.685l-29.243,30.739l-29.202,30.778l-29.147,30.83l-29.112,30.864     l-7.266,7.728l-1.814,1.934l-0.907,0.967l-0.453,0.484l-0.227,0.242l-0.304,0.296l-0.122,0.113     c-1.343,1.236-2.659,2.415-3.996,3.603c-5.333,4.735-10.761,9.331-16.255,13.853c-10.996,9.028-22.266,17.717-33.796,26.071     c-5.755,4.191-11.625,8.228-17.528,12.221c-5.937,3.944-11.914,7.835-17.997,11.574c-12.124,7.542-24.675,14.443-37.559,20.78     c-3.227,1.572-6.495,3.074-9.767,4.565c-3.31,1.418-6.585,2.912-9.951,4.222C44.419,467.263,43.528,467.563,42.655,467.911z      M21.531,462.736c13.267-3.622,26.325-8.421,39.017-14.152c6.349-2.862,12.638-5.89,18.824-9.142     c3.115-1.58,6.162-3.302,9.248-4.947c3.04-1.734,6.115-3.405,9.127-5.194c12.112-7.042,23.904-14.672,35.454-22.666     c11.559-7.984,22.824-16.412,33.812-25.18c5.49-4.386,10.924-8.852,16.234-13.43c1.322-1.141,2.657-2.302,3.932-3.442     l0.123-0.111c0.206-0.199-0.142,0.148-0.064,0.067l0.23-0.238l0.461-0.477l0.921-0.954l1.842-1.908l7.358-7.64l29.383-30.606     l29.348-30.639l29.293-30.692l29.252-30.731l29.195-30.784l29.12-30.856l29.067-30.906l28.988-30.982     c9.532-10.33,18.73-20.913,27.441-31.9c8.682-11.001,16.86-22.389,24.452-34.119c3.738-5.899,7.433-11.825,10.841-17.89     c1.707-3.029,3.372-6.081,4.956-9.154c0.815-1.531,1.559-3.077,2.333-4.616c0.733-1.52,1.506-3.132,2.12-4.536l0.003-0.007     L506.147,0l5.068,1.702l208.549,70.053l0.006,0.002l7.939,2.883l-5.044,6.397c-4.153,5.267-8.336,10.471-12.517,15.679     l-6.242,7.835l-6.286,7.794c-8.406,10.371-16.672,20.85-25.15,31.157c-8.444,10.334-16.755,20.771-25.23,31.076l-25.378,30.948     c-8.387,10.374-17.043,20.528-25.526,30.821l-25.538,30.807l-12.944,15.264l-12.889,15.309l-12.889,15.309     c-4.307,5.093-8.559,10.237-12.948,15.252l-26.106,30.301l-13.035,15.166c-4.349,5.032-8.658,10.163-13.135,15.116     l-13.314,14.961c-4.439,4.986-8.842,10.004-13.437,14.853c-9.126,9.753-18.089,19.655-27.506,29.144l-6.989,7.185l-3.495,3.593     l-1.747,1.796l-1.797,1.749l-14.377,13.992c-1.207,1.157-2.377,2.352-3.615,3.478l-3.704,3.389l-7.409,6.778     c-4.871,4.591-10.037,8.873-15.131,13.231c-10.193,8.711-20.877,16.897-32.05,24.49c-2.861,1.813-5.665,3.703-8.577,5.451     l-4.46,2.503c-1.499,0.819-2.94,1.716-4.529,2.411l-4.676,2.211c-1.57,0.721-3.261,1.273-4.888,1.914l-1.232,0.464l-1.305,0.365     l-2.616,0.718c-0.892,0.215-1.869,0.334-2.801,0.496c-0.445,0.093-0.994,0.115-1.533,0.136l-0.805,0.03     c-0.073,0.001-0.12,0.007-0.215,0.003l-0.309-0.02l-0.616-0.061l-0.09-0.009l-0.245-0.066l-65.391-17.645l-65.422-17.534     l-65.461-17.391L0,468.614L21.531,462.736z"/>
		</g>
	</g>
	<g>
		<path fill="#26A059" d="M549.859,53.112c0,0-11.333,13.333-40.667,13.333c-20.667,27.333-247.333,300-364.333,377.667    c0.938,7.12-0.822,15.729-5,23.667c18.667,6.667,120,37.333,120,37.333s16-20.667,51.333-15.333    c98-64.667,332-369.333,332-369.333s-12.333-19.667-3-35.667C606.193,75.446,549.859,53.112,549.859,53.112z"/>
		<path d="M260.594,507.42l-1.314-0.394c-1.014-0.307-101.594-30.758-120.093-37.363l-2.171-0.775l1.074-2.04    c3.938-7.481,5.683-15.673,4.787-22.475l-0.163-1.236l1.04-0.69c33.864-22.48,99.161-76.708,217.917-207.388    C433.915,155.561,496.14,80.393,507.597,65.24l0.601-0.794h0.995c22.333,0,35.373-8.265,39.148-12.635l0.929-1.076l1.327,0.518    c0.562,0.223,56.621,22.4,90.125,31.597l2.51,0.689l-1.312,2.248c-8.623,14.784,2.85,33.41,2.967,33.597l0.739,1.178l-0.848,1.103    c-2.342,3.049-235.328,305.674-332.484,369.784l-0.641,0.423l-0.759-0.114c-3.768-0.568-7.491-0.857-11.064-0.857    c-26.021,0-38.271,15.286-38.392,15.441L260.594,507.42z M142.66,466.638c21.483,7.351,105.269,32.77,116.531,36.183    c3.421-3.755,16.379-15.921,40.639-15.921c3.53,0,7.191,0.266,10.895,0.79c94.075-62.708,314.79-347.608,330.065-367.403    c-1.064-1.93-3.098-5.99-4.525-11.14c-2.375-8.574-2.016-16.501,1.019-23.103c-31.038-8.796-78.646-27.335-86.919-30.583    c-3.402,3.241-15.458,12.731-40.177,12.98c-12.916,16.853-74.402,91.01-145.557,169.308    C246.767,367.445,181.314,422.095,146.98,445.102C147.572,451.786,146.029,459.461,142.66,466.638z"/>
	</g>
	<g>
		<polygon fill="#E6E7E8" points="351.859,185.779 305.193,236.112 527.526,322.779 575.859,268.445   "/>
	</g>
	<g>
		<polygon fill="#ABABAB" points="575.859,268.446 527.526,322.779 546.526,383.446 592.193,322.779   "/>
	</g>
	<g id="Layer_3">
	</g>
	<g>
		<polygon fill="#D1D3D4" points="487.349,278.218 389.351,241.291 399.554,227.344 497.552,264.272   "/>
	</g>
</g>
<g id="Layer_2" display="none">
</g>
</svg>
