<?xml version="1.0" encoding="utf-8"?>

<!DOCTYPE svg PUBLIC "-//W3C//DTD SVG 1.1//EN" "http://www.w3.org/Graphics/SVG/1.1/DTD/svg11.dtd">
<svg version="1.1" id="Layer_1" xmlns="http://www.w3.org/2000/svg" xmlns:xlink="http://www.w3.org/1999/xlink" x="0px" y="0px"
	 viewBox="0 0 2622.994 1219.618" enable-background="new 0 0 2622.994 1219.618" xml:space="preserve">
<g>
	<path d="M2561.445,832.395l2.186-25.446l7.71-30.062l-10.066-172.658l-135.25-239.49l-112.199-198.276l-195.419-67.036
		l-55.761-13.955l-126.72,137.009l-5.14,8.941l-3.089,4.656l0.721,5.543l23.558,29.835l2.625,13.827l30.401,25.412l32.739,15.508
		l19.554,0.499l71.031,20.324l47.677-22.061l3.398,2.509l68.429,26.766l13.691,41.153l26.349,103.96l-11.18,61.622l-8.994,45.536
		L1961.262,497.78l-139.41,104.892l-0.852,3.433l-24.295,186.105l205.584,121.227l8.654,2.1l393.636,5.795l154.179-59.786
		L2561.445,832.395 M2269.74,385.544l-16.191-51.238l-0.731-3.537l3.477-5.269l6.21-25.788l-0.128-12.579l-0.285-6.185l0.324-6.106
		l-1.72,5.998l-1.114,6.108l-2.619,11.927l-9.943,20.329l-0.588,0.604l-11.429,3.103l-57.771-19.427l-31.067-11.75l-0.435,0.15
		l-5.071-4.509l-19.635-10.639l-2.009-0.849l0.038-0.088l-0.537-0.127l-1.697-0.773l0.039-0.52l2.114-9.648l6.194-18.551
		l26.743,4.826l-27.447-8.365l-1.22-0.373l-0.703,1.304l-9.449,19.031l-3.824,10.465l-0.193,0.933l-1.945-0.185l-6.05,0.159
		l-5.317,2.583l5.311-0.715l5.246,1.618l3.03,1.389l0.926,1.511l1.786,1.535l4.836,3.009l15.867,11.571l2.885,3.311l-2.293,4.538
		l-24.714,12.727l-33.436-3.916l-4.824-2.078l-8.407-3.321l-6.547-5.047l-2.519-5.083l0.057-0.396l2.007-11.099l9.553-44.528
		l4.987-22.264l4.499-22.381l-6.315,21.9l-6.801,21.773l-13.234,43.763l-0.58,2.187l-13.588,10.483l-26.459-6.513l47.052-121.149
		l-58.405,113.283l-13.748-9.47l0.131-13.289l49.417-99.033l-58.766,88.729l-2.82-2.079l-9.55-7.507l1.582-2.794l79.888-116.941
		l-1.273,1.891l-3.003,5.951l-1.849,6.43l1.662,12.876l2.488-11.658l6.132-9.806l3.801-4.26l0.784-0.746l0.229,0.101l10.824,5.442
		l0.581,0.285l0.317,0.065l14.332,2.326l14.634,1.066l-13.504-5.738l-13.186-4.287l-10.937-5.935l-1.704-0.699l-0.16-0.05
		l0.211-0.059l59.64,15.105l181.024,59.176l106.735,190.933l139.211,245.238l3.65,145.301l-6.405,24.822l-6.807,10.169l-12.649,10.6
		l-14.01,1.027l-7.479-3.326l-3.69-2.465l-0.798-0.594l-0.492-0.414l-1.256-1.265l-5.493-7.407l-5.237-8.634l-9.726-18.351
		l-34.574-77.053l-31.827-78.662l-60.687-158.718l-29.835-79.594l-15.075-39.743l-7.732-19.8l-8.392-19.519l7.734,19.771
		l7.067,20.034l13.745,40.209l27.175,80.535l51.981,150.95l2.221,19.178l1.336,26.792l-5.747,25.453l-14.552,22.32l-8.773,10.327
		l-4.34,5.451l-1.076,1.369l-0.909,1.492l-1.807,2.981l-8.538,26.171l0.157,27.366l1.705,12.563l-48.996-94.034l2.384-23.501
		l8.373-30.295l3.227-16.295l-0.29-8.194l-0.719-8.003l-9.679-62.863l-6.252-33.241l1.914-14.646L2269.74,385.544 M2470.747,880.555
		l-98.867-59.667l-23.615-26.754l-1.374-13.515l0.761-27.017l9.096-24.999l8.136-10.517l9.229-10.149l15.905-22.708l7.128-27.137
		l-0.01-20.692l23.617,64.167l32.406,79.131l9.533,19.519l5.468,9.722l6.868,9.85l2.396,2.589l1.487,1.348l1.296,1.042l3.798,2.717
		l0.8,49.132L2470.747,880.555 M1850.015,613.293l0.247-0.999l9.879-6.694l26.225-14.177l56.242-21.099l119.022-9.067l56.834,18.785
		l25.373,16.221l24.612,18.249l51.202,33.66l13.479,7.302l6.884,3.379l7.039,3.053l7.22,2.597l7.421,1.947l1.405,0.198l3.054,3.343
		l-93.08,52.539l-55.151,14.326l-155.413-34.445l-119.963-58.294L1850.015,613.293 M2275.842,642.382l-1-4.334l11.096-70.919
		l3.975-19.084l1.083,4.349l13.245,61.543l1.15,7.698l0.724,7.587l-2.101,14.766l-6.643,31.122l-1.252,18.154L2275.842,642.382
		 M1968.284,526.83l280.963,124.652l13.386,14.65l-0.847-0.145l-7.293-2.151l-7.083-2.796l-6.895-3.245l-6.736-3.564l-13.177-7.668
		l-49.926-35.05l-23.95-18.921l-25.578-17.472l-58.19-21.218l-61.923-3.923l-61.309,9.512l-58.8,20.036l-8.799,4.034
		L1968.284,526.83 M1839.135,658.757l114.179,55.432l77.318,43.766l32.353,3.574l-6.504,5.269l-27.407,19.903l-60.606,29.46
		l-32.995,7.368l-16.898,1.481l-16.999-0.293l-14.167-1.427l-67.387-50.145L1839.135,658.757 M1893.662,827.417l7.585,1.02
		l17.367,1.245l17.439-0.578l34.472-5.758l64.425-27.101l29.363-18.974l14.035-10.166l6.828-4.904l3.227-2.122l1.256-0.679
		l0.079-0.044l-0.456,0.056l-0.03-0.226l33.161-8.078l53.998-14.018l99.595-53.076l75.591,138.264l-7.971-0.86l-23.899,4.792
		l-43.441,21.999l-21.169,11.895l-21.158,11.537l-45.571,13.281l-95.935,3.396l-96.166-8.942l-0.131,1.199L1893.662,827.417
		 M2400.755,891.659l-1.4,0.112l-1.359,0.373l-324.502,6.952l18.635,0.424l97.607-7.239l46.75-15.63l10.647-6.17l10.357-6.346
		l20.686-12.697l42.255-23.493l23.193-5.591l8.644,0.651l10.43,9.679l84.669,52.939L2400.755,891.659 M2493.828,873.646
		l-1.139-41.292l4.269,1.649l13.774,1.971l13.71-3.098l7.177-3.84l-0.058,2.79l-1.731,22.179L2493.828,873.646 M2089.795,759.352
		l-0.056,0.006l0.211-0.116L2089.795,759.352 M2126.954,159.383l13.507,5.737l-14.637-1.064l-14.331-2.328l-0.32-0.066l-0.577-0.287
		l-10.822-5.439l-0.232-0.101l-0.784,0.747l-3.8,4.258l-6.13,9.807l-2.488,11.658l-1.661-12.88l1.851-6.426l2.999-5.955l3.999-5.409
		l1.222-1.285l0.669-0.646l0.906-0.734l1.289-0.678l1.759-0.241l0.84,0.127l0.311,0.09l0.606,0.192l1.707,0.698l10.934,5.937
		L2126.954,159.383 M2103.832,146.264l-14.332-2.324l-0.32-0.065l-0.577-0.288l-10.823-5.438l-0.232-0.101l-0.783,0.745l-3.801,4.26
		l-6.132,9.803l-2.489,11.661l-1.661-12.877l1.852-6.431l3-5.951l4-5.409l1.222-1.285l0.667-0.647l0.906-0.734l1.291-0.677
		l1.759-0.241l0.838,0.126l0.314,0.091l0.604,0.191l1.705,0.696l10.939,5.938l13.183,4.287l13.507,5.737L2103.832,146.264"/>
	<path d="M58.549,832.395l2.685,29.15l154.18,59.786l393.636-5.795l8.654-2.1l205.584-121.227l-24.295-186.105l-0.852-3.433
		l-139.41-104.892L372.297,606.51l-8.994-45.536l-11.18-61.622l26.349-103.96l13.691-41.153l68.429-26.766l3.398-2.509
		l47.677,22.061l71.031-20.324l19.554-0.499l32.738-15.508l30.401-25.412l2.625-13.827l23.558-29.835l0.721-5.543l-3.089-4.656
		l-5.14-8.941L557.346,85.471l-55.761,13.955l-195.419,67.036L193.967,364.738l-135.25,239.49L48.651,776.886l7.71,30.062
		L58.549,832.395 M350.254,385.544l-27.887,116.651l1.914,14.646l-6.252,33.241l-9.68,62.863l-0.719,8.003l-0.29,8.194l3.227,16.295
		l8.372,30.295l2.384,23.501l-48.996,94.034l1.705-12.563l0.157-27.366l-8.538-26.171l-1.807-2.981l-0.909-1.492l-1.076-1.369
		l-4.34-5.451l-8.773-10.327l-14.552-22.32l-5.747-25.453l1.336-26.792l2.221-19.178l51.982-150.95l27.175-80.535l13.745-40.209
		l7.067-20.034l7.734-19.771l-8.392,19.519l-7.733,19.8l-15.075,39.743l-29.835,79.594l-60.687,158.718l-31.827,78.662
		l-34.574,77.053l-9.726,18.351l-5.237,8.634l-5.493,7.407l-1.256,1.265l-0.492,0.414l-0.798,0.594l-3.69,2.465l-7.478,3.326
		l-14.01-1.027l-12.649-10.6l-6.807-10.169l-6.405-24.822l3.65-145.301l139.211-245.238L327.139,187.76l181.024-59.176l59.64-15.105
		l0.211,0.059l-0.16,0.05l-1.704,0.699l-10.937,5.935l-13.186,4.287l-13.504,5.738l14.634-1.066l14.332-2.326l0.317-0.065
		l0.581-0.285l10.824-5.442l0.23-0.101l0.784,0.746l3.801,4.26l6.132,9.806l2.488,11.658l1.662-12.876l-1.849-6.43l-3.003-5.951
		l-1.273-1.891l79.888,116.941l1.582,2.794l-9.55,7.507l-2.82,2.079l-58.766-88.729l49.418,99.033l0.131,13.289l-13.749,9.47
		L565.91,169.383l47.052,121.149l-26.458,6.513l-13.588-10.483l-0.58-2.187l-13.234-43.763l-6.801-21.773l-6.315-21.9l4.499,22.381
		l4.987,22.264l9.553,44.528l2.007,11.099l0.057,0.396l-2.519,5.083l-6.547,5.047l-8.408,3.321l-4.824,2.078l-33.436,3.916
		l-24.714-12.727l-2.293-4.538l2.885-3.311l15.867-11.571l4.836-3.009l1.786-1.535l0.926-1.511l3.03-1.389l5.246-1.618l5.31,0.715
		l-5.317-2.583l-6.05-0.159l-1.945,0.185l-0.193-0.933l-3.824-10.465l-9.449-19.031l-0.703-1.304l-1.22,0.373l-27.447,8.365
		l26.743-4.826l6.194,18.551l2.114,9.648l0.039,0.52l-1.697,0.773l-0.537,0.127l0.038,0.088l-2.009,0.849l-19.635,10.639
		l-5.071,4.509l-0.435-0.15l-31.067,11.75l-57.771,19.427l-11.429-3.103l-0.588-0.604l-9.943-20.329l-2.619-11.927l-1.113-6.108
		l-1.72-5.998l0.324,6.106l-0.285,6.185l-0.128,12.579l6.21,25.788l3.477,5.269l-0.731,3.537L350.254,385.544 M149.247,880.555
		l-14.058-3.937l0.8-49.132l3.798-2.717l1.296-1.042l1.487-1.348l2.396-2.589l6.868-9.85l5.468-9.722l9.534-19.519l32.407-79.131
		l23.617-64.167l-0.01,20.692l7.128,27.137l15.905,22.708l9.229,10.149l8.136,10.517l9.096,24.999l0.761,27.017l-1.374,13.515
		l-23.615,26.754L149.247,880.555 M769.979,613.293l7.468,30.822l-119.963,58.294l-155.413,34.445l-55.151-14.326l-93.08-52.539
		l3.055-3.343l1.404-0.198l7.421-1.947l7.22-2.597l7.039-3.053l6.884-3.379l13.478-7.302l51.202-33.66l24.612-18.249l25.373-16.221
		l56.834-18.785l119.023,9.067l56.242,21.099l26.225,14.177l9.879,6.694L769.979,613.293 M344.152,642.382l-20.277,50.881
		l-1.252-18.154l-6.643-31.122l-2.101-14.766l0.724-7.587l1.15-7.698l13.245-61.543l1.083-4.349l3.975,19.084l11.096,70.919
		L344.152,642.382 M651.709,526.83l96.156,56.733l-8.799-4.034l-58.8-20.036l-61.309-9.512l-61.923,3.923l-58.19,21.218
		l-25.578,17.472l-23.95,18.921l-49.926,35.05l-13.177,7.668l-6.735,3.564l-6.895,3.245l-7.082,2.796l-7.293,2.151l-0.847,0.145
		l13.386-14.65L651.709,526.83 M780.859,658.757l19.113,114.388l-67.387,50.145l-14.167,1.427l-16.999,0.293l-16.898-1.481
		l-32.995-7.368l-60.606-29.46l-27.407-19.903l-6.504-5.269l32.353-3.574l77.318-43.766L780.859,658.757 M726.332,827.417
		l-102.496,53.162l-0.131-1.199l-96.166,8.942l-95.935-3.396l-45.571-13.281l-21.158-11.537l-21.169-11.895l-43.441-21.999
		l-23.899-4.792l-7.971,0.86l75.591-138.264l99.595,53.076l53.998,14.018l33.161,8.078l-0.03,0.226l-0.456-0.056l0.079,0.044
		l1.256,0.679l3.227,2.122l6.828,4.904l14.035,10.166l29.364,18.974l64.425,27.101l34.472,5.758l17.439,0.578l17.367-1.245
		L726.332,827.417 M219.239,891.659l-46.611-6.036l84.669-52.939l10.43-9.679l8.644-0.651l23.193,5.591l42.255,23.493l20.686,12.697
		l10.357,6.346l10.648,6.17l46.75,15.63l97.607,7.239l18.635-0.424L222,892.144l-1.359-0.373L219.239,891.659 M126.166,873.646
		l-36.003-19.64l-1.731-22.179l-0.058-2.79l7.177,3.84l13.71,3.098l13.774-1.971l4.269-1.649L126.166,873.646 M530.198,759.352
		l-0.155-0.11l0.211,0.116L530.198,759.352 M493.04,159.383l13.183-4.287l10.934-5.937l1.707-0.698l0.606-0.192l0.311-0.09
		l0.84-0.127l1.759,0.241l1.289,0.678l0.906,0.734l0.669,0.646l1.223,1.285l3.999,5.409l2.999,5.955l1.851,6.426l-1.661,12.88
		l-2.488-11.658l-6.13-9.807l-3.8-4.258l-0.784-0.747l-0.232,0.101l-10.822,5.439l-0.577,0.287l-0.32,0.066l-14.331,2.328
		l-14.637,1.064L493.04,159.383 M516.162,146.264l-14.636,1.068l13.507-5.737l13.183-4.287l10.939-5.938l1.705-0.696l0.603-0.191
		l0.314-0.091l0.838-0.126l1.759,0.241l1.291,0.677l0.906,0.734l0.667,0.647l1.223,1.285l3.999,5.409l3,5.951l1.852,6.431
		l-1.661,12.877l-2.489-11.661l-6.132-9.803l-3.801-4.26l-0.783-0.745l-0.232,0.101l-10.822,5.438l-0.577,0.288l-0.32,0.065
		L516.162,146.264"/>
	<g>
		<g>
			<g>
				<path fill="#040000" d="M1381.216,43.525l23.005-2.089c60.686,18.249,39.507,11.435,92.885,29.885l19.328,15.578l25.485-11.5
					l101.059,32.41l8.678,66.866l47.19,22.379c93.381,300.859,62.9,223.806,105.86,315.832l-1.253,26.795l6.658,3.884l17.693,25.786
					l-13.167,84.579l27.035,74.542l-52.51,76.533l2.076,24.509l-5.239,17.302l5.231,21.023l-14.114,87.683l-54.983,53.124
					l-14.358,4.461c-16.108,49.39-8.716,31.944-32.399,76.468l-25.846,15.508l-105.544,4.896
					c-16.258,16.517-5.955,6.517-51.058,49.193l-47.09,19.008l-59.815-4.411l-13.672-12.131l-7.556,1.002l-30.732-20.776
					c-10.505-67.64-9.513-56.728-8.421-67.788l4.817-5.233l-12.909-112.965l14.146-28.905l-12.048-28.08
					c14.727-150.13,13.581-125.096,10.065-147.666l16.45-76.343l-20.641-72.91l20.894-125.751l10.756-22.804l-31.859-57.186
					c10.472-104.616,11.188-84.813,1.559-123.692l15.97-18.852l-24.132-26.024l22.089-71.756l-5.065-18.292l11.591-75.163
					L1381.216,43.525 M1348.291,83.747l2.387,61.468c30.643-23.751,20.86-16.38,43.564-32.952l-2.15,15.989l-48.501,43.63
					l-7.757,55.672l128.464,10.261l24.074,12.52l-97.654-9.593l-43.573,54.181l-11.25,53.893l27.239,93.777l18.07-12.39
					l-20.635,38.559l-26.084,145.194c85.224,96.662,66.335,76.618,94.418,102.222c-35.474-16.314,5.642,4.828-67.23-29.085
					l-9.207-0.236l-16.997,33.818l6.173,26.316l15.236-15.712l12.332,3.497l-16.74,17.929l-8.873,17.571
					c-5.27,173.875-6.693,134.469,3.235,195.52l-9.32-17.525l35.517,68.13l79.2-38.131l10.483-24.148l37.093-7.911l4.274-48.525
					l-10.317-19.504l45.925,28.08l136.707-19.65l30.24-95.795l-5.54-15.316l18.242-9.012l41.381-38.99l-9.661-27.662l8.411-17.037
					l19.491,22.594l27.548-6.357l3.058,14.279l-37.417,12.613l-4.649,17.134l-52.663,36.296l-14.837,85.858l-111.802,61.86
					l-70.406-21.748l-7.672,49.009l-42.219,13.241l-54.464,58.036l-81.252-9.273l16.309,27.893l33.302,20.836l-2.814,10.071
					l-38.524-22.259l-6.548,54.393l33.8,45.034l5.284-19.419l27.838,30.173l70.531-5.973l67.426-51.892
					c-31.285-19.341-18.599-11.072-55.63-36.264l-44.132,14.844l32.513-19.779l20.471-52.342c0.116,39.47-0.237,29.417,1.385,46.292
					l10.519,9.564l31.893-27.187l-10.343-46.641l1.507-15.385l17.68,12.848l32.536,9.86l15.398-2.119l-8.649,13.746l-23.806,0.769
					l-6.59,4.038l-12.252,37.163l-28.207,21.013l129.693,20.31l49.64-82.06l-43.817-4.513l-24.601,43.321l-48.203-6.52
					l52.287-12.911l8.233-27.276l-38.871-36.789l18.503,5.191l45.052,26.836l96.802-33.974l18.713-103.801l-56.395,0.7l31.746-3.622
					l24.811-26.993l-2.388-29.533l10.683-13.966l28.491-120.697l-10.077-7.865c-34.089,10.381-23.155,7.504-48.843,12.894
					l-79.592,69.444l-15.627-8.284l47.04-17.9l29.851-41.2l3.817-15.367l28.422,0.056l60.443-45.168l-24.653-59.012
					c-27.266,19.11-20.071,14.645-32.969,20.881l-4.973,21.992l-25.142,34.837l-16.838-2.604l21.152-19.575
					c-7.452-109.537-5.029-90.057-11.376-112.372l22.854,24.255l13.798,38.307l22.734-50.084l-26.456-45.187l-9.903,10.563
					l-12.825,5.751l3.8-10.985l-9.114-156.208l-30.334-19.23l-22.902,2.099l5.215-13.585l7.614-6.306l4.32-17.641l-36.608-67.896
					c-13.734,37.326-10.74,26.077-14.16,50.483l-13.435-43.97l-20.549-13.9l-9.658-11.675c-14.123-7.05-7.327-4.05-29.583-12.932
					l59.914,18.046l3.687-51.383l-119.81-30.235l4.978,11.147l6.162,4.936l20.431,1.437c-17.696,10.396-11.614,7.395-26.655,13.154
					l-3.132,48.049l-11.733-7.773l-61.652-104.214c12.554,29.529,9.664,20.599,13.538,40.07l9.252,5.919l-3.058,38.588
					l-37.425,4.403l-14.324-4.018l19.019-2.375l23.244-23.612l-8.472-19.304l-57.512-53.612L1348.291,83.747L1348.291,83.747z"/>
				<path fill="#040000" d="M1516.329,192.729l37.249,30.143l1.051,36.497l26.347-3.869l9.973,4.786l-38.091,11.508l-12.329,9.892
					l-38.639,9.706l-2.337,25.748c-11.871-27.737-6.722-16.663-22.581-48.558l22.156,14.057l33.742-14.332l7.653-40.198
					L1516.329,192.729C1523.434,192.729,1509.224,192.729,1516.329,192.729z"/>
				<path fill="#040000" d="M1401.749,270.072l19.192,30.558l105.08,94.463l55.06,12.995l30.332-21.789l-66.64,38.104
					l-14.841,55.325l-55.689,75.224l-2.398,30.94l59.242,67.93l79.646,10.984l68.571-34.921l-33.969,8.576l-27.654,39.377
					l-20.191-8.415l-66.642-6.172c-1.828,23.101-0.505,17.684-8.056,45.191l-16.796,3.936l9.735-20.859l4.84-41.34l-35.923-50.488
					l-58.61,25.375c-66.977,1.856-52.401,2.025-73.252,0.015l72.047-15.404l38.559-25.26l-0.761-28.673l-22.118-35.677
					c30.97,17.674,20.188,11.914,47.276,25.256l40.141-23.236l-6.294-31.721l5.219-22.053l-2.012-59.416
					c-34.269-42.413-20.015-23.015-63.205-87.007l-75.783-18.779l28.041-2.717C1408.737,282.379,1411.507,289.295,1401.749,270.072
					L1401.749,270.072z"/>
				<path fill="#040000" d="M1615.723,270.792l10.071,58.08l-2.527,12.734l28.273,40.038l14.08-65.633l-19.63-32.186l29.75,21.571
					l4.14,33.949l29.384,2.904l25.112,13.72c-23.407-0.173-12.577,0.974-46.857-5.282l-9.059,9.587
					c-8.27,15.682-4.375,8.132-17.517,34.031l29.524,55.352l60.324-21.694c-20.351,7.219-30.817,8.829-57.36,32.943l1.75,12.682
					l-16.656,77.072l32.327,18.293l6.518,26.444l-25.381-27.563l-19.796-9.173l-12.491,14.526l-56.016,28.453
					c16.196-16.104,2.674,1.702,82.372-114.23l-59.136-116.063l-22.378-17.549C1614.329,286.328,1611.918,304.49,1615.723,270.792
					C1622.828,270.792,1608.618,270.792,1615.723,270.792z"/>
				<path fill="#040000" d="M1406.742,360.376l29.79,16.846l39.307,7.053c-18.141,23.681-8.415,13.601-42.238,43.158l3.536,47.751
					l4.792,8.21l15.808,7.75l-46.19-1.405l-39.252,23.696l18.621-26.27l37.475-6.115l-3.534-65.11l11.029-18.186
					C1408.688,365.432,1419.718,380.883,1406.742,360.376L1406.742,360.376z"/>
				<path fill="#040000" d="M1479.315,724.074l-5.326,50.271l46.262-6.225l37.222-25.357l-18.866,29.324l-57.191,13.434
					l-24.291-1.341l-13.066-5.797c-20.857,5.447-9.044,2.258-54.131,14.657c25.405-16.624,12.316-10.391,59.479-27.26l19.927-17.272
					l-5.233-27.251C1464.162,721.268,1479.315,724.074,1479.315,724.074z"/>
				<path fill="#040000" d="M1618.265,738.309l3.028-4.811l17.51,45.196l-2.536,44.64l-62.458,13.362l-5.412-2.65
					c-14.642,3.942,4.521,1.201-129.834,16.417l-8.086,42.136l-28.949,4.941l27.283-30.94l-1.895-22.682l-33.69-34.347
					l17.392,12.403l137.084,3.192l10.552-9.583l10.041,2.523l62.034-14.703L1618.265,738.309
					C1625.37,738.309,1611.161,738.309,1618.265,738.309z"/>
			</g>
		</g>
		<g>
			<g>
				<path fill="#040000" d="M1233.275,43.525l46.456,37.767c-1.147,66.16,0.465,51.12-6.041,74.618l22.089,71.756l-24.132,26.024
					l15.97,18.852c-9.977,40.287-8.789,20.309,1.56,123.692l-31.859,57.186l30.436,82.24l1.214,66.314l-20.641,72.91
					c19.76,91.698,14.882,65.013,23.238,125.355c7.948,52.581,7.183,30.157,3.278,98.654l-12.048,28.08l14.146,28.905
					l-12.909,112.965l4.818,5.233c1.006,10.186,0.467,6.373,2.365,16.728l-29.46,66.158l-12.058,5.679l-7.556-1.002l-23.727,16.018
					l-96.849-18.483c-45.099-42.672-34.792-32.668-51.058-49.193l-105.544-4.897l-25.846-15.508
					c-23.684-44.526-16.291-27.078-32.399-76.469l-50.299-29.271l-19.042-28.313l-14.114-87.683l5.231-21.023l-5.239-17.302
					l2.076-24.509l-35.137-35.77l9.663-115.306L774.4,607.796l29.983-64.231l6.658-3.884l5.575-54.429
					c29.095-47.209,14.56-9.81,68.782-190.733l52.955-109.669l24.486-10.176l-4.721-24.918l114.458-74.359l25.485,11.5
					l19.328-15.578c53.374-18.449,32.207-11.638,92.885-29.885L1233.275,43.525 M1161.631,104.776l-8.472,19.304l23.244,23.612
					l19.019,2.375l-14.324,4.018l-37.425-4.403l-3.058-38.588l9.252-5.919c3.874-19.47,0.984-10.54,13.538-40.07l-61.651,104.214
					l-11.733,7.773l-3.132-48.049c-15.038-5.759-8.96-2.759-26.655-13.154l20.431-1.437l6.162-4.936l4.978-11.147l-119.811,30.235
					l3.687,51.383l59.915-18.046c-22.096,8.818-15.762,6.033-29.583,12.932l-9.658,11.675l-20.549,13.9l-6.985,35.213l-6.45,8.757
					c-3.42-24.407-0.427-13.158-14.16-50.483l-36.608,67.896l4.32,17.641l7.614,6.306l5.215,13.585l-22.902-2.099l-30.334,19.23
					l-9.113,156.208l3.799,10.985l-12.825-5.751l-9.903-10.563l-26.456,45.187l22.734,50.084l13.798-38.307l22.853-24.255
					c-6.347,22.318-3.924,2.839-11.376,112.372l21.152,19.575l-16.838,2.604l-25.142-34.837l-4.973-21.992
					c-12.914-6.244-5.706-1.773-32.969-20.881l-24.652,59.012l60.443,45.168l28.422-0.056l3.817,15.367l29.851,41.2l47.04,17.9
					l-15.626,8.284l-79.592-69.444c-25.684-5.39-14.766-2.517-48.843-12.894l-10.077,7.865l28.492,120.697l10.683,13.966
					l-2.388,29.533l24.811,26.993l31.746,3.622l-56.395-0.7l18.713,103.801l96.802,33.974l45.052-26.836l18.503-5.191l-38.87,36.789
					l8.233,27.276l52.287,12.911l-48.203,6.52l-24.601-43.321l-43.817,4.513l49.64,82.06l129.693-20.31l-28.207-21.013
					l-12.252-37.163l-6.59-4.038l-23.806-0.769l-8.649-13.746l15.398,2.119l32.536-9.86l17.68-12.848l1.507,15.385l-10.343,46.641
					l31.893,27.187l10.519-9.564c1.621-16.864,1.269-6.934,1.385-46.292l20.471,52.342l32.513,19.779l-44.133-14.844
					c-37.004,25.173-24.357,16.93-55.63,36.264l67.426,51.892l70.531,5.973l27.838-30.173l5.284,19.419l33.8-45.034l-6.548-54.393
					l-38.524,22.259l-2.814-10.071l33.302-20.836l16.309-27.893l-81.252,9.273l-54.464-58.036l-42.219-13.241l-7.672-49.009
					l-70.407,21.748l-111.802-61.86l-14.838-85.858L847,743.066l-4.649-17.134l-37.417-12.613l3.058-14.279l27.548,6.357
					l19.491-22.594l8.411,17.037l-9.661,27.662l41.381,38.99l18.242,9.012l-5.54,15.316l30.24,95.795l136.707,19.65l45.925-28.08
					l-10.317,19.504l4.274,48.525l37.093,7.911l10.483,24.148l79.2,38.131l35.517-68.13l-9.32,17.525
					c9.927-61.044,8.505-21.668,3.235-195.52l-8.873-17.571l-16.74-17.929l12.332-3.497l15.236,15.712l6.173-26.316l-16.997-33.818
					l-9.207,0.236c-72.885,33.918-31.466,12.637-67.23,29.085c28.121-25.639,9.228-5.598,94.418-102.222l-26.085-145.194
					l-20.635-38.559l18.07,12.39l27.239-93.777l-11.25-53.893l-43.573-54.181l-97.654,9.593l24.074-12.52l128.464-10.261
					l-7.757-55.672l-48.501-43.63l-2.151-15.989c22.138,16.159,12.873,9.163,43.564,32.952l2.387-61.468l-47.061-32.585
					L1161.631,104.776L1161.631,104.776z"/>
				<path fill="#040000" d="M1098.161,192.729l-24.193,35.381l7.653,40.198l33.742,14.332l22.156-14.057
					c-15.859,31.897-10.707,20.817-22.581,48.558l-2.337-25.748l-38.639-9.706l-12.329-9.892l-38.09-11.508l9.973-4.786
					l26.347,3.869l1.051-36.497L1098.161,192.729C1105.266,192.729,1091.056,192.729,1098.161,192.729z"/>
				<path fill="#040000" d="M1204.796,285.726l-4.198,14.666l28.041,2.717l-16.987,5.413l-94.788,66.693l-38.037,65.831
					l14.031,49.318l-6.294,31.721l53.551,23.325l25.094-24.401l8.771-0.944c-8.202,16.598-3.5,3.939-22.88,64.351l38.559,25.26
					l72.047,15.404c-20.952,2.02-6.298,1.84-73.252-0.015l-13.251-13.247l-81.282,38.36l4.84,41.34l9.735,20.859l-16.796-3.936
					c-7.729-28.155-6.225-22.052-8.056-45.191l-66.642,6.172l-20.192,8.415l-8.719-18.4l-52.904-29.553l68.571,34.921l79.646-10.984
					l59.242-67.93l-2.398-30.94l-55.689-75.224l-14.841-55.325l-66.64-38.104l30.331,21.789l103.077-84.407l57.063-23.05
					l19.191-30.557L1204.796,285.726L1204.796,285.726z"/>
				<path fill="#040000" d="M998.767,270.792l-0.007,51.566l11.187,31.44l-22.378,17.549L928.433,487.41
					c80.865,117.63,66.65,98.597,82.372,114.23l-56.016-28.453l-12.491-14.526l-19.795,9.173l-25.381,27.563l6.518-26.444
					l32.327-18.293l-16.656-77.072l1.75-12.682c-25.48-23.147-34.029-24.667-57.36-32.943l60.324,21.694l29.524-55.352
					c-13.141-25.896-9.248-18.351-17.517-34.031l-9.059-9.587c-33.813,6.171-23.346,5.108-46.857,5.282l25.112-13.72l29.384-2.904
					l4.14-33.949l29.749-21.571l-19.63,32.186l14.081,65.633l28.273-40.038l-2.527-12.734L998.767,270.792
					C1005.872,270.792,991.662,270.792,998.767,270.792z"/>
				<path fill="#040000" d="M1199.219,373.856c-13.871,15.747-9.169,10.296-20.615,23.897l11.029,18.186l-3.534,65.11l37.475,6.115
					l18.622,26.27l-39.252-23.696l-46.19,1.405l15.808-7.75l7.209-17.183l-6.818-57.439l-19.823-5.597l-14.478-18.899l20.313,2.081
					l48.783-25.98L1199.219,373.856L1199.219,373.856z"/>
				<path fill="#040000" d="M1145.155,748.507l19.927,17.272c47.153,16.865,34.069,10.633,59.479,27.26
					c-45.078-12.397-33.276-9.211-54.131-14.657c-11.9,4.715-4.359,3.064-37.357,7.138l-57.191-13.434l-18.866-29.324l16.012,12.855
					l67.472,18.727l-5.326-50.271l15.213-2.817L1145.155,748.507L1145.155,748.507z"/>
				<path fill="#040000" d="M996.225,738.309l-12.065,65.093l62.034,14.703l10.041-2.523l10.552,9.583l137.085-3.192l17.392-12.403
					l-33.69,34.347l-1.895,22.682l27.283,30.94l-28.95-4.941l-8.086-42.136c-134.361-15.216-115.192-12.474-129.834-16.417
					l-5.412,2.65l-62.458-13.362l-2.536-44.64l17.51-45.196L996.225,738.309C1003.329,738.309,989.12,738.309,996.225,738.309z"/>
			</g>
		</g>
	</g>
	<path d="M303.085,661.804l0.075,0.036L303.085,661.804z"/>
</g>
</svg>
