<?xml version="1.0" encoding="UTF-8" standalone="no"?>
<!-- Created with Inkscape (http://www.inkscape.org/) -->

<svg
   xmlns:dc="http://purl.org/dc/elements/1.1/"
   xmlns:cc="http://creativecommons.org/ns#"
   xmlns:rdf="http://www.w3.org/1999/02/22-rdf-syntax-ns#"
   xmlns:svg="http://www.w3.org/2000/svg"
   xmlns="http://www.w3.org/2000/svg"
   xmlns:sodipodi="http://sodipodi.sourceforge.net/DTD/sodipodi-0.dtd"
   xmlns:inkscape="http://www.inkscape.org/namespaces/inkscape"
   id="svg2"
   sodipodi:docname="tv-WITH-remote.svg"
   viewBox="0 0 700.19754 791.16862"
   sodipodi:version="0.32"
   version="1.0"
   inkscape:output_extension="org.inkscape.output.svg.inkscape"
   inkscape:version="0.91 r13725"
   inkscape:label="Pozadí"
   width="700.19751"
   height="791.16864">
  <defs
     id="defs3">
    <radialGradient
       id="radialGradient2429"
       gradientUnits="userSpaceOnUse"
       cy="605.94"
       cx="332.63"
       gradientTransform="matrix(1,0,0,0.80769,85.59,-177.2)"
       r="126.44"
       inkscape:collect="always">
      <stop
         id="stop2066"
         style="stop-color:#d1f1f3"
         offset="0" />
      <stop
         id="stop2068"
         style="stop-color:#d1f1f3;stop-opacity:0"
         offset="1" />
    </radialGradient>
  </defs>
  <sodipodi:namedview
     id="base"
     bordercolor="#666666"
     inkscape:pageshadow="2"
     inkscape:guide-bbox="true"
     pagecolor="#ffffff"
     inkscape:window-height="1035"
     inkscape:zoom="0.14215142"
     inkscape:window-x="4"
     showgrid="false"
     borderopacity="1.0"
     inkscape:current-layer="g2241"
     inkscape:cx="538.30869"
     inkscape:cy="661.10123"
     showguides="true"
     inkscape:window-y="1"
     inkscape:window-width="1916"
     inkscape:pageopacity="0.0"
     inkscape:document-units="px"
     fit-margin-top="0"
     fit-margin-left="0"
     fit-margin-right="0"
     fit-margin-bottom="0"
     inkscape:window-maximized="1" />
  <g
     id="layer1"
     inkscape:label="Vrstva 1"
     inkscape:groupmode="layer"
     transform="translate(-90.858891,-101.74554)">
    <g
       id="g2099"
       transform="matrix(1.5022,0,0,1.2954,-157.68,-107.04)">
      <g
         id="g2083"
         style="fill:#1f1b0f">
        <path
           id="path2079"
           style="fill:#1f1b0f;fill-rule:evenodd;stroke:#000000;stroke-width:1px"
           d="m 178.41,177.01 101.15,157.57 7.78,11.67"
           inkscape:connector-curvature="0" />
        <path
           id="path2081"
           style="fill:#1f1b0f;fill-rule:evenodd;stroke:#000000;stroke-linecap:round"
           d="M 377.37,346.25 492.14,184.8"
           inkscape:connector-curvature="0" />
      </g>
      <path
         id="path2087"
         style="fill:none;stroke:#000000;stroke-width:1px"
         d="m 285.95,344.3 -108.94,-167.29 0,-1.94 108.94,169.23 z"
         inkscape:connector-curvature="0" />
      <path
         id="path2089"
         style="fill:none;stroke:#000000;stroke-width:1px"
         d="M 287.89,344.3 177.01,175.07 287.89,344.3 Z"
         inkscape:connector-curvature="0" />
      <g
         id="g2095"
         transform="matrix(1.0174,0,0,1,-6.5864,0)">
        <path
           id="path2091"
           style="fill:none;stroke:#000000;stroke-width:1px"
           d="M 379.32,342.36 490.19,184.8 379.32,342.36 Z"
           inkscape:connector-curvature="0" />
        <path
           id="path2093"
           style="fill:none;stroke:#000000;stroke-width:0.98531997px"
           d="M 379.31,342.36 490.2,186.73 379.31,342.36 Z"
           inkscape:connector-curvature="0" />
      </g>
    </g>
    <g
       id="g2072"
       transform="matrix(1.475,0,0,1.253,-267.64,80.738)">
      <rect
         id="rect1305"
         style="fill:#311e07;fill-rule:evenodd"
         rx="25.056999"
         ry="29.497"
         height="282.06"
         width="350.14001"
         y="173.12"
         x="245.10001" />
      <rect
         id="rect2038"
         style="fill:#70c9d8;fill-rule:evenodd"
         rx="25.056999"
         ry="29.497"
         height="204.25"
         width="252.88"
         y="211.06"
         x="293.73001" />
      <rect
         id="rect1307"
         style="fill:url(#radialGradient2429);fill-rule:evenodd"
         rx="25.056999"
         ry="29.497"
         height="204.25"
         width="252.88"
         y="210.08"
         x="291.78" />
    </g>
    <path
       id="path2109"
       sodipodi:rx="4.8630414"
       sodipodi:ry="9.7260828"
       style="fill:#1f1b0f;fill-rule:evenodd"
       sodipodi:type="arc"
       d="m -262.60424,258.71381 a 4.8630414,9.7260828 0 0 1 -4.86023,9.72608 4.8630414,9.7260828 0 0 1 -4.86585,-9.71483 4.8630414,9.7260828 0 0 1 4.85459,-9.73732 4.8630414,9.7260828 0 0 1 4.87147,9.70355 l -4.86303,0.0225 z"
       transform="matrix(2.0813,0,0,0.9824,657.66,-142.86)"
       sodipodi:cy="258.71381"
       sodipodi:cx="-267.46729"
       sodipodi:end="6.2808703"
       sodipodi:start="0" />
    <path
       id="path2115"
       sodipodi:rx="4.8630414"
       sodipodi:ry="9.7260828"
       style="fill:#1f1b0f;fill-rule:evenodd"
       sodipodi:type="arc"
       d="m -262.60424,258.71381 a 4.8630414,9.7260828 0 0 1 -4.86023,9.72608 4.8630414,9.7260828 0 0 1 -4.86585,-9.71483 4.8630414,9.7260828 0 0 1 4.85459,-9.73732 4.8630414,9.7260828 0 0 1 4.87147,9.70355 l -4.86303,0.0225 z"
       transform="matrix(2.0813,0,0,0.9824,1141.2,-127.11)"
       sodipodi:cy="258.71381"
       sodipodi:cx="-267.46729"
       sodipodi:end="6.2808703"
       sodipodi:start="0" />
    <path
       id="path2117"
       sodipodi:rx="6.8082581"
       sodipodi:ry="7.7808666"
       style="fill:#d7a920;fill-rule:evenodd"
       sodipodi:type="arc"
       d="m -336.52246,340.4129 a 6.8082581,7.7808666 0 0 1 -6.80432,7.78087 6.8082581,7.7808666 0 0 1 -6.81219,-7.77186 6.8082581,7.7808666 0 0 1 6.79643,-7.78986 6.8082581,7.7808666 0 0 1 6.82006,7.76284 l -6.80824,0.018 z"
       transform="matrix(1.475,0,0,1.253,636.15,12.493)"
       sodipodi:cy="340.4129"
       sodipodi:cx="-343.33072"
       sodipodi:end="6.2808703"
       sodipodi:start="0" />
    <path
       id="path2119"
       sodipodi:rx="6.8082581"
       sodipodi:ry="7.7808666"
       style="fill:#d7a920;fill-rule:evenodd"
       sodipodi:type="arc"
       d="m -336.52246,340.4129 a 6.8082581,7.7808666 0 0 1 -6.80432,7.78087 6.8082581,7.7808666 0 0 1 -6.81219,-7.77186 6.8082581,7.7808666 0 0 1 6.79643,-7.78986 6.8082581,7.7808666 0 0 1 6.82006,7.76284 l -6.80824,0.018 z"
       transform="matrix(1.475,0,0,1.253,637.66,46.616)"
       sodipodi:cy="340.4129"
       sodipodi:cx="-343.33072"
       sodipodi:end="6.2808703"
       sodipodi:start="0" />
    <path
       id="path2121"
       sodipodi:rx="6.8082581"
       sodipodi:ry="7.7808666"
       style="fill:#d7a920;fill-rule:evenodd"
       sodipodi:type="arc"
       d="m -336.52246,340.4129 a 6.8082581,7.7808666 0 0 1 -6.80432,7.78087 6.8082581,7.7808666 0 0 1 -6.81219,-7.77186 6.8082581,7.7808666 0 0 1 6.79643,-7.78986 6.8082581,7.7808666 0 0 1 6.82006,7.76284 l -6.80824,0.018 z"
       transform="matrix(1.475,0,0,1.253,637.58,80.395)"
       sodipodi:cy="340.4129"
       sodipodi:cx="-343.33072"
       sodipodi:end="6.2808703"
       sodipodi:start="0" />
    <path
       id="path2123"
       sodipodi:rx="6.8082581"
       sodipodi:ry="7.7808666"
       style="fill:#d7a920;fill-rule:evenodd"
       sodipodi:type="arc"
       d="m -336.52246,340.4129 a 6.8082581,7.7808666 0 0 1 -6.80432,7.78087 6.8082581,7.7808666 0 0 1 -6.81219,-7.77186 6.8082581,7.7808666 0 0 1 6.79643,-7.78986 6.8082581,7.7808666 0 0 1 6.82006,7.76284 l -6.80824,0.018 z"
       transform="matrix(1.475,0,0,1.253,637.66,111.94)"
       sodipodi:cy="340.4129"
       sodipodi:cx="-343.33072"
       sodipodi:end="6.2808703"
       sodipodi:start="0" />
    <path
       id="path2125"
       sodipodi:rx="6.8082581"
       sodipodi:ry="7.7808666"
       style="fill:#d7a920;fill-rule:evenodd"
       sodipodi:type="arc"
       d="m -336.52246,340.4129 a 6.8082581,7.7808666 0 0 1 -6.80432,7.78087 6.8082581,7.7808666 0 0 1 -6.81219,-7.77186 6.8082581,7.7808666 0 0 1 6.79643,-7.78986 6.8082581,7.7808666 0 0 1 6.82006,7.76284 l -6.80824,0.018 z"
       transform="matrix(1.475,0,0,1.253,637.66,146)"
       sodipodi:cy="340.4129"
       sodipodi:cx="-343.33072"
       sodipodi:end="6.2808703"
       sodipodi:start="0" />
    <path
       id="path2127"
       sodipodi:rx="6.8082581"
       sodipodi:ry="7.7808666"
       style="fill:#d7a920;fill-rule:evenodd"
       sodipodi:type="arc"
       d="m -336.52246,340.4129 a 6.8082581,7.7808666 0 0 1 -6.80432,7.78087 6.8082581,7.7808666 0 0 1 -6.81219,-7.77186 6.8082581,7.7808666 0 0 1 6.79643,-7.78986 6.8082581,7.7808666 0 0 1 6.82006,7.76284 l -6.80824,0.018 z"
       transform="matrix(3.0553,0,0,1.9969,1181.6,-72.28)"
       sodipodi:cy="340.4129"
       sodipodi:cx="-343.33072"
       sodipodi:end="6.2808703"
       sodipodi:start="0" />
    <g
       id="g2241"
       transform="matrix(0.99887868,0.53111319,-0.54252134,1.0203342,730.85248,-160.11314)">
      <g
         id="g5947">
        <rect
           x="250.92999"
           y="746.96002"
           width="225.64999"
           height="48.630001"
           ry="31.983999"
           rx="32.668999"
           style="fill:#311e07;fill-rule:evenodd"
           id="rect2154" />
        <path
           sodipodi:start="0"
           sodipodi:end="6.2808703"
           sodipodi:cx="-174.09689"
           sodipodi:cy="631.22278"
           transform="matrix(1,0,0,0.31908,480.11,557.1)"
           d="m -165.34342,631.22278 a 8.7534752,26.260424 0 0 1 -8.74841,26.26042 8.7534752,26.260424 0 0 1 -8.75853,-26.23003 8.7534752,26.260424 0 0 1 8.73827,-26.29078 8.7534752,26.260424 0 0 1 8.76865,26.1996 l -8.75345,0.0608 z"
           sodipodi:type="arc"
           style="fill:#d7a920;fill-rule:evenodd"
           sodipodi:ry="26.260424"
           sodipodi:rx="8.7534752"
           id="path2158" />
        <path
           sodipodi:start="0"
           sodipodi:end="6.2808703"
           sodipodi:cx="-174.09689"
           sodipodi:cy="631.22278"
           transform="matrix(0.94107,0,0,0.30599,551.88,565.21)"
           d="m -165.34342,631.22278 a 8.7534752,26.260424 0 0 1 -8.74841,26.26042 8.7534752,26.260424 0 0 1 -8.75853,-26.23003 8.7534752,26.260424 0 0 1 8.73827,-26.29078 8.7534752,26.260424 0 0 1 8.76865,26.1996 l -8.75345,0.0608 z"
           sodipodi:type="arc"
           style="fill:#d7a920;fill-rule:evenodd"
           sodipodi:ry="26.260424"
           sodipodi:rx="8.7534752"
           id="path2160" />
        <path
           sodipodi:start="0"
           sodipodi:end="6.2808703"
           sodipodi:cx="-174.09689"
           sodipodi:cy="631.22278"
           transform="matrix(1,0,0,0.31908,541.24,578.88)"
           d="m -165.34342,631.22278 a 8.7534752,26.260424 0 0 1 -8.74841,26.26042 8.7534752,26.260424 0 0 1 -8.75853,-26.23003 8.7534752,26.260424 0 0 1 8.73827,-26.29078 8.7534752,26.260424 0 0 1 8.76865,26.1996 l -8.75345,0.0608 z"
           sodipodi:type="arc"
           style="fill:#d7a920;fill-rule:evenodd"
           sodipodi:ry="26.260424"
           sodipodi:rx="8.7534752"
           id="path2176" />
        <path
           sodipodi:start="0"
           sodipodi:end="6.2808703"
           sodipodi:cx="-174.09689"
           sodipodi:cy="631.22278"
           transform="matrix(1,0,0,0.31908,541.24,556.88)"
           d="m -165.34342,631.22278 a 8.7534752,26.260424 0 0 1 -8.74841,26.26042 8.7534752,26.260424 0 0 1 -8.75853,-26.23003 8.7534752,26.260424 0 0 1 8.73827,-26.29078 8.7534752,26.260424 0 0 1 8.76865,26.1996 l -8.75345,0.0608 z"
           sodipodi:type="arc"
           style="fill:#d7a920;fill-rule:evenodd"
           sodipodi:ry="26.260424"
           sodipodi:rx="8.7534752"
           id="path2178" />
        <path
           sodipodi:start="0"
           sodipodi:end="6.2808703"
           sodipodi:cx="-174.09689"
           sodipodi:cy="631.22278"
           transform="matrix(1,0,0,0.31908,521.24,578.88)"
           d="m -165.34342,631.22278 a 8.7534752,26.260424 0 0 1 -8.74841,26.26042 8.7534752,26.260424 0 0 1 -8.75853,-26.23003 8.7534752,26.260424 0 0 1 8.73827,-26.29078 8.7534752,26.260424 0 0 1 8.76865,26.1996 l -8.75345,0.0608 z"
           sodipodi:type="arc"
           style="fill:#d7a920;fill-rule:evenodd"
           sodipodi:ry="26.260424"
           sodipodi:rx="8.7534752"
           id="path2180" />
        <path
           sodipodi:start="0"
           sodipodi:end="6.2808703"
           sodipodi:cx="-174.09689"
           sodipodi:cy="631.22278"
           transform="matrix(1,0,0,0.31908,521.24,556.88)"
           d="m -165.34342,631.22278 a 8.7534752,26.260424 0 0 1 -8.74841,26.26042 8.7534752,26.260424 0 0 1 -8.75853,-26.23003 8.7534752,26.260424 0 0 1 8.73827,-26.29078 8.7534752,26.260424 0 0 1 8.76865,26.1996 l -8.75345,0.0608 z"
           sodipodi:type="arc"
           style="fill:#d7a920;fill-rule:evenodd"
           sodipodi:ry="26.260424"
           sodipodi:rx="8.7534752"
           id="path2182" />
        <path
           sodipodi:start="0"
           sodipodi:end="6.2808703"
           sodipodi:cx="-174.09689"
           sodipodi:cy="631.22278"
           transform="matrix(1,0,0,0.31908,501.24,578.88)"
           d="m -165.34342,631.22278 a 8.7534752,26.260424 0 0 1 -8.74841,26.26042 8.7534752,26.260424 0 0 1 -8.75853,-26.23003 8.7534752,26.260424 0 0 1 8.73827,-26.29078 8.7534752,26.260424 0 0 1 8.76865,26.1996 l -8.75345,0.0608 z"
           sodipodi:type="arc"
           style="fill:#d7a920;fill-rule:evenodd"
           sodipodi:ry="26.260424"
           sodipodi:rx="8.7534752"
           id="path2184" />
        <path
           sodipodi:start="0"
           sodipodi:end="6.2808703"
           sodipodi:cx="-174.09689"
           sodipodi:cy="631.22278"
           transform="matrix(1,0,0,0.31908,501.24,556.88)"
           d="m -165.34342,631.22278 a 8.7534752,26.260424 0 0 1 -8.74841,26.26042 8.7534752,26.260424 0 0 1 -8.75853,-26.23003 8.7534752,26.260424 0 0 1 8.73827,-26.29078 8.7534752,26.260424 0 0 1 8.76865,26.1996 l -8.75345,0.0608 z"
           sodipodi:type="arc"
           style="fill:#d7a920;fill-rule:evenodd"
           sodipodi:ry="26.260424"
           sodipodi:rx="8.7534752"
           id="path2186" />
        <path
           sodipodi:start="0"
           sodipodi:end="6.2808703"
           sodipodi:cx="-174.09689"
           sodipodi:cy="631.22278"
           transform="matrix(1,0,0,0.31908,481.24,578.88)"
           d="m -165.34342,631.22278 a 8.7534752,26.260424 0 0 1 -8.74841,26.26042 8.7534752,26.260424 0 0 1 -8.75853,-26.23003 8.7534752,26.260424 0 0 1 8.73827,-26.29078 8.7534752,26.260424 0 0 1 8.76865,26.1996 l -8.75345,0.0608 z"
           sodipodi:type="arc"
           style="fill:#d7a920;fill-rule:evenodd"
           sodipodi:ry="26.260424"
           sodipodi:rx="8.7534752"
           id="path2188" />
        <g
           transform="matrix(-0.018095,-0.99984,0.99984,-0.018095,-489.68,1061.5)"
           id="g2236">
          <path
             sodipodi:start="0"
             sodipodi:end="6.2808703"
             sodipodi:cx="-174.09689"
             sodipodi:cy="631.22278"
             transform="matrix(0.049954,-0.99875,0.6718,0.033601,-138.98,576.09)"
             d="m -165.34342,631.22278 a 8.7534752,26.260424 0 0 1 -8.74841,26.26042 8.7534752,26.260424 0 0 1 -8.75853,-26.23003 8.7534752,26.260424 0 0 1 8.73827,-26.29078 8.7534752,26.260424 0 0 1 8.76865,26.1996 l -8.75345,0.0608 z"
             sodipodi:type="arc"
             style="fill:#ef1020;fill-rule:evenodd"
             sodipodi:ry="26.260424"
             sodipodi:rx="8.7534752"
             id="path2156" />
          <g
             id="text2190"
             style="font-size:9.67560005px;font-family:'Bitstream Vera Sans';fill:#000000"
             transform="scale(1.0388,0.96261)">
            <path
               id="path5937"
               d="m 255.93253,800.33755 q 0,0.64252 -0.18425,1.17638 -0.18426,0.52914 -0.51969,0.89764 -0.31181,0.34961 -0.73701,0.54331 -0.42047,0.18897 -0.89291,0.18897 -0.41103,0 -0.74646,-0.0898 -0.33071,-0.0898 -0.67559,-0.27874 l 0,2.21103 -0.88819,0 0,-7.22363 0.88819,0 0,0.55275 q 0.35433,-0.29764 0.7937,-0.49606 0.4441,-0.20315 0.94488,-0.20315 0.95434,0 1.48347,0.72283 0.53386,0.71812 0.53386,1.99843 z m -0.91654,0.0236 q 0,-0.95433 -0.32598,-1.42677 -0.32599,-0.47244 -1.00158,-0.47244 -0.38268,0 -0.77008,0.16535 -0.3874,0.16536 -0.74173,0.43465 l 0,2.99055 q 0.37795,0.17008 0.64724,0.2315 0.27402,0.0614 0.6189,0.0614 0.74174,0 1.15748,-0.50079 0.41575,-0.50079 0.41575,-1.48347 z"
               inkscape:connector-curvature="0" />
            <path
               id="path5939"
               d="m 261.81442,800.40369 q 0,1.28977 -0.66141,2.03623 -0.66142,0.74645 -1.77166,0.74645 -1.11968,0 -1.7811,-0.74645 -0.6567,-0.74646 -0.6567,-2.03623 0,-1.28976 0.6567,-2.03622 0.66142,-0.75118 1.7811,-0.75118 1.11024,0 1.77166,0.75118 0.66141,0.74646 0.66141,2.03622 z m -0.91653,0 q 0,-1.02519 -0.40158,-1.52126 -0.40157,-0.50079 -1.11496,-0.50079 -0.72283,0 -1.12441,0.50079 -0.39685,0.49607 -0.39685,1.52126 0,0.99213 0.40158,1.50709 0.40157,0.51024 1.11968,0.51024 0.70866,0 1.11024,-0.50551 0.4063,-0.51024 0.4063,-1.51182 z"
               inkscape:connector-curvature="0" />
            <path
               id="path5941"
               d="m 269.83176,797.76275 -1.37481,5.27717 -0.82205,0 -1.3559,-4.06772 -1.34646,4.06772 -0.81733,0 -1.38897,-5.27717 0.92598,0 0.96851,4.08661 1.31811,-4.08661 0.73228,0 1.35118,4.08661 0.91654,-4.08661 0.89292,0 z"
               inkscape:connector-curvature="0" />
            <path
               id="path5943"
               d="m 275.5294,800.49346 -3.88819,0 q 0,0.48661 0.14645,0.85039 0.14646,0.35906 0.40158,0.59055 0.24567,0.22678 0.5811,0.34016 0.34016,0.11339 0.74646,0.11339 0.53858,0 1.08189,-0.2126 0.54803,-0.21732 0.77953,-0.4252 l 0.0472,0 0,0.96851 q -0.44882,0.18897 -0.91654,0.31653 -0.46771,0.12756 -0.98267,0.12756 -1.31339,0 -2.0504,-0.70866 -0.73701,-0.71339 -0.73701,-2.02205 0,-1.29449 0.70394,-2.05512 0.70866,-0.76063 1.86142,-0.76063 1.06772,0 1.6441,0.62362 0.5811,0.62362 0.5811,1.77166 l 0,0.48189 z m -0.86457,-0.68032 q -0.005,-0.69921 -0.35433,-1.08189 -0.34488,-0.38268 -1.05355,-0.38268 -0.71338,0 -1.13858,0.42048 -0.42047,0.42047 -0.47716,1.04409 l 3.02362,0 z"
               inkscape:connector-curvature="0" />
            <path
               id="path5945"
               d="m 280.16877,798.73125 -0.0472,0 q -0.19843,-0.0472 -0.3874,-0.0661 -0.18425,-0.0236 -0.43937,-0.0236 -0.41103,0 -0.7937,0.18425 -0.38268,0.17953 -0.73701,0.46772 l 0,3.74646 -0.88819,0 0,-5.27717 0.88819,0 0,0.77952 q 0.52913,-0.42519 0.93071,-0.6 0.4063,-0.17952 0.82677,-0.17952 0.2315,0 0.33543,0.0142 0.10394,0.009 0.31181,0.0425 l 0,0.91181 z"
               inkscape:connector-curvature="0" />
          </g>
        </g>
        <g
           id="text2194"
           style="font-size:12px;font-family:'Bitstream Vera Sans';fill:#000000"
           transform="matrix(0.012255,-0.99992,0.99992,0.012255,0,0)">
          <path
             id="path5934"
             d="m -751.18109,319.81677 -4.72266,0 0,-0.89062 1.81641,0 0,-5.84766 -1.81641,0 0,-0.79687 q 0.36914,0 0.79102,-0.0586 0.42187,-0.0645 0.63867,-0.18164 0.26953,-0.14648 0.42187,-0.36914 0.15821,-0.22851 0.18165,-0.60937 l 0.9082,0 0,7.86328 1.78125,0 0,0.89062 z"
             inkscape:connector-curvature="0" />
        </g>
        <g
           id="text2198"
           style="font-size:12px;font-family:'Bitstream Vera Sans';fill:#000000"
           transform="matrix(-0.06209375,-0.99807032,0.99807032,-0.06209375,0,0)">
          <path
             id="path5931"
             d="m -794.41907,262.71271 -5.90625,0 0,-1.22461 q 0.61524,-0.52735 1.23047,-1.05469 0.6211,-0.52734 1.1543,-1.04883 1.125,-1.08984 1.54101,-1.72851 0.41602,-0.64453 0.41602,-1.38867 0,-0.67969 -0.45117,-1.06055 -0.44531,-0.38672 -1.24805,-0.38672 -0.5332,0 -1.1543,0.1875 -0.62109,0.1875 -1.21289,0.57422 l -0.0586,0 0,-1.23047 q 0.41602,-0.20508 1.10742,-0.375 0.69727,-0.16992 1.34766,-0.16992 1.34179,0 2.10351,0.65039 0.76172,0.64453 0.76172,1.75195 0,0.49805 -0.1289,0.93164 -0.12305,0.42774 -0.36914,0.81446 -0.22852,0.36328 -0.53907,0.71484 -0.30468,0.35156 -0.74414,0.7793 -0.62695,0.61523 -1.29492,1.19531 -0.66797,0.57422 -1.24805,1.0664 l 4.69336,0 0,1.00196 z"
             inkscape:connector-curvature="0" />
        </g>
        <g
           id="text2202"
           style="font-size:12px;font-family:'Bitstream Vera Sans';fill:#000000"
           transform="matrix(0.01842963,-0.99983016,0.99983016,0.01842963,0,0)">
          <path
             id="path5925"
             d="m -748.32715,341.01422 q 0.28125,0.25195 0.46289,0.63281 0.18164,0.38086 0.18164,0.98438 0,0.59765 -0.21679,1.0957 -0.2168,0.49805 -0.60938,0.86719 -0.43945,0.41016 -1.03711,0.60937 -0.5918,0.19336 -1.30078,0.19336 -0.72656,0 -1.42969,-0.17578 -0.70312,-0.16992 -1.15429,-0.375 l 0,-1.22461 0.0879,0 q 0.49804,0.32813 1.17187,0.54492 0.67383,0.2168 1.30078,0.2168 0.36914,0 0.78516,-0.12305 0.41601,-0.12304 0.67383,-0.36328 0.26953,-0.25781 0.39843,-0.56836 0.13477,-0.31054 0.13477,-0.78515 0,-0.46875 -0.15234,-0.77344 -0.14649,-0.31055 -0.41016,-0.48633 -0.26367,-0.18164 -0.63867,-0.24609 -0.375,-0.0703 -0.8086,-0.0703 l -0.52734,0 0,-0.97266 0.41016,0 q 0.89062,0 1.41797,-0.36914 0.5332,-0.375 0.5332,-1.08984 0,-0.31641 -0.13477,-0.55079 -0.13476,-0.24023 -0.375,-0.39257 -0.25195,-0.15235 -0.53906,-0.21094 -0.28711,-0.0586 -0.65039,-0.0586 -0.55664,0 -1.18359,0.19922 -0.62696,0.19922 -1.1836,0.5625 l -0.0586,0 0,-1.22461 q 0.41601,-0.20507 1.10742,-0.375 0.69727,-0.17578 1.34766,-0.17578 0.63867,0 1.125,0.11719 0.48633,0.11719 0.8789,0.375 0.42188,0.28125 0.63868,0.67969 0.21679,0.39844 0.21679,0.93164 0,0.72656 -0.51562,1.27148 -0.50977,0.53907 -1.20703,0.67969 l 0,0.082 q 0.28125,0.0469 0.64453,0.19922 0.36328,0.14648 0.61523,0.36914 z"
             inkscape:connector-curvature="0" />
        </g>
        <g
           id="text2206"
           style="font-size:12px;font-family:'Bitstream Vera Sans';fill:#000000"
           transform="matrix(-0.039156,-0.99923,0.99923,-0.039156,0,0)">
          <path
             id="path5928"
             d="m -787.68408,298.52954 -1.29492,0 0,2.45508 -1.125,0 0,-2.45508 -4.17774,0 0,-1.34766 4.22461,-4.92187 1.07813,0 0,5.33203 1.29492,0 0,0.9375 z m -2.41992,-0.9375 0,-3.9375 -3.38086,3.9375 3.38086,0 z"
             inkscape:connector-curvature="0" />
        </g>
        <g
           id="text2210"
           style="font-size:12px;font-family:'Bitstream Vera Sans';fill:#000000"
           transform="matrix(0.032706,-0.99946,0.99946,0.032706,0,0)">
          <path
             id="path5919"
             d="m -743.03827,374.08615 q 0,0.60938 -0.22266,1.16602 -0.22265,0.55664 -0.60937,0.9375 -0.42188,0.41015 -1.00781,0.63281 -0.58008,0.2168 -1.34766,0.2168 -0.71484,0 -1.37695,-0.15235 -0.66211,-0.14648 -1.11914,-0.35742 l 0,-1.23633 0.082,0 q 0.48047,0.30469 1.125,0.52149 0.64453,0.21093 1.26562,0.21093 0.41602,0 0.80274,-0.11718 0.39258,-0.11719 0.69726,-0.41016 0.25782,-0.25195 0.38672,-0.60352 0.13477,-0.35156 0.13477,-0.81445 0,-0.45117 -0.15821,-0.76172 -0.15234,-0.31054 -0.42773,-0.49804 -0.30469,-0.22266 -0.74414,-0.31055 -0.43359,-0.0937 -0.97266,-0.0937 -0.51562,0 -0.99609,0.0703 -0.47461,0.0703 -0.82031,0.14063 l 0,-4.49414 5.25,0 0,1.02539 -4.11914,0 0,2.32031 q 0.25195,-0.0234 0.51562,-0.0352 0.26367,-0.0117 0.45703,-0.0117 0.70899,0 1.24219,0.12305 0.5332,0.11719 0.97852,0.42188 0.46875,0.32226 0.72656,0.83203 0.25781,0.50976 0.25781,1.27734 z"
             inkscape:connector-curvature="0" />
        </g>
        <g
           id="text2214"
           style="font-size:12px;font-family:'Bitstream Vera Sans';fill:#000000"
           transform="matrix(0.03741113,-0.99929996,0.99929996,0.03741113,0,0)">
          <path
             id="path5922"
             d="m -762.82617,376.45493 q 0,1.33007 -0.87891,2.17382 -0.87304,0.83789 -2.14453,0.83789 -0.64453,0 -1.17187,-0.19921 -0.52735,-0.19922 -0.93164,-0.5918 -0.50391,-0.48633 -0.7793,-1.28906 -0.26953,-0.80274 -0.26953,-1.9336 0,-1.16015 0.24609,-2.05664 0.25195,-0.89648 0.79688,-1.59375 0.51562,-0.66211 1.33007,-1.03125 0.81446,-0.375 1.89844,-0.375 0.3457,0 0.58008,0.0293 0.23437,0.0293 0.47461,0.10547 l 0,1.11914 -0.0586,0 q -0.16407,-0.0879 -0.49805,-0.16406 -0.32813,-0.082 -0.67383,-0.082 -1.25977,0 -2.00977,0.79102 -0.75,0.78516 -0.87304,2.12695 0.49219,-0.29883 0.96679,-0.45117 0.48047,-0.1582 1.10743,-0.1582 0.55664,0 0.97851,0.10547 0.42774,0.0996 0.87305,0.41015 0.51562,0.35742 0.77344,0.90235 0.26367,0.54492 0.26367,1.32422 z m -1.18945,0.0469 q 0,-0.54492 -0.16407,-0.90234 -0.1582,-0.35743 -0.52734,-0.6211 -0.26953,-0.1875 -0.59766,-0.24609 -0.32812,-0.0586 -0.68554,-0.0586 -0.49805,0 -0.92579,0.11718 -0.42773,0.11719 -0.8789,0.36328 -0.0117,0.12891 -0.0176,0.25196 -0.006,0.11718 -0.006,0.29883 0,0.92578 0.1875,1.46484 0.19336,0.5332 0.52734,0.84375 0.26954,0.25781 0.58008,0.38086 0.31641,0.11719 0.68555,0.11719 0.84961,0 1.33594,-0.51563 0.48633,-0.52148 0.48633,-1.49414 z"
             inkscape:connector-curvature="0" />
        </g>
        <g
           id="text2218"
           style="font-size:12px;font-family:'Bitstream Vera Sans';fill:#000000"
           transform="matrix(-0.12169611,-0.99256741,0.99256741,-0.12169611,0,0)">
          <path
             id="path5916"
             d="m -792.74384,269.3475 -3.94921,7.41797 -1.25391,0 4.20117,-7.69922 -4.96875,0 0,-1.02539 5.9707,0 0,1.30664 z"
             inkscape:connector-curvature="0" />
        </g>
        <g
           id="text2222"
           style="font-size:12px;font-family:'Bitstream Vera Sans';fill:#000000"
           transform="matrix(0.02607226,-0.99966006,0.99966006,0.02607226,0,0)">
          <path
             id="path5913"
             d="m -766.42468,389.22467 q 0,1.13086 -0.88477,1.88086 -0.8789,0.75 -2.21484,0.75 -1.41797,0 -2.26172,-0.73242 -0.83789,-0.73242 -0.83789,-1.875 0,-0.72656 0.42187,-1.3125 0.42188,-0.5918 1.18946,-0.9375 l 0,-0.0352 q -0.70313,-0.375 -1.04297,-0.82031 -0.33399,-0.44531 -0.33399,-1.11328 0,-0.98438 0.8086,-1.64063 0.80859,-0.65625 2.05664,-0.65625 1.30664,0 2.08594,0.62696 0.77929,0.62695 0.77929,1.59375 0,0.59179 -0.36914,1.16601 -0.36914,0.56836 -1.08398,0.89063 l 0,0.0351 q 0.82031,0.35157 1.2539,0.86719 0.4336,0.51563 0.4336,1.3125 z m -1.38867,-4.25977 q 0,-0.62695 -0.48633,-0.99609 -0.48047,-0.375 -1.23047,-0.375 -0.73828,0 -1.21289,0.35156 -0.46875,0.35157 -0.46875,0.94922 0,0.42188 0.23437,0.73242 0.24024,0.30469 0.72071,0.54493 0.21679,0.10546 0.62109,0.27539 0.41016,0.16992 0.79687,0.28125 0.58008,-0.38672 0.80274,-0.80274 0.22266,-0.41601 0.22266,-0.96094 z m 0.18164,4.3711 q 0,-0.53906 -0.24024,-0.86133 -0.23437,-0.32812 -0.92578,-0.65625 -0.27539,-0.12891 -0.60352,-0.24023 -0.32812,-0.11133 -0.87304,-0.31055 -0.52735,0.28711 -0.84961,0.7793 -0.31641,0.49218 -0.31641,1.11328 0,0.79101 0.54492,1.30664 0.54493,0.51562 1.38282,0.51562 0.85547,0 1.36523,-0.43945 0.51563,-0.43945 0.51563,-1.20703 z"
             inkscape:connector-curvature="0" />
        </g>
        <path
           sodipodi:start="0"
           sodipodi:end="6.2808703"
           sodipodi:cx="-174.09689"
           sodipodi:cy="631.22278"
           transform="matrix(1,0,0,0.31908,562.32,577.92)"
           d="m -165.34342,631.22278 a 8.7534752,26.260424 0 0 1 -8.74841,26.26042 8.7534752,26.260424 0 0 1 -8.75853,-26.23003 8.7534752,26.260424 0 0 1 8.73827,-26.29078 8.7534752,26.260424 0 0 1 8.76865,26.1996 l -8.75345,0.0608 z"
           sodipodi:type="arc"
           style="fill:#d7a920;fill-rule:evenodd"
           sodipodi:ry="26.260424"
           sodipodi:rx="8.7534752"
           id="path2226" />
        <g
           id="text2228"
           style="font-size:12px;font-family:'Bitstream Vera Sans';fill:#000000"
           transform="matrix(0.03066063,-0.99952985,0.99952985,0.03066063,0,0)">
          <path
             id="path5907"
             d="m -742.04523,410.84225 q 0,1.14258 -0.26367,2.07422 -0.25781,0.93164 -0.78516,1.58789 -0.5332,0.66797 -1.33593,1.03125 -0.80274,0.36329 -1.88672,0.36329 -0.30469,0 -0.57422,-0.0352 -0.26953,-0.0293 -0.48047,-0.0996 l 0,-1.11914 0.0586,0 q 0.16993,0.0879 0.48047,0.16992 0.31055,0.0762 0.69141,0.0762 1.29492,0 2.02734,-0.77343 0.73828,-0.7793 0.85547,-2.14454 -0.54492,0.32813 -1.02539,0.46875 -0.48047,0.14063 -1.04883,0.14063 -0.53906,0 -0.97851,-0.10547 -0.4336,-0.10547 -0.87305,-0.41016 -0.51562,-0.35742 -0.7793,-0.9082 -0.25781,-0.55078 -0.25781,-1.31836 0,-1.33594 0.87891,-2.17383 0.8789,-0.83789 2.14453,-0.83789 0.63281,0 1.17187,0.19922 0.53907,0.19336 0.94336,0.58594 0.49805,0.48633 0.76758,1.25391 0.26953,0.76171 0.26953,1.9746 z m -1.18359,-0.25195 q 0,-0.9082 -0.1875,-1.45898 -0.1875,-0.55078 -0.51563,-0.85547 -0.27539,-0.26367 -0.59179,-0.375 -0.31641,-0.11719 -0.68555,-0.11719 -0.84375,0 -1.33594,0.52734 -0.48633,0.52735 -0.48633,1.48243 0,0.55664 0.15821,0.9082 0.1582,0.35156 0.5332,0.61523 0.26367,0.18164 0.58008,0.2461 0.31641,0.0586 0.70312,0.0586 0.45704,0 0.92579,-0.12305 0.46875,-0.12304 0.8789,-0.35742 0.006,-0.12304 0.0117,-0.24023 0.0117,-0.12305 0.0117,-0.31055 z"
             inkscape:connector-curvature="0" />
        </g>
        <g
           id="text2232"
           style="font-size:12px;font-family:'Bitstream Vera Sans';fill:#000000"
           transform="matrix(-0.03612046,-0.99934744,0.99934744,-0.03612046,0,0)">
          <path
             id="path5910"
             d="m -789.55939,360.28659 q 0,2.34961 -0.73828,3.45117 -0.73242,1.09571 -2.2793,1.09571 -1.57031,0 -2.29687,-1.11329 -0.7207,-1.11328 -0.7207,-3.42187 0,-2.32617 0.73242,-3.43359 0.73242,-1.11329 2.28515,-1.11329 1.57032,0 2.29102,1.13086 0.72656,1.125 0.72656,3.4043 z m -1.54101,2.66016 q 0.20508,-0.47461 0.27539,-1.11328 0.0762,-0.64454 0.0762,-1.54688 0,-0.89062 -0.0762,-1.54687 -0.0703,-0.65625 -0.28125,-1.11329 -0.20508,-0.45117 -0.5625,-0.67968 -0.35156,-0.22852 -0.90821,-0.22852 -0.55078,0 -0.91406,0.22852 -0.35742,0.22851 -0.56836,0.6914 -0.19922,0.4336 -0.27539,1.13086 -0.0703,0.69727 -0.0703,1.5293 0,0.91406 0.0644,1.5293 0.0645,0.61523 0.27539,1.10156 0.19336,0.45703 0.54493,0.69726 0.35742,0.24024 0.94335,0.24024 0.55079,0 0.91407,-0.22852 0.36328,-0.22851 0.5625,-0.6914 z"
             inkscape:connector-curvature="0" />
        </g>
      </g>
    </g>
    <path
       style="opacity:0.24600004;fill:#ff5555;fill-rule:evenodd;stroke:none;stroke-width:1px;stroke-linecap:butt;stroke-linejoin:miter;stroke-opacity:1"
       d="m 566.09679,758.66317 -239.78641,-128.70384 66.57987,-1.6239 z"
       id="path5904"
       inkscape:connector-curvature="0"
       sodipodi:nodetypes="cccc" />
  </g>
  <metadata
     id="metadata5362">
    <rdf:RDF>
      <cc:Work>
        <dc:format>image/svg+xml</dc:format>
        <dc:type
           rdf:resource="http://purl.org/dc/dcmitype/StillImage" />
        <cc:license
           rdf:resource="http://creativecommons.org/publicdomain/zero/1.0/" />
        <dc:publisher>
          <cc:Agent
             rdf:about="http://openclipart.org/">
            <dc:title>Openclipart</dc:title>
          </cc:Agent>
        </dc:publisher>
        <dc:title></dc:title>
        <dc:date>2006-12-29T10:57:08</dc:date>
        <dc:description>Simple rounded TV set with a pilot and an antenna.</dc:description>
        <dc:source>https://openclipart.org/detail/11295/tv-set-5-by-machovka-11295</dc:source>
        <dc:creator>
          <cc:Agent>
            <dc:title>Machovka</dc:title>
          </cc:Agent>
        </dc:creator>
        <dc:subject>
          <rdf:Bag>
            <rdf:li>antenna</rdf:li>
            <rdf:li>electrical appliances</rdf:li>
            <rdf:li>home</rdf:li>
            <rdf:li>house</rdf:li>
            <rdf:li>household</rdf:li>
            <rdf:li>pilot</rdf:li>
            <rdf:li>television</rdf:li>
            <rdf:li>tv set</rdf:li>
          </rdf:Bag>
        </dc:subject>
      </cc:Work>
      <cc:License
         rdf:about="http://creativecommons.org/publicdomain/zero/1.0/">
        <cc:permits
           rdf:resource="http://creativecommons.org/ns#Reproduction" />
        <cc:permits
           rdf:resource="http://creativecommons.org/ns#Distribution" />
        <cc:permits
           rdf:resource="http://creativecommons.org/ns#DerivativeWorks" />
      </cc:License>
    </rdf:RDF>
  </metadata>
</svg>
