<?xml version="1.0" encoding="UTF-8"?>
<!DOCTYPE svg PUBLIC "-//W3C//DTD SVG 1.1//EN" "http://www.w3.org/Graphics/SVG/1.1/DTD/svg11.dtd">
<svg xmlns="http://www.w3.org/2000/svg" xml:space="preserve" width="100%" height="100%" version="1.1" style="shape-rendering:geometricPrecision; text-rendering:geometricPrecision; image-rendering:optimizeQuality; fill-rule:evenodd; clip-rule:evenodd"
viewBox="0 0 6788 7319"
 xmlns:xlink="http://www.w3.org/1999/xlink">
 <defs>
  <style type="text/css">
   <![CDATA[
    .str0 {stroke:black;stroke-width:85}
    .fil0 {fill:none}
    .fil1 {fill:black;fill-rule:nonzero}
   ]]>
  </style>
 </defs>
 <g id="Layer_x0020_1">
  <metadata id="CorelCorpID_0Corel-Layer"/>
  <path id="path19449_1_" class="fil0 str0" d="M2043 7277l3469 0c-128,-602 -185,-1593 -119,-1836 278,-1039 813,-1005 945,-1336 965,-1906 197,-3831 -2108,-4040 -2977,-256 -3317,1750 -3445,2711 -14,103 0,206 48,313 -225,352 -743,870 -788,1119 -27,149 150,202 235,254 82,27 171,8 225,74 39,49 -13,130 -25,190 -2,100 -118,148 -107,239 12,78 78,109 138,158 64,50 -163,147 -89,237 76,87 186,188 147,312 -56,193 -165,393 -75,542 89,148 213,235 405,274 237,0 475,4 713,5 133,1 253,77 313,195 95,190 133,386 118,589z"/>
  <path id="path4497-8" class="fil1" d="M4392 2725c-459,-138 -660,340 -614,501 40,138 57,-582 626,-417 251,72 399,358 330,605 -59,212 -275,378 -451,487 -102,62 -191,149 -225,265 -33,114 -137,187 -261,155 -132,-34 -188,-187 -129,-287 182,-307 -251,22 -23,287 105,121 348,126 433,-29 66,-121 115,-255 247,-327 213,-117 447,-334 495,-587 53,-283 -103,-556 -428,-653l0 0zm-131 175c-158,0 -416,182 -371,512 8,61 70,-23 73,-65 5,-78 351,176 42,308 -181,77 -179,293 -136,213 26,-50 63,-97 118,-118 306,-117 273,-390 85,-454 -161,-55 -72,-221 46,-174 58,23 108,77 108,141 -1,38 56,155 64,84 13,-115 -59,-241 -129,-285 -49,-31 60,-54 91,-58 107,-11 226,50 258,158 32,108 21,230 -35,325 -143,249 -362,257 -374,327 -21,123 28,12 177,-56 116,-52 211,-162 244,-210 222,-316 22,-648 -261,-648z"/>
 </g>
</svg>
