<?xml version="1.0" encoding="UTF-8" standalone="no"?>
<!-- Created with Inkscape (http://www.inkscape.org/) -->

<svg
   xmlns:dc="http://purl.org/dc/elements/1.1/"
   xmlns:cc="http://creativecommons.org/ns#"
   xmlns:rdf="http://www.w3.org/1999/02/22-rdf-syntax-ns#"
   xmlns:svg="http://www.w3.org/2000/svg"
   xmlns="http://www.w3.org/2000/svg"
   xmlns:sodipodi="http://sodipodi.sourceforge.net/DTD/sodipodi-0.dtd"
   xmlns:inkscape="http://www.inkscape.org/namespaces/inkscape"
   width="71.494461mm"
   height="84.147026mm"
   viewBox="0 0 71.494461 84.147026"
   version="1.1"
   id="svg8"
   inkscape:version="0.92.3 (2405546, 2018-03-11)"
   sodipodi:docname="interview-silhouette.svg">
  <title
     id="title828">Interview</title>
  <defs
     id="defs2" />
  <sodipodi:namedview
     id="base"
     pagecolor="#ffffff"
     bordercolor="#666666"
     borderopacity="1.0"
     inkscape:pageopacity="0.0"
     inkscape:pageshadow="2"
     inkscape:zoom="0.35"
     inkscape:cx="-195.71423"
     inkscape:cy="-149.71322"
     inkscape:document-units="mm"
     inkscape:current-layer="layer1"
     showgrid="false"
     fit-margin-top="0"
     fit-margin-left="0"
     fit-margin-right="0"
     fit-margin-bottom="0"
     inkscape:window-width="1920"
     inkscape:window-height="1017"
     inkscape:window-x="3832"
     inkscape:window-y="-8"
     inkscape:window-maximized="1" />
  <metadata
     id="metadata5">
    <rdf:RDF>
      <cc:Work
         rdf:about="">
        <dc:format>image/svg+xml</dc:format>
        <dc:type
           rdf:resource="http://purl.org/dc/dcmitype/StillImage" />
        <dc:title>Interview</dc:title>
        <cc:license
           rdf:resource="http://creativecommons.org/publicdomain/zero/1.0/" />
        <dc:subject>
          <rdf:Bag>
            <rdf:li>Interview</rdf:li>
            <rdf:li>microphone</rdf:li>
            <rdf:li>speech</rdf:li>
            <rdf:li>woman</rdf:li>
            <rdf:li>attractive</rdf:li>
            <rdf:li>audio businesswoman</rdf:li>
            <rdf:li>center</rdf:li>
            <rdf:li>communication</rdf:li>
            <rdf:li>conference</rdf:li>
            <rdf:li>equipment</rdf:li>
            <rdf:li>girl</rdf:li>
            <rdf:li>public speaking</rdf:li>
            <rdf:li>interviewing</rdf:li>
            <rdf:li>journalist</rdf:li>
            <rdf:li>media</rdf:li>
            <rdf:li>news</rdf:li>
            <rdf:li>newscaster</rdf:li>
            <rdf:li>performance</rdf:li>
            <rdf:li>presentation</rdf:li>
            <rdf:li>presenter</rdf:li>
            <rdf:li>press</rdf:li>
            <rdf:li>public</rdf:li>
          </rdf:Bag>
        </dc:subject>
      </cc:Work>
      <cc:License
         rdf:about="http://creativecommons.org/publicdomain/zero/1.0/">
        <cc:permits
           rdf:resource="http://creativecommons.org/ns#Reproduction" />
        <cc:permits
           rdf:resource="http://creativecommons.org/ns#Distribution" />
        <cc:permits
           rdf:resource="http://creativecommons.org/ns#DerivativeWorks" />
      </cc:License>
    </rdf:RDF>
  </metadata>
  <g
     inkscape:label="Layer 1"
     inkscape:groupmode="layer"
     id="layer1"
     transform="translate(-34.773795,-25.074687)">
    <path
       style="fill:#000000;stroke-width:1"
       d="m 34.773795,84.845606 v -24.37612 h 5.291225 c 4.937112,0 8.159695,-0.0535 8.502451,-0.14116 0.107636,-0.0275 0.141829,-0.0618 0.130216,-0.13054 -0.0087,-0.0513 -0.224437,-0.61869 -0.479502,-1.26093 -0.402464,-1.01339 -1.250757,-3.20276 -2.328201,-6.00889 -0.169534,-0.44154 -0.417346,-1.09838 -0.550692,-1.45964 -0.133346,-0.36127 -0.437893,-1.13853 -0.676771,-1.72725 -0.55606,-1.37044 -1.140694,-2.97786 -1.120911,-3.08188 0.0416,-0.21875 1.801932,-0.008 2.375193,0.28474 0.332338,0.16955 0.651149,0.73468 1.138779,2.01866 0.308578,0.81251 1.256307,3.2514 1.815052,4.67087 0.200138,0.50844 0.416651,1.07771 0.481139,1.26503 0.226311,0.65738 0.962695,2.55438 0.991568,2.55438 0.01605,0 0.05536,-0.23547 0.08737,-0.52327 0.148473,-1.33525 0.615853,-2.48654 1.469832,-3.62061 0.4774,-0.63398 0.701611,-0.88983 1.677029,-1.91366 1.460044,-1.5325 1.815782,-1.951 2.071264,-2.43668 0.12072,-0.22949 0.143817,-0.32956 0.14342,-0.62136 -9.19e-4,-0.63483 -0.18228,-0.88637 -1.288882,-1.78708 -0.677894,-0.55176 -0.962793,-0.87521 -1.176734,-1.33594 -0.115238,-0.24817 -0.134847,-0.35327 -0.135816,-0.72794 -0.0011,-0.39652 0.01265,-0.46286 0.144832,-0.70215 0.157243,-0.28467 0.561204,-0.62376 0.936608,-0.7862 0.140036,-0.0606 0.206783,-0.11952 0.206783,-0.18256 0,-0.0512 0.03521,-0.1223 0.07825,-0.15802 0.06652,-0.0552 0.08854,-0.0509 0.146932,0.029 0.06662,0.0911 0.07256,0.0898 0.197389,-0.0449 0.123692,-0.1334 0.131354,-0.13523 0.196807,-0.0471 0.06596,0.0888 0.07103,0.0881 0.160899,-0.0215 0.09451,-0.11527 0.192824,-0.10658 0.192824,0.0171 0,0.0376 0.03441,0.16978 0.07648,0.29367 0.08508,0.25059 0.06305,0.31447 -0.07803,0.22636 -0.128671,-0.0804 -0.140102,-0.0766 -0.193067,0.0627 -0.04809,0.12648 -0.118561,0.15668 -0.170292,0.073 -0.05238,-0.0847 -0.206575,-0.0526 -0.233045,0.0487 -0.03235,0.1237 -0.105678,0.1235 -0.229831,-6.7e-4 l -0.09797,-0.098 -0.206129,0.10383 c -0.348462,0.17553 -0.605275,0.41784 -0.744546,0.7025 -0.113059,0.23109 -0.128054,0.3114 -0.107031,0.57329 0.04983,0.62074 0.393208,1.09447 1.25245,1.72789 0.94264,0.6949 1.297019,1.1258 1.424091,1.73163 0.07156,0.34114 3.68e-4,0.80249 -0.163847,1.06173 -0.309243,0.48822 -0.703407,0.98501 -1.167633,1.47166 -2.340665,2.45372 -2.788672,2.99258 -3.296821,3.96538 -0.29937,0.57311 -0.413729,0.86973 -0.562761,1.45965 -0.170134,0.67345 -0.232357,1.16008 -0.239522,1.87321 -0.0061,0.61156 -0.0015,0.64219 0.139611,0.92445 l 0.145965,0.29193 0.77848,0.0321 c 0.960597,0.0395 6.986359,0.15092 7.004752,0.12947 0.0073,-0.009 0.02163,-3.04798 0.03178,-6.75427 l 0.01844,-6.7387 -0.109473,-0.0155 c -0.109331,-0.0155 -0.109475,-0.0168 -0.109475,-0.98186 v -0.9663 l -0.36794,-0.20311 c -0.202369,-0.11171 -0.356813,-0.21424 -0.343212,-0.22784 0.0221,-0.0221 2.040643,-0.44757 2.137163,-0.45048 0.02164,-6.4e-4 -0.03067,0.13019 -0.116252,0.29075 -0.165402,0.31033 -0.215009,0.34796 -0.262295,0.19897 -0.03255,-0.10255 -0.260837,-0.27199 -0.305834,-0.22699 -0.01563,0.0156 0.01793,0.0777 0.07457,0.13802 l 0.10298,0.10962 -0.03963,7.90609 c -0.0218,4.34835 -0.0363,7.91048 -0.03223,7.91584 0.0041,0.005 1.227298,0.0253 2.718283,0.0442 l 2.710878,0.0345 v 0.32887 c 0,0.47596 0.0052,0.48279 0.370119,0.48279 0.216261,0 0.311132,-0.0185 0.311317,-0.0608 1.47e-4,-0.0334 -0.218939,-0.51152 -0.486859,-1.06237 -0.55323,-1.13747 -0.7033,-1.61356 -0.671736,-2.13108 0.02427,-0.39794 0.117288,-0.59512 0.458729,-0.97242 0.539275,-0.59592 1.431152,-1.16192 1.999732,-1.26906 0.553228,-0.10424 1.086833,-0.47981 2.03493,-1.43225 1.028157,-1.03287 1.834983,-2.00212 2.293802,-2.75559 0.105505,-0.17325 0.351664,-0.62153 0.547024,-0.99617 0.488573,-0.93694 0.658773,-1.22167 1.138924,-1.90536 0.484604,-0.69002 0.661245,-1.02234 0.810518,-1.52481 0.131743,-0.44348 0.271207,-0.72723 0.615305,-1.25191 0.144442,-0.22024 0.416258,-0.7074 0.604027,-1.08257 l 0.341402,-0.68213 h 0.192757 c 0.106014,0 0.19275,-0.02 0.19275,-0.0444 0,-0.0636 -0.538965,-0.78379 -0.951185,-1.27097 -0.193267,-0.22841 -0.579942,-0.6335 -0.85928,-0.9002 -0.560913,-0.53554 -0.923066,-0.75234 -1.256717,-0.75234 -0.28286,0 -0.921827,0.22417 -1.861261,0.65299 -0.440732,0.20117 -0.900272,0.38795 -1.021204,0.41505 -0.277736,0.0622 -0.619777,-0.0311 -0.821213,-0.22407 -0.148158,-0.14195 -0.332761,-0.64176 -0.332761,-0.90095 0,-0.20715 -0.0816,-0.33066 -0.270666,-0.40966 -0.190566,-0.0796 -0.240052,-0.20969 -0.20342,-0.53468 0.02232,-0.19807 0.0096,-0.23191 -0.145507,-0.38702 -0.18066,-0.18066 -0.180642,-0.18046 -0.05861,-0.61491 0.07902,-0.28132 0.03596,-0.34724 -0.278577,-0.42644 -0.718675,-0.18096 -0.861067,-0.46587 -0.500034,-1.00048 0.574738,-0.85108 0.67849,-1.33072 0.505181,-2.33544 -0.08784,-0.5092 -0.262599,-1.1958 -0.321378,-1.2626 -0.02237,-0.0254 -0.04137,0.1169 -0.04222,0.31626 -0.0011,0.24133 -0.02542,0.39405 -0.07298,0.45693 -0.04431,0.0586 -0.07172,0.2064 -0.07218,0.38924 -3.68e-4,0.16213 -0.02197,0.32763 -0.04791,0.36777 -0.03623,0.0561 -0.04732,0.0391 -0.04785,-0.073 -0.0013,-0.25585 -0.111415,-0.94877 -0.150914,-0.94877 -0.02093,0 -0.04498,0.06 -0.05345,0.13338 -0.0085,0.0734 -0.04824,0.13962 -0.08838,0.14724 -0.06352,0.0121 -0.07141,-0.13933 -0.06083,-1.1673 0.01076,-1.04655 0.004,-1.17063 -0.05928,-1.08881 -0.06868,0.0888 -0.07338,0.0872 -0.121626,-0.0397 -0.125787,-0.33084 -0.02322,-0.75952 0.37029,-1.54761 0.08986,-0.17996 0.163381,-0.3387 0.163381,-0.35275 0,-0.014 -0.04379,-0.0255 -0.09731,-0.0255 -0.336871,0 0.314195,-0.85747 0.985262,-1.29761 0.180632,-0.11848 0.328421,-0.23568 0.328421,-0.26046 0,-0.0849 0.594021,-0.73527 0.868759,-0.95115 0.310081,-0.24365 0.772527,-0.49809 1.186913,-0.65304 0.15387,-0.0575 0.279765,-0.12162 0.279765,-0.14241 0,-0.0468 -0.476823,0.0247 -0.799473,0.11994 -0.131967,0.0389 -0.307125,0.0701 -0.38924,0.0692 l -0.149297,-0.002 0.121174,-0.1008 c 0.273792,-0.22776 1.265535,-0.59926 1.919247,-0.71893 0.605322,-0.11081 1.868102,-0.16127 2.548964,-0.10186 0.357274,0.0312 0.660121,0.0462 0.67299,0.0333 0.01287,-0.0129 -0.104004,-0.0727 -0.259724,-0.13298 -0.200434,-0.0776 -0.439438,-0.11876 -0.818328,-0.141 l -0.535203,-0.0314 0.194619,-0.0935 c 0.280977,-0.13495 1.03127,-0.12362 1.552297,0.0234 0.792088,0.22354 1.634752,0.7028 2.248257,1.27868 0.40458,0.37976 0.450325,0.40471 0.821665,0.44804 0.316127,0.0369 0.708975,0.1952 0.895398,0.36081 0.06431,0.0571 0.12999,0.1039 0.145965,0.10394 0.01598,4e-5 0.171362,0.13689 0.345302,0.3041 l 0.316259,0.30402 -0.206784,0.015 c -0.113732,0.008 -0.206783,0.0268 -0.206783,0.0412 0,0.0144 0.08631,0.12429 0.191801,0.24413 0.105489,0.11984 0.328563,0.41878 0.495716,0.66431 0.167155,0.24552 0.316213,0.45735 0.331239,0.47073 0.0336,0.0299 0.152412,0.3426 0.401879,1.05765 0.307485,0.88134 0.347649,1.71652 0.133991,2.78609 -0.106909,0.53519 -0.22105,0.91625 -0.626656,2.09217 -0.161533,0.4683 -0.326932,1.01163 -0.367559,1.20739 -0.08979,0.43267 -0.09298,1.22972 -0.0067,1.67541 0.05994,0.30967 0.05845,0.32842 -0.02611,0.32842 -0.04933,0 -0.08968,0.0135 -0.08968,0.03 0,0.0704 0.354494,0.50523 0.411933,0.50523 0.03468,0 0.562415,-0.15374 1.172744,-0.34163 0.610327,-0.1879 1.239192,-0.37519 1.397481,-0.41621 0.335948,-0.0871 0.61566,-0.0754 0.673813,0.028 0.142437,0.25335 0.917232,1.96608 0.982805,2.17254 0.09523,0.29984 0.569657,1.15805 1.139051,2.06044 0.626602,0.99307 0.790711,1.28744 0.916659,1.64428 0.168122,0.47633 0.158119,1.00023 -0.03762,1.96989 l -0.154999,0.76786 0.08128,0.88641 c 0.0889,0.96956 0.15076,1.85158 0.229373,3.2705 0.05554,1.00237 0.120907,1.64035 0.199413,1.9462 0.02748,0.10704 0.182567,0.47925 0.344646,0.82714 0.382239,0.82044 0.583348,1.35603 0.712503,1.89754 0.198575,0.83255 0.462742,2.76928 0.524286,3.84374 l 0.03066,0.5352 1.395554,1.41099 c 1.780041,1.79974 2.114369,2.15523 2.95373,3.14073 0.919083,1.0791 1.713685,2.22094 1.928238,2.77085 0.201282,0.51589 0.246196,0.81805 0.158529,1.06652 -0.105104,0.29789 -0.09328,0.55242 0.0585,1.25879 0.121481,0.56539 0.132496,0.70369 0.128715,1.61574 -0.0033,0.79735 -0.02528,1.11454 -0.109541,1.58128 -0.183828,1.01826 -0.461423,1.80128 -0.853402,2.40721 -0.256188,0.39603 -0.369034,0.60624 -0.369034,0.68743 0,0.11485 2.660194,-0.0589 3.751681,-0.24504 0.574166,-0.0979 1.142558,-0.35181 1.302556,-0.58183 0.259929,-0.37369 0.261924,-0.74688 0.0079,-1.4892 -0.474158,-1.38588 -1.154917,-4.08694 -1.771989,-7.03072 -0.619436,-2.95507 -0.799643,-4.31352 -0.842304,-6.34947 -0.05016,-2.39395 0.165198,-3.78309 0.765317,-4.9366 0.121345,-0.23324 0.282919,-0.46081 0.395735,-0.55738 0.355779,-0.30453 1.829975,-0.77492 2.631055,-0.83951 0.338663,-0.0273 0.377076,-0.0217 0.377076,0.055 0,0.047 -0.141305,0.41695 -0.31401,0.82218 -0.443479,1.04057 -0.639972,1.60185 -0.855751,2.44448 -0.347445,1.35676 -0.397381,1.73983 -0.423533,3.24898 -0.03593,2.07377 0.07613,3.2965 0.430868,4.70132 0.10474,0.41479 0.203729,0.86553 0.219974,1.00165 l 0.02954,0.24749 -0.297695,0.26205 c -0.163734,0.14412 -0.297696,0.30153 -0.297696,0.34981 0,0.10388 0.631785,1.88814 1.167224,3.29643 0.208573,0.54858 0.690534,1.86226 1.071024,2.91929 1.19867,3.33001 1.26317,3.47177 1.69145,3.71782 0.3486,0.20027 0.38934,0.29657 0.27927,0.6601 -0.1675,0.55319 -0.055,1.83589 0.51652,5.88827 0.44548,3.1588 0.76073,5.48159 1.04006,7.66315 0.23644,1.84665 0.53978,4.07071 0.97548,7.15228 0.50257,3.554484 0.48914,3.455974 0.65654,4.816844 0.15904,1.29287 0.35544,2.71255 0.43068,3.11312 0.0251,0.13337 0.0331,0.26271 0.0178,0.28742 -0.0366,0.0592 -3.26179,0.001 -3.42705,-0.0617 -0.11102,-0.0422 -0.13013,-0.0879 -0.179,-0.42801 -0.0774,-0.53902 -0.13358,-1.30441 -0.30085,-4.10287 -0.29131,-4.873794 -0.45532,-7.057744 -0.6295,-8.382244 -0.0531,-0.40359 -0.19086,-1.86926 -0.36693,-3.90313 -0.34843,-4.02499 -0.8412,-8.65143 -0.97922,-9.19363 -0.0952,-0.3738 -0.15792,-0.49072 -0.441,-0.82157 -0.483864,-0.56553 -0.785558,-0.70248 -1.668431,-0.75735 -0.580036,-0.0361 -2.95315,0.007 -3.673447,0.0668 -0.187322,0.0155 -1.238269,0.0826 -2.335437,0.14912 -1.09717,0.0665 -2.301378,0.14186 -2.676023,0.16751 -0.374642,0.0256 -1.053377,0.0691 -1.508302,0.0966 -0.454923,0.0275 -1.17745,0.0712 -1.605613,0.0971 -0.428163,0.0259 -1.030268,0.0595 -1.33801,0.0746 -0.307743,0.0151 -0.679953,0.0381 -0.827135,0.0511 -0.14718,0.013 -1.044863,0.0565 -1.994851,0.0967 -1.784575,0.0754 -2.463926,0.12466 -3.381519,0.24504 -0.294361,0.0386 -0.650151,0.0841 -0.790641,0.10114 l -0.25544,0.0309 v 2.73519 2.73519 l 1.106899,0.68266 c 0.608795,0.37546 1.599532,0.98364 2.201637,1.3515 1.864344,1.13906 2.464154,1.5525 2.894969,1.99549 0.441592,0.45408 0.622068,0.57739 1.254694,0.85732 0.885199,0.39168 2.522757,0.93382 3.303334,1.09362 l 0.404775,0.0829 0.632514,-0.16612 c 0.620141,-0.16287 0.651072,-0.16604 1.581286,-0.16197 1.410195,0.006 1.992311,0.12901 2.12586,0.44864 0.114773,0.27469 0.155457,1.15785 0.207888,4.51273 0.05038,3.2236 0.08078,3.807414 0.24307,4.668134 0.146981,0.77954 0.20822,1.71656 0.187609,2.87064 -0.02125,1.18947 -0.07237,1.43572 -0.378243,1.82193 -0.286141,0.36127 -1.157064,0.81111 -1.937762,1.00086 -0.482286,0.11722 -1.427627,0.0838 -1.835089,-0.0649 -0.544308,-0.19863 -0.754311,-0.44368 -0.753879,-0.8797 5.52e-4,-0.35779 0.05456,-0.53945 0.346658,-1.16188 0.133951,-0.28544 0.262663,-0.61977 0.286023,-0.74295 0.07652,-0.40348 -0.05618,-1.38616 -0.318344,-2.35745 -0.219654,-0.8138 -0.412298,-1.22962 -0.94108,-2.031334 -0.349411,-0.52975 -0.546983,-0.88573 -0.614347,-1.10691 -0.289997,-0.95217 -3.834611,-3.90011 -5.357244,-4.45545 -0.316179,-0.11532 -0.375396,-0.12337 -0.506764,-0.069 -0.08181,0.0339 -0.402289,0.33163 -0.712172,0.66166 -0.309885,0.33002 -0.603322,0.61271 -0.65208,0.62819 -0.125359,0.0398 -0.332469,-0.0779 -1.406131,-0.79894 -0.520867,-0.3498 -0.963184,-0.61984 -0.982923,-0.6001 -0.03458,0.0346 -0.102686,1.71447 -0.162216,4.00108 -0.02472,0.94964 -0.08799,3.102844 -0.200141,6.811694 -0.01659,0.54859 -0.04403,1.24922 -0.06097,1.55696 l -0.03081,0.55954 -0.973099,-0.0118 c -0.535205,-0.006 -1.127753,-0.0244 -1.316778,-0.0398 l -0.343674,-0.0281 -0.122844,-0.61576 -0.122838,-0.61577 -0.190323,-0.0448 c -0.363702,-0.0857 -2.696016,-0.0627 -3.641853,0.036 -0.746016,0.0778 -1.131236,0.0873 -2.651692,0.0655 -2.318978,-0.0333 -3.38058,-0.15148 -4.033296,-0.44917 -0.737141,-0.33619 -0.937058,-0.65526 -0.663131,-1.05838 0.162651,-0.23937 0.800039,-0.54804 2.066087,-1.00056 1.520772,-0.54358 2.064749,-0.77765 2.505729,-1.0782 0.399687,-0.27241 2.112004,-1.28726 2.651694,-1.57159 0.907186,-0.477964 1.132731,-0.657784 1.354792,-1.080114 0.117526,-0.22353 0.127861,-0.28985 0.125145,-0.80318 -0.0025,-0.4792 -0.0216,-0.61118 -0.132751,-0.91929 -0.162502,-0.45044 -0.328936,-0.73699 -0.52283,-0.90014 -0.221615,-0.18648 -0.516428,-0.17054 -1.285844,0.0695 -0.416929,0.13008 -0.674489,0.1863 -0.763662,0.16672 -0.245286,-0.0539 -0.399292,-0.30159 -0.755038,-1.21445 -0.09386,-0.24084 -0.385503,-0.92117 -0.648098,-1.51184 -0.262595,-0.59067 -0.667967,-1.53214 -0.900823,-2.09216 -0.43168,-1.03819 -0.780964,-1.78227 -0.944321,-2.01168 -0.05012,-0.0704 -0.326042,-0.58722 -0.613172,-1.14854 -0.96111,-1.87889 -1.161328,-2.18301 -1.673216,-2.54153 -0.768199,-0.53803 -1.846039,-1.59473 -2.24518,-2.20114 -0.132103,-0.2007 -0.307662,-0.53897 -0.390132,-0.75171 -0.147929,-0.3816 -0.149623,-0.396 -0.125719,-1.07041 0.01333,-0.37599 0.04918,-0.81424 0.07966,-0.97391 0.07794,-0.40815 0.01138,-0.63343 -0.390126,-1.32047 -1.050605,-1.79776 -1.325592,-3.30252 -0.800152,-4.37853 0.387267,-0.79305 1.763187,-1.7923 3.110951,-2.25929 1.019175,-0.35314 1.818149,-0.51453 5.063437,-1.02281 1.150646,-0.18021 2.852833,-0.47743 4.135671,-0.72213 0.695765,-0.13271 1.593448,-0.29889 1.994851,-0.36929 0.401403,-0.0704 0.894034,-0.16944 1.094737,-0.22009 0.2007,-0.0507 1.032476,-0.22533 1.84839,-0.38818 1.610717,-0.32147 1.95917,-0.43496 2.047999,-0.66701 0.118869,-0.31054 -0.09468,-1.11097 -0.4623,-1.73276 -0.122576,-0.20733 -0.222863,-0.3974 -0.222863,-0.42237 0,-0.025 -0.18306,-0.31446 -0.4068,-0.64328 -0.525834,-0.7728 -0.595362,-0.91531 -1.293419,-2.65099 -0.601058,-1.4945 -0.878887,-2.26986 -1.347707,-3.76114 -0.46194,-1.46938 -0.61981,-1.70357 -1.466586,-2.17554 -0.789928,-0.44029 -1.304965,-1.09486 -1.447456,-1.8396 -0.07317,-0.38241 -0.140954,-0.55842 -0.215055,-0.55842 -0.05791,0 -0.08955,0.17035 -0.145906,0.78562 -0.05242,0.57232 -0.150805,0.88378 -0.3881,1.22869 -0.384297,0.55855 -1.196825,1.29556 -1.718474,1.55874 -0.321474,0.16219 -0.433744,0.2821 -0.34615,0.3697 0.08419,0.0842 0.841059,0.13317 2.627142,0.17003 0.913336,0.0188 1.688021,0.0512 1.721519,0.0719 0.04861,0.03 0.04913,0.19834 0.0026,0.8336 -0.06053,0.82617 -0.108864,1.14004 -0.187671,1.21885 -0.111171,0.11117 -2.03147,0.4576 -2.991524,0.53969 -0.801037,0.0685 -11.834277,0.0834 -16.72387,0.0226 -1.618993,-0.0201 -3.928887,-0.0477 -5.133095,-0.0613 -1.20421,-0.0136 -2.621894,-0.0374 -3.150409,-0.0528 l -0.960935,-0.0281 v 21.38518 21.385134 l -0.206783,0.0276 c -0.453154,0.0605 -1.401148,0.12334 -1.867543,0.12382 l -0.493042,5.5e-4 -0.02912,-0.1338 c -0.04366,-0.20062 -0.118475,-6.866034 -0.151952,-13.538244 -0.05807,-11.57416 -0.119117,-25.35438 -0.120647,-27.2346 l -0.0015,-1.90969 H 40.061032 37.61204 l -0.0324,14.48701 c -0.01782,7.96785 -0.0324,18.36784 -0.03241,23.111094 l -9e-6,8.62409 H 36.160556 34.77389 Z m 39.67673,-1.21205 c 0.01624,-0.0511 0.0074,-0.27556 -0.01962,-0.49871 -0.02702,-0.22315 -0.06129,-0.79983 -0.07616,-1.28152 -0.04985,-1.61549 -0.09362,-1.79206 -0.356212,-1.43689 -0.12322,0.16666 -0.855675,0.65632 -2.003708,1.33951 -0.441543,0.26277 -0.813754,0.48711 -0.827134,0.49854 -0.07266,0.0621 0.534912,0.40935 1.058109,0.60477 0.153949,0.0575 0.641165,0.27608 1.082708,0.48572 0.837104,0.39746 1.087389,0.4607 1.14202,0.28858 z M 59.201773,43.779126 c 0.166675,-0.0892 0.09833,-0.43618 -0.08591,-0.43618 -0.07445,0 -0.257871,0.17304 -0.257871,0.24328 0,0.0514 0.175232,0.24327 0.222146,0.24327 0.01513,0 0.06988,-0.0227 0.121638,-0.0504 z m 0.484511,1.20593 c 0.0011,-0.73876 0.04121,-1.07143 0.141022,-1.17124 0.03748,-0.0375 0.05244,0.22791 0.05244,0.93039 0,0.9504 -0.0032,0.98283 -0.09731,0.98283 -0.09311,0 -0.09726,-0.0321 -0.09615,-0.74198 z m -3.85086,-1.89194 c -0.276435,-0.43486 -0.279565,-0.86509 -0.0071,-0.97293 0.574747,-0.22745 5.666661,-1.94638 5.691652,-1.92139 0.009,0.009 0.06041,0.1753 0.114239,0.36954 0.105663,0.3813 0.323504,0.8468 0.262446,0.56081 -0.01714,-0.0803 -0.06158,-0.28828 -0.09876,-0.46222 -0.09555,-0.447 -0.08937,-0.50354 0.09889,-0.90555 0.300369,-0.6414 0.779799,-1.03612 1.374891,-1.13195 0.361742,-0.0583 0.863352,0.002 1.125474,0.13614 0.328854,0.16777 0.67518,0.52405 0.845287,0.86959 0.144012,0.29253 0.159267,0.36476 0.156049,0.73882 -0.0065,0.7591 -0.369089,1.34269 -1.034981,1.66596 -0.288855,0.14024 -0.36841,0.15699 -0.737356,0.1553 -0.323418,-0.001 -0.50124,-0.0319 -0.815774,-0.13966 -0.353613,-0.12112 -0.444724,-0.13388 -0.754151,-0.10564 -0.193571,0.0177 -0.592728,0.092 -0.887019,0.1652 -0.476694,0.11856 -0.542059,0.14777 -0.59911,0.26778 -0.03522,0.0741 -0.114247,0.1676 -0.175615,0.20781 -0.102221,0.067 -2.01751,0.50093 -2.578509,0.58422 -0.201004,0.0298 -0.272393,0.0174 -0.447181,-0.0781 -0.207525,-0.11337 -0.20879,-0.11344 -0.563618,-0.0314 -0.195596,0.0452 -0.477351,0.0958 -0.626122,0.11249 -0.247907,0.0277 -0.276604,0.0206 -0.343651,-0.0848 z m 2.390051,-0.33743 c 0.09,-0.0273 0.04972,-0.038 -0.154851,-0.0411 -0.231281,-0.003 -0.281513,-0.02 -0.307233,-0.10106 -0.01692,-0.0533 -0.01804,-0.11745 -0.0025,-0.14259 0.01554,-0.0251 0.214666,-0.11608 0.442496,-0.20207 0.227832,-0.086 0.427272,-0.17743 0.443199,-0.2032 0.01708,-0.0276 -0.01164,-0.034 -0.07,-0.0154 -0.05443,0.0173 -0.259696,0.0757 -0.456153,0.12989 -0.588443,0.16224 -0.652309,0.24345 -0.447151,0.56856 0.07243,0.11479 0.191791,0.1163 0.552182,0.007 z m 2.082431,-0.29826 c 0.084,-0.084 0.07196,-0.13623 -0.03138,-0.13623 -0.129608,0 -0.224428,-0.12457 -0.417786,-0.54887 -0.266453,-0.58469 -0.513903,-0.6806 -1.174682,-0.45532 -0.470555,0.16043 -1.10063,0.42701 -1.073466,0.45418 0.01247,0.0125 0.292759,-0.0643 0.622871,-0.17049 1.10188,-0.3546 1.203771,-0.33581 1.48116,0.27319 0.167049,0.36675 0.373135,0.64193 0.480753,0.64193 0.02978,0 0.08042,-0.0263 0.112533,-0.0584 z"
       id="path826"
       inkscape:connector-curvature="0" />
  </g>
</svg>
